<svg xmlns:xlink="http://www.w3.org/1999/xlink" xmlns="http://www.w3.org/2000/svg" version="1.1" id="Layer_1" x="0px" y="0px" viewBox="0 0 85.9 85.3" style="enable-background: new 0 0 85.9 85.3">
<style type="text/css">
	.st0{fill:#231F20;}
	.st1{fill:none;stroke:#231F20;stroke-width:1.4017;stroke-linecap:round;stroke-linejoin:round;stroke-miterlimit:10;}
	.st2{fill:#3B3A3C;}
	.st3{fill:#B8A663;}
	.st4{fill:none;stroke:#231F20;stroke-miterlimit:10;}
	.st5{fill:none;stroke:#231F20;stroke-width:0.6174;stroke-linecap:round;stroke-linejoin:round;stroke-miterlimit:10;}
	.st6{fill:none;stroke:#231F20;stroke-linecap:round;stroke-linejoin:round;stroke-miterlimit:10;}
	.st7{fill:#FFFFFF;stroke:#231F20;stroke-linecap:round;stroke-linejoin:round;stroke-miterlimit:10;}
	.st8{fill:none;stroke:#1D1D1B;stroke-miterlimit:10;}
	.st9{fill:none;stroke:#1D1D1B;stroke-linecap:round;stroke-miterlimit:10;}
	.st10{fill:#1D1D1B;}
	.st11{fill:none;stroke:#1D1D1B;stroke-linecap:round;stroke-linejoin:round;stroke-miterlimit:10;}
	.st12{fill:#FFFFFF;stroke:#1D1D1B;stroke-miterlimit:10;}
	.st13{fill:none;stroke:#231F20;stroke-width:1.8508;stroke-linecap:round;stroke-linejoin:round;stroke-miterlimit:10;}
	.st14{fill:none;stroke:#231F20;stroke-width:1.8508;stroke-miterlimit:10;}
	.st15{fill:#FFFFFF;stroke:#231F20;stroke-width:1.8508;stroke-linecap:round;stroke-linejoin:round;stroke-miterlimit:10;}
	.st16{fill:none;stroke:#1D1D1B;stroke-width:1.8508;stroke-miterlimit:10;}
	.st17{fill:#FFFFFF;}
	.st18{fill:none;stroke:#1D1D1B;stroke-width:1.8508;stroke-linecap:round;stroke-linejoin:round;stroke-miterlimit:10;}
	.st19{fill:none;stroke:#1D1D1B;stroke-width:1.8508;stroke-linecap:round;stroke-miterlimit:10;}
	.st20{fill:#FFFFFF;stroke:#1D1D1B;stroke-width:1.8508;stroke-miterlimit:10;}
	.st21{fill:#C6C6C6;}
	.st22{fill:none;stroke:#DADADA;stroke-width:3.4203;stroke-miterlimit:10;}
	.st23{fill:#822B26;}
	.st24{fill:#A8A8A8;}
	.st25{fill:#2A6780;}
	.st26{opacity:0.8;fill:#2A6780;}
	.st27{fill:none;stroke:#FFFFFF;stroke-width:0.75;stroke-linecap:round;stroke-linejoin:round;stroke-miterlimit:10;}
	.st28{fill:none;stroke:#113A47;stroke-width:1.5;stroke-miterlimit:10;}
	.st29{fill:#113A47;}
	.st30{fill:#B7A562;}
</style>

<g>
	<path class="st0" d="M12.6,17.8c0.6,0.5,1.1,0.9,1.7,1c0.6,0.2,1.1,0.2,1.6,0.1c0.5-0.1,0.9-0.4,1.3-0.8c0.3-0.3,0.5-0.7,0.6-1   c0.1-0.3,0.2-0.7,0.1-1L17.2,16c0,0.3-0.1,0.6-0.2,0.8c-0.1,0.2-0.2,0.5-0.4,0.7c-0.4,0.4-0.9,0.6-1.4,0.6c-0.6,0-1.2-0.4-1.9-1   c-0.7-0.7-1.1-1.3-1.2-1.8c-0.1-0.6,0.1-1,0.4-1.5c0.3-0.3,0.7-0.6,1.3-0.6l-0.1-0.8c-0.4,0.1-0.7,0.1-1,0.3   c-0.3,0.1-0.5,0.4-0.8,0.7c-0.4,0.4-0.6,0.8-0.7,1.3c-0.1,0.5,0,1,0.2,1.6C11.7,16.7,12.1,17.3,12.6,17.8z" />
	<path class="st0" d="M22.9,13l-0.5-1.7l2.2-1.4l1.3,1.2l0.9-0.5l-5.4-4.7l-1,0.6l1.7,7L22.9,13z M24.1,9.3l-1.8,1.1l-0.9-3.6   L24.1,9.3z" />
	<polygon class="st0" points="35.6,7.6 35.5,6.7 32.8,7.5 31.2,1.6 30.3,1.9 32.1,8.5" />
	
		<rect x="41.4" y="0" transform="matrix(0.9996 -2.853775e-02 2.853775e-02 0.9996 -8.150461e-02 1.1957)" class="st0" width="0.9" height="6.9" />
	<path class="st0" d="M53,7.4c0.7-0.4,1.2-1.2,1.5-2.4c0.3-1.3,0.2-2.2-0.3-2.8c-0.5-0.6-1.3-1-2.3-1.3l-1.4-0.3L49,7.3l1.6,0.4   C51.4,7.9,52.2,7.8,53,7.4z M51.3,1.6L52,1.7C52.4,1.8,52.7,2,53,2.2c0.3,0.2,0.5,0.5,0.6,0.9c0.1,0.4,0.1,1-0.1,1.7   c-0.2,1-0.6,1.7-1.1,1.9C52,7,51.4,7.1,50.8,7l-0.8-0.2L51.3,1.6z" />
	<path class="st0" d="M60.5,9.5l2.3,1.3l-0.4,1.8l0.9,0.5L64.8,6l-1-0.6l-5.4,4.9l0.8,0.5L60.5,9.5z M63.8,6.4L63,10l-1.9-1.1   L63.8,6.4z" />
	<path class="st0" d="M70.8,18.9c0.8,0.1,1.7-0.3,2.6-1.2c1-0.9,1.4-1.7,1.3-2.5c-0.1-0.8-0.5-1.6-1.2-2.3l-1-1.1l-5,4.7l1.1,1.2   C69.3,18.4,70,18.8,70.8,18.9z M72.7,13.1l0.5,0.5c0.3,0.3,0.5,0.6,0.6,1c0.1,0.3,0.1,0.7,0,1.1c-0.1,0.4-0.5,0.9-1,1.4   c-0.8,0.7-1.4,1-2,1c-0.6,0-1.1-0.3-1.5-0.7l-0.5-0.6L72.7,13.1z" />
	<path class="st0" d="M12.8,42.6c0,16.6,13.5,30.2,30.2,30.2c16.6,0,30.2-13.5,30.2-30.2c0-16.6-13.5-30.2-30.2-30.2   C26.3,12.4,12.8,25.9,12.8,42.6z M43,13.6c16,0,28.9,13,28.9,28.9S58.9,71.5,43,71.5c-16,0-28.9-13-28.9-28.9S27,13.6,43,13.6z" />
	<path class="st0" d="M3,43.6c0.3-0.2,0.5-0.4,0.6-0.7s0.3-0.6,0.5-1.1c0.1-0.4,0.3-0.7,0.4-0.9c0.1-0.2,0.2-0.4,0.4-0.4   c0.1-0.1,0.3-0.1,0.5-0.1c0.3,0,0.6,0.1,0.7,0.4c0.2,0.2,0.2,0.5,0.2,0.9c0,0.3-0.1,0.6-0.2,0.8c-0.1,0.2-0.3,0.5-0.5,0.8l0.6,0.5   c0.3-0.3,0.5-0.6,0.6-0.9c0.1-0.3,0.2-0.7,0.2-1.2c0-0.4-0.1-0.8-0.2-1.1c-0.1-0.3-0.4-0.6-0.6-0.8c-0.3-0.2-0.6-0.3-0.9-0.3   c-0.5,0-0.9,0.1-1.2,0.5c-0.3,0.3-0.6,0.8-0.8,1.5c-0.1,0.4-0.3,0.7-0.4,0.9c-0.1,0.2-0.3,0.4-0.4,0.4c-0.2,0.1-0.3,0.1-0.6,0.1   c-0.4,0-0.7-0.2-0.9-0.4c-0.2-0.3-0.3-0.6-0.3-1.1c0-0.4,0.1-0.7,0.2-1c0.1-0.3,0.3-0.6,0.5-0.8l-0.6-0.5C0.3,39.7,0,40.4,0,41.4   c0,0.5,0.1,0.9,0.2,1.3c0.2,0.4,0.4,0.7,0.7,0.9c0.3,0.2,0.7,0.3,1.1,0.3C2.4,43.9,2.7,43.8,3,43.6z" />
	<path class="st0" d="M8.4,52.8L4,54c-0.5,0.1-0.9,0.1-1.3-0.1c-0.3-0.2-0.5-0.5-0.7-1C2,52.5,2,52.1,2.2,51.8   c0.2-0.3,0.6-0.5,1.1-0.6L7.7,50l-0.2-0.9L3,50.2c-0.7,0.2-1.2,0.5-1.5,1c-0.3,0.5-0.4,1.1-0.2,1.9c0.1,0.5,0.3,0.9,0.6,1.2   c0.3,0.3,0.6,0.5,1,0.6c0.4,0.1,0.8,0.1,1.2,0l4.5-1.1L8.4,52.8z" />
	<path class="st0" d="M12.3,62.6c0.1-0.6-0.1-1.2-0.5-2L10.9,59L5,62.5l0.5,0.8L7.6,62l0.4,0.8c0.4,0.7,0.9,1.2,1.5,1.4   c0.6,0.2,1.2,0.2,1.8-0.2C11.9,63.6,12.3,63.1,12.3,62.6z M11.5,62.2c0,0.4-0.3,0.7-0.7,0.9c-0.5,0.3-0.9,0.3-1.2,0.2   c-0.3-0.1-0.6-0.5-0.9-0.9l-0.4-0.7l2.5-1.4l0.4,0.7C11.4,61.4,11.6,61.8,11.5,62.2z" />
	<polygon class="st0" points="11.6,71.8 14.3,74.5 14.8,74 12.8,71.9 14.5,70.3 16.1,71.9 16.6,71.4 15,69.7 16.6,68.1 18.5,70    19.1,69.6 16.4,66.9" />
	<path class="st0" d="M25,73.8l-1.6-0.9l-3.4,6l0.8,0.5l1.4-2.5l0.9,0.5l0,3.4l1,0.6l-0.1-3.6c0.5,0.1,0.9,0.1,1.3,0   c0.4-0.1,0.7-0.4,0.9-0.8c0.3-0.6,0.4-1.1,0.1-1.6C26.3,74.7,25.8,74.2,25,73.8z M25.5,76.2c-0.2,0.4-0.5,0.6-0.8,0.7   c-0.3,0.1-0.7,0-1.1-0.3l-0.8-0.5l1.2-2.2l0.7,0.4c0.5,0.3,0.8,0.6,0.9,0.9C25.7,75.5,25.7,75.9,25.5,76.2z" />
	<path class="st0" d="M40.7,78.5l-1.8-0.1l-0.4,6.9l0.9,0.1l0.1-2.5l0.9,0.1c0.8,0,1.5-0.1,2-0.4c0.5-0.3,0.8-0.9,0.8-1.6   c0-0.7-0.2-1.2-0.6-1.6C42.2,78.7,41.6,78.5,40.7,78.5z M41.8,81.8c-0.3,0.2-0.7,0.3-1.3,0.2l-0.8,0l0.2-2.9l0.8,0   c0.5,0,0.9,0.2,1.2,0.4c0.3,0.2,0.4,0.6,0.4,1.1C42.2,81.3,42.1,81.6,41.8,81.8z" />
	<path class="st0" d="M53.2,80.4c0.2-0.3,0.2-0.8,0.1-1.2c-0.1-0.6-0.5-1.1-1-1.3c-0.5-0.2-1.2-0.2-2-0.1l-1.8,0.4l1.4,6.7l0.9-0.2   l-0.6-2.9l1-0.2l2.2,2.5l1.1-0.2l-2.5-2.6C52.7,81,53,80.7,53.2,80.4z M51.1,80.9l-0.9,0.2l-0.5-2.4l0.8-0.2c0.6-0.1,1-0.1,1.3,0   c0.3,0.1,0.5,0.4,0.6,0.8c0.1,0.4,0,0.8-0.2,1C51.9,80.7,51.6,80.8,51.1,80.9z" />
	<polygon class="st0" points="61.7,80.3 60.6,78.2 62.6,77.2 62.3,76.5 60.2,77.6 59.2,75.6 61.6,74.3 61.3,73.6 58,75.3 61.2,81.4    64.5,79.7 64.2,79" />
	<path class="st0" d="M68.9,67.6l2.5,4.6l-4.5-2.6l-0.9,0.9l4.3,5.4l0.6-0.6L69,72.8c-0.7-0.8-1.3-1.6-1.9-2.2l4.7,2.6l0.6-0.6   l-2.5-4.7c0.5,0.5,1.1,1.1,2.1,1.9l2.3,2.1l0.7-0.6l-5.2-4.6L68.9,67.6z" />
	
		<rect x="76.1" y="59.8" transform="matrix(0.5244 -0.8515 0.8515 0.5244 -17.3967 95.2664)" class="st0" width="0.9" height="6.9" />
	<path class="st0" d="M83.5,53.3c-0.3-0.3-0.6-0.5-1.1-0.6L78,51.2l-0.3,0.9l4.4,1.4c0.5,0.2,0.9,0.4,1,0.7c0.2,0.3,0.2,0.7,0,1.2   c-0.1,0.5-0.4,0.8-0.7,0.9c-0.3,0.1-0.7,0.1-1.3,0l-4.4-1.4l-0.3,0.9l4.5,1.4c0.7,0.2,1.3,0.2,1.8-0.1c0.5-0.3,0.9-0.8,1.1-1.5   c0.2-0.5,0.2-0.9,0.1-1.3C84,53.9,83.8,53.6,83.5,53.3z" />
	<path class="st0" d="M85.9,40.4l0-0.9L79,39.9l0,1.3l5,1.5l-5,1.4l0,1.3l6.9,0.7l0-0.9l-3-0.3c-1.1-0.1-2.1-0.2-2.9-0.2l5.2-1.5   l0-0.9L80,40.7c0.7,0,1.6,0,2.8-0.1L85.9,40.4z" />
	<path class="st0" d="M7.3,27.5c0.8,0,1.4-0.6,1.4-1.4c0-0.8-0.6-1.4-1.4-1.4c-0.8,0-1.4,0.6-1.4,1.4C5.9,26.8,6.5,27.5,7.3,27.5z" />
	<path class="st0" d="M78.7,27.5c0.8,0,1.4-0.6,1.4-1.4c0-0.8-0.6-1.4-1.4-1.4c-0.8,0-1.4,0.6-1.4,1.4   C77.2,26.8,77.9,27.5,78.7,27.5z" />
	<path class="st0" d="M36,31.8c0.1,0.2,0.4,0.3,0.6,0.3l4.2-0.5l1.7,3.8c0.1,0.2,0.3,0.4,0.6,0.4s0.5-0.1,0.6-0.4l1.7-3.8l4.2,0.5   c0.2,0,0.5-0.1,0.6-0.3c0.1-0.2,0.1-0.5,0-0.7l-2.5-3.4l2.5-3.4c0.1-0.2,0.2-0.5,0-0.7s-0.4-0.3-0.6-0.3l-4.2,0.5L43.6,20   c-0.2-0.5-0.9-0.5-1.1,0l-1.7,3.8l-4.2-0.5c-0.2,0-0.5,0.1-0.6,0.3c-0.1,0.2-0.1,0.5,0,0.7l2.5,3.4l-2.5,3.4   C35.9,31.3,35.9,31.5,36,31.8z M39.8,28.1c0.2-0.2,0.2-0.5,0-0.7l-1.9-2.6l3.2,0.3c0.3,0,0.5-0.1,0.6-0.4l1.3-2.9l1.3,2.9   c0.1,0.2,0.4,0.4,0.6,0.4l3.2-0.3l-1.9,2.6c-0.2,0.2-0.2,0.5,0,0.7l1.9,2.6L45,30.3c-0.3,0-0.5,0.1-0.6,0.4L43,33.6l-1.3-2.9   c-0.1-0.2-0.3-0.4-0.6-0.4c0,0,0,0-0.1,0l-3.2,0.3L39.8,28.1z" />
	<path class="st0" d="M40.9,52.7c-0.1-0.2-0.4-0.3-0.6-0.3l-4.2,0.5L34.4,49c-0.2-0.5-0.9-0.5-1.1,0l-1.7,3.8l-4.2-0.5   c-0.3,0-0.5,0.1-0.6,0.3c-0.1,0.2-0.1,0.5,0,0.7l2.5,3.4l-2.5,3.4c-0.1,0.2-0.2,0.5,0,0.7c0.1,0.2,0.4,0.3,0.6,0.3l4.2-0.5l1.7,3.8   c0.1,0.2,0.3,0.4,0.6,0.4s0.5-0.1,0.6-0.4l1.7-3.8l4.2,0.5c0.2,0,0.5-0.1,0.6-0.3c0.1-0.2,0.1-0.5,0-0.7l-2.5-3.4l2.5-3.4   C41,53.1,41,52.9,40.9,52.7z M37.1,56.3c-0.2,0.2-0.2,0.5,0,0.7l1.9,2.6l-3.2-0.3c-0.3,0-0.5,0.1-0.6,0.4l-1.3,2.9l-1.3-2.9   c-0.1-0.2-0.3-0.4-0.6-0.4c0,0,0,0-0.1,0l-3.2,0.3l1.9-2.6c0.2-0.2,0.2-0.5,0-0.7l-1.9-2.6l3.2,0.3c0.3,0,0.5-0.1,0.6-0.4l1.3-2.9   l1.3,2.9c0.1,0.2,0.4,0.4,0.6,0.4l3.2-0.3L37.1,56.3z" />
	<path class="st0" d="M59.1,52.7c-0.1-0.2-0.4-0.3-0.6-0.3l-4.2,0.5L52.7,49c-0.2-0.5-0.9-0.5-1.1,0l-1.7,3.8l-4.2-0.5   c-0.3,0-0.5,0.1-0.6,0.3c-0.1,0.2-0.1,0.5,0,0.7l2.5,3.4l-2.5,3.4c-0.1,0.2-0.2,0.5,0,0.7c0.1,0.2,0.4,0.3,0.6,0.3l4.2-0.5l1.7,3.8   c0.1,0.2,0.3,0.4,0.6,0.4c0.2,0,0.5-0.1,0.6-0.4l1.7-3.8l4.2,0.5c0.2,0,0.5-0.1,0.6-0.3c0.1-0.2,0.1-0.5,0-0.7l-2.5-3.4l2.5-3.4   C59.2,53.1,59.2,52.9,59.1,52.7z M55.3,56.3c-0.2,0.2-0.2,0.5,0,0.7l1.9,2.6L54,59.3c-0.3,0-0.5,0.1-0.6,0.4l-1.3,2.9l-1.3-2.9   c-0.1-0.2-0.3-0.4-0.6-0.4c0,0,0,0-0.1,0L47,59.7l1.9-2.6c0.2-0.2,0.2-0.5,0-0.7L47,53.7l3.2,0.3c0.3,0,0.5-0.1,0.6-0.4l1.3-2.9   l1.3,2.9c0.1,0.2,0.4,0.4,0.6,0.4l3.2-0.3L55.3,56.3z" />
	<path class="st0" d="M50.3,43c0.1,0.2,0.4,0.3,0.6,0.3l4.2-0.5l1.7,3.8c0.1,0.2,0.3,0.4,0.6,0.4s0.5-0.1,0.6-0.4l1.7-3.8l4.2,0.5   c0.2,0,0.5-0.1,0.6-0.3c0.1-0.2,0.1-0.5,0-0.7l-2.5-3.4l2.5-3.4c0.1-0.2,0.2-0.5,0-0.7c-0.1-0.2-0.4-0.3-0.6-0.3L59.6,35l-1.7-3.8   c-0.2-0.5-0.9-0.5-1.1,0L55.1,35l-4.2-0.5c-0.3,0-0.5,0.1-0.6,0.3c-0.1,0.2-0.1,0.5,0,0.7l2.5,3.4l-2.5,3.4   C50.2,42.5,50.2,42.8,50.3,43z M54.1,39.3c0.2-0.2,0.2-0.5,0-0.7L52.2,36l3.2,0.3c0.3,0,0.5-0.1,0.6-0.4l1.3-2.9l1.3,2.9   c0.1,0.2,0.4,0.4,0.6,0.4l3.2-0.3l-1.9,2.6c-0.2,0.2-0.2,0.5,0,0.7l1.9,2.6l-3.2-0.3c-0.3,0-0.5,0.1-0.6,0.4l-1.3,2.9L56,41.9   c-0.1-0.2-0.3-0.4-0.6-0.4c0,0,0,0-0.1,0l-3.2,0.3L54.1,39.3z" />
	<path class="st0" d="M24.1,38.9l-2.5,3.4c-0.1,0.2-0.2,0.5,0,0.7c0.1,0.2,0.4,0.3,0.6,0.3l4.2-0.5l1.7,3.8c0.1,0.2,0.3,0.4,0.6,0.4   s0.5-0.1,0.6-0.4l1.7-3.8l4.2,0.5c0.2,0,0.5-0.1,0.6-0.3c0.1-0.2,0.1-0.5,0-0.7l-2.5-3.4l2.5-3.4c0.1-0.2,0.2-0.5,0-0.7   c-0.1-0.2-0.4-0.3-0.6-0.3L30.9,35l-1.7-3.8c-0.2-0.5-0.9-0.5-1.1,0L26.4,35l-4.2-0.5c-0.3,0-0.5,0.1-0.6,0.3   c-0.1,0.2-0.1,0.5,0,0.7L24.1,38.9z M26.7,36.3c0.3,0,0.5-0.1,0.6-0.4l1.3-2.9l1.3,2.9c0.1,0.2,0.4,0.4,0.6,0.4l3.2-0.3l-1.9,2.6   c-0.2,0.2-0.2,0.5,0,0.7l1.9,2.6l-3.2-0.3c-0.3,0-0.5,0.1-0.6,0.4l-1.3,2.9l-1.3-2.9c-0.1-0.2-0.3-0.4-0.6-0.4c0,0,0,0-0.1,0   l-3.2,0.3l1.9-2.6c0.2-0.2,0.2-0.5,0-0.7L23.5,36L26.7,36.3z" />
</g>
</svg>