<svg xmlns:xlink="http://www.w3.org/1999/xlink" xmlns="http://www.w3.org/2000/svg" version="1.1" id="Layer_1" x="0px" y="0px" viewBox="0 0 81 83.2" style="enable-background: new 0 0 81 83.2">
<style type="text/css">
	.st0{fill:#231F20;}
	.st1{fill:none;stroke:#231F20;stroke-width:1.4017;stroke-linecap:round;stroke-linejoin:round;stroke-miterlimit:10;}
	.st2{fill:#3B3A3C;}
	.st3{fill:#B8A663;}
	.st4{fill:none;stroke:#231F20;stroke-miterlimit:10;}
	.st5{fill:none;stroke:#231F20;stroke-width:0.6174;stroke-linecap:round;stroke-linejoin:round;stroke-miterlimit:10;}
	.st6{fill:none;stroke:#231F20;stroke-linecap:round;stroke-linejoin:round;stroke-miterlimit:10;}
	.st7{fill:#FFFFFF;stroke:#231F20;stroke-linecap:round;stroke-linejoin:round;stroke-miterlimit:10;}
	.st8{fill:none;stroke:#1D1D1B;stroke-miterlimit:10;}
	.st9{fill:none;stroke:#1D1D1B;stroke-linecap:round;stroke-miterlimit:10;}
	.st10{fill:#1D1D1B;}
	.st11{fill:none;stroke:#1D1D1B;stroke-linecap:round;stroke-linejoin:round;stroke-miterlimit:10;}
	.st12{fill:#FFFFFF;stroke:#1D1D1B;stroke-miterlimit:10;}
	.st13{fill:none;stroke:#231F20;stroke-width:1.8508;stroke-linecap:round;stroke-linejoin:round;stroke-miterlimit:10;}
	.st14{fill:none;stroke:#231F20;stroke-width:1.8508;stroke-miterlimit:10;}
	.st15{fill:#FFFFFF;stroke:#231F20;stroke-width:1.8508;stroke-linecap:round;stroke-linejoin:round;stroke-miterlimit:10;}
	.st16{fill:none;stroke:#1D1D1B;stroke-width:1.8508;stroke-miterlimit:10;}
	.st17{fill:#FFFFFF;}
	.st18{fill:none;stroke:#1D1D1B;stroke-width:1.8508;stroke-linecap:round;stroke-linejoin:round;stroke-miterlimit:10;}
	.st19{fill:none;stroke:#1D1D1B;stroke-width:1.8508;stroke-linecap:round;stroke-miterlimit:10;}
	.st20{fill:#FFFFFF;stroke:#1D1D1B;stroke-width:1.8508;stroke-miterlimit:10;}
	.st21{fill:#C6C6C6;}
	.st22{fill:none;stroke:#DADADA;stroke-width:3.4203;stroke-miterlimit:10;}
	.st23{fill:#822B26;}
	.st24{fill:#A8A8A8;}
	.st25{fill:#2A6780;}
	.st26{opacity:0.8;fill:#2A6780;}
	.st27{fill:none;stroke:#FFFFFF;stroke-width:0.75;stroke-linecap:round;stroke-linejoin:round;stroke-miterlimit:10;}
	.st28{fill:none;stroke:#113A47;stroke-width:1.5;stroke-miterlimit:10;}
	.st29{fill:#113A47;}
	.st30{fill:#B7A562;}
</style>

<g>
	<polygon class="st0" points="6.5,29.5 5.9,29.4 5.2,31.7 3.3,31.1 3.8,29.2 3.2,29 2.7,30.9 0.8,30.4 1.5,28.2 0.9,27.9 0,30.9    5.5,32.6" />
	<path class="st0" d="M7.4,27.2l-2.2-1.3c-0.8-0.5-1.5-0.9-2.1-1.2l4.5,0.8l0.3-0.7l-3.3-3.1c0.5,0.2,1.2,0.6,2.2,0.9l2.4,1L9.5,23   l-5.4-2.2l-0.5,1l3.2,2.9l-4.3-0.8l-0.5,1l5,3L7.4,27.2z" />
	<path class="st0" d="M11.2,20.6l-1.7-1.3l0.4-0.6c0.4-0.5,0.6-1.1,0.6-1.6c0-0.5-0.2-1-0.8-1.3c-0.5-0.4-0.9-0.5-1.4-0.3   s-0.9,0.5-1.4,1.1l-0.9,1.2l4.6,3.5L11.2,20.6z M9,18.9l-1.9-1.5l0.4-0.6c0.3-0.4,0.6-0.6,0.9-0.7c0.3-0.1,0.6,0,0.9,0.3   c0.4,0.3,0.6,0.6,0.5,0.9c0,0.3-0.1,0.6-0.4,1L9,18.9z" />
	<path class="st0" d="M14,17.2l-0.7-1.3l1.6-1.5l1.3,0.7l0.6-0.6l-5.4-2.8l-0.7,0.7l2.7,5.4L14,17.2z M11.5,12.4l2.8,1.5L13,15.2   L11.5,12.4z" />
	<path class="st0" d="M16.1,11.3c0.4,0.5,0.8,0.9,1.2,1.1c0.4,0.2,0.9,0.4,1.3,0.3c0.4,0,0.8-0.2,1.2-0.4c0.4-0.3,0.8-0.5,1.1-0.6   c0.3-0.1,0.7-0.1,1.1,0l0-0.9c-0.3,0-0.6,0-0.8,0.1c-0.3,0.1-0.5,0.2-0.8,0.4c0.2-0.4,0.3-0.9,0.3-1.3c0-0.5-0.3-1-0.7-1.5   c-0.4-0.5-0.8-0.9-1.2-1.2c-0.4-0.2-0.9-0.4-1.3-0.3c-0.4,0-0.9,0.2-1.3,0.5c-0.4,0.3-0.7,0.6-0.8,1c-0.2,0.4-0.2,0.9-0.1,1.3   C15.5,10.3,15.7,10.8,16.1,11.3z M16.7,7.9c0.9-0.6,1.8-0.3,2.7,1c0.9,1.3,0.9,2.2,0,2.8c-0.4,0.3-0.8,0.4-1.3,0.2   c-0.4-0.1-0.9-0.5-1.4-1.2c-0.5-0.7-0.7-1.2-0.7-1.7C16.1,8.6,16.3,8.2,16.7,7.9z" />
	<path class="st0" d="M23.8,9.3c0.5,0.2,1,0.1,1.6-0.1c0.4-0.2,0.7-0.4,0.9-0.7s0.3-0.6,0.3-0.9c0-0.3,0-0.7-0.2-1l-1.6-3.6L24,3.3   l1.6,3.5c0.2,0.4,0.2,0.8,0.1,1c-0.1,0.3-0.3,0.5-0.7,0.7c-0.4,0.2-0.7,0.2-1,0.1c-0.3-0.1-0.5-0.4-0.7-0.8l-1.6-3.5l-0.7,0.3   l1.6,3.6C22.9,8.7,23.3,9.1,23.8,9.3z" />
	<polygon class="st0" points="32.5,6.6 32.3,6 30,6.6 29.5,4.7 31.4,4.2 31.2,3.5 29.3,4.1 28.8,2.2 31,1.6 30.9,1 27.9,1.8    29.4,7.4" />
	<path class="st0" d="M38.5,5.8l-0.1-2.5l0.9,0l1.4,2.4l1,0l-1.6-2.6C40.5,3,40.8,2.8,41,2.6c0.2-0.3,0.3-0.6,0.3-1   c0-0.5-0.2-0.9-0.6-1.2C40.3,0.1,39.8,0,39.1,0l-1.5,0l0.1,5.8L38.5,5.8z M39.1,0.6c0.5,0,0.8,0.1,1,0.2c0.2,0.2,0.3,0.4,0.3,0.8   c0,0.4-0.1,0.7-0.3,0.8c-0.2,0.2-0.5,0.3-0.9,0.3l-0.8,0l-0.1-2.1L39.1,0.6z" />
	<polygon class="st0" points="46.8,5.7 44.4,5.4 44.7,3.4 46.6,3.7 46.7,3 44.7,2.8 45,0.9 47.2,1.2 47.4,0.6 44.3,0.2 43.5,5.9    46.7,6.3" />
	<path class="st0" d="M49.5,6.7c0.3,0.3,0.7,0.6,1.1,0.7c0.4,0.1,0.7,0.1,1,0.1c0.3,0,0.6-0.1,0.8-0.3l-0.2-0.6   c-0.2,0.1-0.5,0.1-0.7,0.2c-0.2,0-0.4,0-0.7-0.1c-0.5-0.1-0.8-0.4-1-0.9c-0.2-0.4-0.2-1,0.1-1.8c0.2-0.8,0.5-1.3,0.9-1.6   s0.8-0.3,1.3-0.2c0.4,0.1,0.7,0.3,1,0.7l0.6-0.4C53.4,2.4,53.2,2.1,53,2c-0.2-0.2-0.5-0.3-0.8-0.4c-0.4-0.1-0.9-0.1-1.3,0   c-0.4,0.1-0.8,0.4-1.1,0.7c-0.3,0.4-0.6,0.9-0.8,1.5c-0.2,0.6-0.2,1.2-0.2,1.6C49,6,49.2,6.4,49.5,6.7z" />
	<rect x="52.5" y="5.6" transform="matrix(0.3922 -0.9199 0.9199 0.3922 28.1984 54.6179)" class="st0" width="5.8" height="0.8" />
	<path class="st0" d="M58.7,11c0.3,0.2,0.6,0.3,0.9,0.3c0.3,0,0.6,0,0.8-0.1l-0.1-0.6c-0.3,0-0.5,0-0.7,0c-0.2,0-0.4-0.1-0.6-0.2   c-0.4-0.2-0.7-0.6-0.7-1.1c-0.1-0.5,0.1-1.1,0.5-1.7c0.4-0.7,0.8-1.1,1.3-1.3c0.4-0.2,0.9-0.1,1.3,0.1c0.3,0.2,0.6,0.5,0.8,0.9   l0.6-0.2c-0.1-0.3-0.2-0.5-0.4-0.7C62.2,6.2,62,6,61.7,5.8c-0.4-0.2-0.8-0.3-1.2-0.3c-0.4,0-0.9,0.2-1.3,0.4   c-0.4,0.3-0.8,0.7-1.1,1.2s-0.5,1.1-0.6,1.6c-0.1,0.5,0,0.9,0.2,1.3C58,10.4,58.3,10.7,58.7,11z" />
	<polygon class="st0" points="64,14.7 64.5,14.2 62.7,12.8 65.8,8.8 65.2,8.3 61.6,12.8" />
	<path class="st0" d="M65.4,16.1l1.4-0.7l1.5,1.6l-0.8,1.3l0.6,0.6l3-5.3l-0.7-0.7l-5.5,2.6L65.4,16.1z M70.2,13.7l-1.6,2.7   l-1.2-1.3L70.2,13.7z" />
	<path class="st0" d="M70,21.6c0.9,1.3,1.7,1.6,2.6,1c0.4-0.2,0.6-0.5,0.6-0.9c0-0.3,0-0.7-0.2-1c0.2,0.2,0.5,0.4,0.8,0.4   c0.3,0.1,0.6,0,0.9-0.2c0.4-0.3,0.6-0.6,0.6-1.1c0-0.5-0.2-1-0.6-1.6l-0.8-1.1l-4.8,3.2L70,21.6z M73.8,18.1l0.4,0.5   c0.3,0.4,0.4,0.7,0.4,1c0,0.3-0.1,0.5-0.4,0.7c-0.2,0.2-0.5,0.2-0.8,0.1c-0.3-0.1-0.5-0.3-0.7-0.6l-0.5-0.7L73.8,18.1z M71.8,19.4   l0.5,0.8c0.2,0.3,0.3,0.6,0.3,0.9s-0.2,0.5-0.5,0.8c-0.3,0.2-0.6,0.3-0.9,0.1c-0.3-0.1-0.5-0.4-0.8-0.8l-0.4-0.7L71.8,19.4z" />
	<polygon class="st0" points="73.5,28.1 74.2,27.9 73.2,25.8 77.8,23.6 77.4,22.9 72.2,25.3" />
	<polygon class="st0" points="75.1,33 75.7,32.8 75,30.5 76.9,29.9 77.5,31.8 78.1,31.6 77.5,29.7 79.3,29.2 80,31.3 80.6,31.2    79.7,28.2 74.1,29.9" />
	<polygon class="st0" points="3.1,53.1 3.7,55 4.3,54.8 3.7,52.9 5.5,52.4 6.2,54.5 6.8,54.4 5.9,51.4 0.4,53.2 1.4,56.3 2,56.1    1.2,53.8" />
	<path class="st0" d="M9.3,59.4l-4.3,1l3.1-3.1l-0.5-0.9l-5.3,2.3l0.4,0.7l2.3-1c0.8-0.4,1.6-0.7,2.2-1L4,60.5l0.4,0.7l4.4-0.9   c-0.5,0.3-1.2,0.7-2,1.2l-2.2,1.4l0.4,0.7l4.9-3.2L9.3,59.4z" />
	<path class="st0" d="M12.1,66.5c0.5-0.4,0.7-0.8,0.7-1.3c0-0.5-0.2-1-0.7-1.6l-0.9-1.2L6.6,66l0.5,0.6l1.7-1.3l0.5,0.6   c0.4,0.5,0.9,0.9,1.4,1C11.1,67,11.6,66.9,12.1,66.5z M9.7,65.5l-0.4-0.5l1.9-1.5l0.4,0.6c0.3,0.4,0.4,0.7,0.4,1   c0,0.3-0.2,0.6-0.5,0.8c-0.4,0.3-0.7,0.4-1,0.3C10.3,66.1,10,65.8,9.7,65.5z" />
	<path class="st0" d="M15.2,67.1L9.9,70l0.6,0.6l1.3-0.7l1.6,1.5l-0.7,1.4l0.6,0.6l2.7-5.5L15.2,67.1z M13.7,70.7l-1.3-1.2l2.7-1.6   L13.7,70.7z" />
	<path class="st0" d="M20.2,71c-0.4-0.3-0.8-0.4-1.3-0.4c-0.4,0-0.9,0.1-1.3,0.4c-0.4,0.3-0.8,0.6-1.2,1.2c-0.4,0.5-0.6,1-0.7,1.5   c-0.1,0.5,0,0.9,0.1,1.3c0.2,0.4,0.5,0.7,0.9,1c0.4,0.3,0.7,0.6,0.9,0.8c0.2,0.3,0.3,0.6,0.4,1l0.8-0.3c-0.1-0.3-0.2-0.5-0.4-0.7   c-0.2-0.2-0.4-0.4-0.6-0.6c0.5,0.1,0.9,0,1.4-0.2c0.4-0.2,0.8-0.6,1.2-1.1c0.4-0.5,0.6-1,0.7-1.5c0.1-0.5,0-0.9-0.1-1.3   C20.9,71.6,20.6,71.3,20.2,71z M19.8,74.4c-0.9,1.3-1.8,1.6-2.6,1c-0.4-0.3-0.6-0.7-0.6-1.1c0-0.5,0.2-1,0.6-1.7   c0.5-0.7,0.9-1.1,1.4-1.2c0.4-0.2,0.9-0.1,1.3,0.2C20.7,72.2,20.7,73.1,19.8,74.4z" />
	<path class="st0" d="M25.1,78.2c-0.2,0.4-0.4,0.7-0.7,0.8c-0.3,0.1-0.6,0.1-1-0.1c-0.4-0.2-0.6-0.4-0.7-0.7c-0.1-0.3,0-0.6,0.1-1   l1.6-3.5l-0.7-0.3l-1.6,3.6c-0.2,0.5-0.3,1-0.1,1.5c0.2,0.5,0.6,0.8,1.1,1.1c0.4,0.2,0.8,0.2,1.1,0.2c0.3,0,0.7-0.1,0.9-0.3   c0.3-0.2,0.5-0.5,0.6-0.8l1.6-3.6l-0.7-0.3L25.1,78.2z" />
	<polygon class="st0" points="28.1,81.3 31.2,82.2 31.3,81.5 29,80.9 29.5,79 31.4,79.5 31.6,78.9 29.7,78.4 30.2,76.6 32.4,77.1    32.6,76.5 29.6,75.7" />
	<path class="st0" d="M41,80c0.2-0.2,0.3-0.6,0.3-1c0-0.5-0.2-1-0.5-1.2c-0.4-0.3-0.9-0.4-1.6-0.5l-1.5,0l-0.1,5.8l0.8,0l0.1-2.5   l0.9,0l1.3,2.5l1,0l-1.5-2.6C40.5,80.4,40.8,80.2,41,80z M39.2,80l-0.8,0l0.1-2.1l0.7,0c0.5,0,0.8,0.1,1,0.3   c0.2,0.2,0.3,0.4,0.3,0.8c0,0.4-0.1,0.7-0.3,0.8C40,80,39.6,80,39.2,80z" />
	<polygon class="st0" points="44.9,82.2 44.6,80.3 46.5,80 46.5,79.4 44.5,79.6 44.3,77.7 46.5,77.5 46.5,76.8 43.4,77.2 44.1,83    47.3,82.6 47.2,81.9" />
	<path class="st0" d="M52.5,80.6c-0.2,0.1-0.4,0.2-0.6,0.3c-0.5,0.1-0.9,0.1-1.3-0.2c-0.4-0.3-0.7-0.8-0.9-1.6   c-0.2-0.8-0.2-1.4-0.1-1.8c0.2-0.4,0.5-0.7,1-0.8c0.4-0.1,0.8-0.1,1.2,0.1l0.3-0.6c-0.3-0.1-0.6-0.2-0.8-0.2c-0.3,0-0.5,0-0.9,0.1   c-0.4,0.1-0.8,0.3-1.1,0.7c-0.3,0.3-0.5,0.7-0.6,1.2c-0.1,0.5,0,1,0.1,1.7c0.2,0.6,0.4,1.1,0.7,1.5c0.3,0.4,0.7,0.6,1.1,0.8   c0.4,0.1,0.9,0.1,1.3,0c0.4-0.1,0.6-0.2,0.9-0.4c0.2-0.2,0.4-0.4,0.5-0.6l-0.5-0.4C52.8,80.3,52.6,80.4,52.5,80.6z" />
	
		<rect x="54.7" y="74.4" transform="matrix(0.9228 -0.3853 0.3853 0.9228 -25.5092 27.2065)" class="st0" width="0.8" height="5.8" />
	<path class="st0" d="M61.5,76.5c-0.1,0.2-0.3,0.3-0.5,0.4c-0.4,0.2-0.8,0.3-1.3,0.1c-0.4-0.2-0.9-0.6-1.3-1.3   c-0.4-0.7-0.6-1.3-0.5-1.8c0.1-0.5,0.3-0.8,0.7-1.1c0.3-0.2,0.7-0.3,1.2-0.2L60,72c-0.3-0.1-0.6-0.1-0.8,0c-0.3,0-0.5,0.1-0.8,0.3   c-0.4,0.2-0.7,0.5-0.9,0.9c-0.2,0.4-0.3,0.8-0.2,1.3c0,0.5,0.2,1,0.5,1.6c0.3,0.6,0.7,1,1.1,1.3s0.8,0.4,1.3,0.5   c0.4,0,0.9-0.1,1.3-0.3c0.3-0.2,0.6-0.4,0.7-0.6c0.2-0.2,0.3-0.5,0.4-0.7l-0.6-0.2C61.7,76.1,61.6,76.3,61.5,76.5z" />
	<polygon class="st0" points="65,74.1 61.8,70.1 61.2,70.6 64.8,75.1 67.2,73.2 66.8,72.6" />
	<path class="st0" d="M65.7,66.7l2.9,5.4l0.6-0.6l-0.7-1.3l1.5-1.6l1.4,0.7l0.6-0.6l-5.5-2.7L65.7,66.7z M69.3,68.2l-1.3,1.3   l-1.6-2.8L69.3,68.2z" />
	<path class="st0" d="M74.2,62.6c-0.4-0.3-0.7-0.3-1-0.3c-0.3,0.1-0.6,0.3-0.9,0.6c0.1-0.3,0.2-0.6,0.1-0.9   c-0.1-0.3-0.2-0.5-0.5-0.7c-0.4-0.3-0.8-0.3-1.2-0.2c-0.4,0.2-0.8,0.6-1.3,1.2l-0.8,1.1l4.8,3.3l0.9-1.3   C75.1,64.2,75.1,63.2,74.2,62.6z M71.1,64.2l-1.5-1l0.4-0.5c0.3-0.4,0.5-0.6,0.7-0.7c0.2-0.1,0.5-0.1,0.8,0.1   c0.2,0.2,0.4,0.4,0.4,0.7c0,0.3-0.1,0.5-0.3,0.8L71.1,64.2z M73.7,65.1l-0.5,0.7l-1.7-1.2l0.5-0.8c0.2-0.3,0.5-0.5,0.7-0.6   c0.3-0.1,0.6,0,0.9,0.2c0.3,0.2,0.5,0.5,0.4,0.8C74.2,64.3,74,64.7,73.7,65.1z" />
	<polygon class="st0" points="76.7,60.1 72.1,57.8 71.7,58.5 76.9,61.1 78.3,58.3 77.7,58" />
	<polygon class="st0" points="78.9,54.9 77,54.3 77.6,52.5 77,52.3 76.4,54.1 74.6,53.5 75.3,51.4 74.7,51.1 73.8,54.1 79.3,55.9    80.3,52.8 79.7,52.6" />
	<path class="st0" d="M1.7,43c0.9,0,1.7-0.7,1.7-1.7s-0.7-1.7-1.7-1.7s-1.7,0.7-1.7,1.7S0.8,43,1.7,43z" />
	<path class="st0" d="M79.4,39.7c-0.9,0-1.7,0.7-1.7,1.7s0.7,1.7,1.7,1.7s1.7-0.7,1.7-1.7S80.3,39.7,79.4,39.7z" />
	<path class="st0" d="M40.2,21.7c-8,0-16.1,1.6-16.1,4.5V30c0,0,0,0,0,0c0,0,0,0,0,0v26.4c0,3.3,9.7,4.5,16.2,4.5s16.2-1.2,16.2-4.5   V26.3C56.4,23.3,48.3,21.7,40.2,21.7z M55,30c0,1.1-5.2,3.1-14.8,3.1c-9.5,0-14.7-2-14.8-3.1v-1.8c2.7,1.7,8.9,2.5,14.7,2.5   c5.9,0,12.1-0.8,14.8-2.5V30z M40.3,59.6c-9.6,0-14.8-2.1-14.8-3.1V32c2.9,1.8,9.8,2.6,14.8,2.6c5,0,11.9-0.7,14.8-2.6v24.4   C55,57.5,49.8,59.6,40.3,59.6z" />
	<path class="st0" d="M45.6,46.5c-0.2-0.3-0.6-0.5-1-0.3c-0.3,0.2-0.5,0.6-0.3,1l2.9,5.1h-2.2v-1.4L41.5,53l3.6,2.1v-1.4h3.4   c0.3,0,0.5-0.1,0.6-0.4c0.1-0.2,0.1-0.5,0-0.7L45.6,46.5z" />
	<path class="st0" d="M39,52.3h-5.8l1.1-1.9l1.2,0.7v-4.2L31.9,49l1.2,0.7l-1.7,3c-0.1,0.2-0.1,0.5,0,0.7c0.1,0.2,0.4,0.4,0.6,0.4   H39c0.4,0,0.7-0.3,0.7-0.7S39.4,52.3,39,52.3z" />
	<path class="st0" d="M43.7,40.4l-1.2,0.7l-1.6-2.8c-0.1-0.2-0.4-0.4-0.6-0.4s-0.5,0.1-0.6,0.4l-3.5,6c-0.2,0.3-0.1,0.8,0.3,1   c0.1,0.1,0.2,0.1,0.4,0.1c0.2,0,0.5-0.1,0.6-0.4l2.9-4.9l1,1.8l-1.2,0.7l3.6,2.1L43.7,40.4z" />
	<path class="st0" d="M40.3,9.4C22.5,9.4,8,23.8,8,41.6s14.5,32.2,32.2,32.2c17.8,0,32.2-14.5,32.2-32.2S58,9.4,40.3,9.4z    M40.3,72.4c-17,0-30.8-13.8-30.8-30.8s13.8-30.8,30.8-30.8c17,0,30.8,13.8,30.8,30.8S57.3,72.4,40.3,72.4z" />
</g>
</svg>