<svg xmlns="http://www.w3.org/2000/svg" xmlns:xlink="http://www.w3.org/1999/xlink" version="1.1" style="enable-background:new 0 0 36 36;" xml:space="preserve" width="36" height="36"><rect id="backgroundrect" width="100%" height="100%" x="0" y="0" fill="none" stroke="none"/>
<style type="text/css">
	.st0{fill:#231F20;}
	.st1{fill:none;stroke:#231F20;stroke-width:1.4017;stroke-linecap:round;stroke-linejoin:round;stroke-miterlimit:10;}
	.st2{fill:#3B3A3C;}
	.st3{fill:#B8A663;}
	.st4{fill:none;stroke:#231F20;stroke-miterlimit:10;}
	.st5{fill:none;stroke:#231F20;stroke-width:0.6174;stroke-linecap:round;stroke-linejoin:round;stroke-miterlimit:10;}
	.st6{fill:none;stroke:#231F20;stroke-linecap:round;stroke-linejoin:round;stroke-miterlimit:10;}
	.st7{fill:#FFFFFF;stroke:#231F20;stroke-linecap:round;stroke-linejoin:round;stroke-miterlimit:10;}
	.st8{fill:none;stroke:#1D1D1B;stroke-miterlimit:10;}
	.st9{fill:none;stroke:#1D1D1B;stroke-linecap:round;stroke-miterlimit:10;}
	.st10{fill:#1D1D1B;}
	.st11{fill:none;stroke:#1D1D1B;stroke-linecap:round;stroke-linejoin:round;stroke-miterlimit:10;}
	.st12{fill:#FFFFFF;stroke:#1D1D1B;stroke-miterlimit:10;}
	.st13{fill:none;stroke:#231F20;stroke-width:1.8508;stroke-linecap:round;stroke-linejoin:round;stroke-miterlimit:10;}
	.st14{fill:none;stroke:#231F20;stroke-width:1.8508;stroke-miterlimit:10;}
	.st15{fill:#FFFFFF;stroke:#231F20;stroke-width:1.8508;stroke-linecap:round;stroke-linejoin:round;stroke-miterlimit:10;}
	.st16{fill:none;stroke:#1D1D1B;stroke-width:1.8508;stroke-miterlimit:10;}
	.st17{fill:#FFFFFF;}
	.st18{fill:none;stroke:#1D1D1B;stroke-width:1.8508;stroke-linecap:round;stroke-linejoin:round;stroke-miterlimit:10;}
	.st19{fill:none;stroke:#1D1D1B;stroke-width:1.8508;stroke-linecap:round;stroke-miterlimit:10;}
	.st20{fill:#FFFFFF;stroke:#1D1D1B;stroke-width:1.8508;stroke-miterlimit:10;}
	.st21{fill:#C6C6C6;}
	.st22{fill:none;stroke:#DADADA;stroke-width:3.4203;stroke-miterlimit:10;}
	.st23{fill:#822B26;}
	.st24{fill:#A8A8A8;}
	.st25{fill:#2A6780;}
	.st26{opacity:0.8;fill:#2A6780;}
	.st27{fill:none;stroke:#FFFFFF;stroke-width:0.75;stroke-linecap:round;stroke-linejoin:round;stroke-miterlimit:10;}
	.st28{fill:none;stroke:#113A47;stroke-width:1.5;stroke-miterlimit:10;}
	.st29{fill:#113A47;}
</style>

<g class="currentLayer" style=""><title>Layer 1</title><path id="White_1_" d="M29.6,5H6.4C5.6,5,5,5.6,5,6.4v23.1C5,30.4,5.6,31,6.4,31h12.5V20.9h-3.4V17h3.4v-2.9c0-3.4,2.1-5.2,5-5.2  c1.4,0,2.7,0.1,3,0.2v3.5l-2.1,0c-1.6,0-1.9,0.8-1.9,1.9V17h3.9l-0.5,3.9h-3.4V31h6.6c0.8,0,1.4-0.6,1.4-1.4V6.4  C31,5.6,30.4,5,29.6,5z" class="selected" fill="#ffffff" fill-opacity="1"/></g></svg>