<?xml version="1.0" encoding="utf-8"?>
<!-- Generator: Adobe Illustrator 21.0.0, SVG Export Plug-In . SVG Version: 6.00 Build 0)  -->
<svg version="1.1" id="Layer_1" xmlns="http://www.w3.org/2000/svg" xmlns:xlink="http://www.w3.org/1999/xlink" x="0px" y="0px"
	 viewBox="0 0 179.4 173.3" style="enable-background:new 0 0 179.4 173.3;" xml:space="preserve">
<style type="text/css">
	.st0{fill:#231F20;}
	.st1{fill:none;stroke:#231F20;stroke-width:1.4017;stroke-linecap:round;stroke-linejoin:round;stroke-miterlimit:10;}
	.st2{fill:#3B3A3C;}
	.st3{fill:#B8A663;}
	.st4{fill:none;stroke:#231F20;stroke-miterlimit:10;}
	.st5{fill:none;stroke:#231F20;stroke-width:0.6174;stroke-linecap:round;stroke-linejoin:round;stroke-miterlimit:10;}
	.st6{fill:none;stroke:#231F20;stroke-linecap:round;stroke-linejoin:round;stroke-miterlimit:10;}
	.st7{fill:#FFFFFF;stroke:#231F20;stroke-linecap:round;stroke-linejoin:round;stroke-miterlimit:10;}
	.st8{fill:none;stroke:#1D1D1B;stroke-miterlimit:10;}
	.st9{fill:none;stroke:#1D1D1B;stroke-linecap:round;stroke-miterlimit:10;}
	.st10{fill:#1D1D1B;}
	.st11{fill:none;stroke:#1D1D1B;stroke-linecap:round;stroke-linejoin:round;stroke-miterlimit:10;}
	.st12{fill:#FFFFFF;stroke:#1D1D1B;stroke-miterlimit:10;}
	.st13{fill:none;stroke:#231F20;stroke-width:1.8508;stroke-linecap:round;stroke-linejoin:round;stroke-miterlimit:10;}
	.st14{fill:none;stroke:#231F20;stroke-width:1.8508;stroke-miterlimit:10;}
	.st15{fill:#FFFFFF;stroke:#231F20;stroke-width:1.8508;stroke-linecap:round;stroke-linejoin:round;stroke-miterlimit:10;}
	.st16{fill:none;stroke:#1D1D1B;stroke-width:1.8508;stroke-miterlimit:10;}
	.st17{fill:#FFFFFF;}
	.st18{fill:none;stroke:#1D1D1B;stroke-width:1.8508;stroke-linecap:round;stroke-linejoin:round;stroke-miterlimit:10;}
	.st19{fill:none;stroke:#1D1D1B;stroke-width:1.8508;stroke-linecap:round;stroke-miterlimit:10;}
	.st20{fill:#FFFFFF;stroke:#1D1D1B;stroke-width:1.8508;stroke-miterlimit:10;}
	.st21{fill:#C6C6C6;}
	.st22{fill:none;stroke:#DADADA;stroke-width:3.4203;stroke-miterlimit:10;}
	.st23{fill:#822B26;}
	.st24{fill:#A8A8A8;}
	.st25{fill:#2A6780;}
	.st26{opacity:0.8;fill:#2A6780;}
	.st27{fill:none;stroke:#FFFFFF;stroke-width:0.75;stroke-linecap:round;stroke-linejoin:round;stroke-miterlimit:10;}
	.st28{fill:none;stroke:#113A47;stroke-width:1.5;stroke-miterlimit:10;}
	.st29{fill:#113A47;}
</style>
<g>
	<path class="st0" d="M89.8,128.5c-23.5,0-42.6-19.1-42.6-42.6s19.1-42.6,42.6-42.6s42.6,19.1,42.6,42.6S113.3,128.5,89.8,128.5z
		 M89.8,45.2c-22.5,0-40.7,18.3-40.7,40.7s18.3,40.7,40.7,40.7s40.7-18.3,40.7-40.7S112.3,45.2,89.8,45.2z"/>
	<g>
		<path class="st0" d="M45.6,121.2l-0.7-0.8l-2.8,2.2l-1.1-1.3l7-5.6l1.7,2.1c1.5,1.8,1.5,3.3,0.2,4.4c-0.5,0.4-0.9,0.6-1.4,0.6
			c-0.5,0-1-0.1-1.6-0.5l-1.6,4.3L44,125L45.6,121.2z M45.9,119.6l0.7,0.8c0.3,0.4,0.7,0.7,1.1,0.7c0.4,0.1,0.7-0.1,1.2-0.4
			c0.4-0.3,0.6-0.6,0.6-1c0-0.4-0.2-0.8-0.6-1.3l-0.6-0.7L45.9,119.6z"/>
		<path class="st0" d="M58.2,126.3l-1,0.8l-2.5-2.2l-1.6,1.9l2.2,1.9l-0.8,1l-2.2-1.9l-1.7,2l2.7,2.3l-0.8,1l-3.9-3.5l5.9-6.7
			L58.2,126.3z"/>
		<path class="st0" d="M61.8,139.3l-1.9-1.1l1.1-7.8c-0.3,0.6-0.5,1.1-0.7,1.6s-0.5,1-0.9,1.6l-1.9,3.1l-1.3-0.8l4.6-7.7l1.9,1.1
			l-1,7.8c0.1-0.3,0.3-0.7,0.6-1.3c0.2-0.5,0.5-1,0.8-1.5l2.2-3.6l1.3,0.8L61.8,139.3z"/>
		<path class="st0" d="M74.6,135.9c0.6,0.9,0.6,2.1,0,3.7c-0.6,1.6-1.3,2.5-2.3,2.9c-1,0.4-2.1,0.3-3.3-0.1l-2.3-0.8l3-8.4l2.1,0.7
			C73,134.3,74,135,74.6,135.9z M70.8,134.9l-2.1,6l0.8,0.3c0.7,0.3,1.4,0.2,1.9-0.1c0.6-0.3,1.1-1,1.5-2.2c0.3-0.8,0.4-1.5,0.3-2
			c-0.1-0.5-0.2-0.9-0.5-1.2c-0.3-0.3-0.7-0.5-1.1-0.7L70.8,134.9z"/>
		<path class="st0" d="M81,136.4l-1.7,8.8l-1.7-0.3l1.7-8.8L81,136.4z"/>
		<path class="st0" d="M93.5,146.2l-1.7,0l-0.2-3.7c-0.1-1.3-0.1-2.4-0.1-3.2l0-0.5l-1.7,6.4l-1.6,0l-1.7-6.4c0,0.6,0,1,0,1.3
			c0,0.8,0,1.6-0.1,2.4l-0.2,3.7l-1.7,0l0.7-9l2.2,0l1.6,6.3l1.5-6.3l2.2,0L93.5,146.2z"/>
		<path class="st0" d="M99,136.3l1.4,8.8l-1.7,0.3l-1.4-8.8L99,136.3z"/>
		<path class="st0" d="M107.7,134l0.2,1.3l-3.2,1l0.7,2.4l2.7-0.9l0.4,1.2l-2.7,0.8l0.8,2.5l3.4-1l0.4,1.2l-5,1.5l-2.6-8.6
			L107.7,134z"/>
		<path class="st0" d="M120.6,137.7l-2,1l-6.1-5c0.4,0.5,0.7,1,1,1.5c0.3,0.4,0.6,1,0.9,1.6l1.7,3.2l-1.4,0.7l-4.2-7.9l1.9-1l6.1,5
			c-0.2-0.3-0.5-0.7-0.8-1.1c-0.3-0.5-0.6-1-0.9-1.5l-1.9-3.7l1.4-0.7L120.6,137.7z"/>
		<path class="st0" d="M124.1,124.1l0.7,1.2l-1.8,1.4l4.7,6l-1.4,1.1l-4.7-6l-1.9,1.5l-0.8-1.1L124.1,124.1z"/>
		<path class="st0" d="M129.9,118.5c0.7-0.2,1.4-0.2,2.1,0c0.7,0.2,1.5,0.7,2.2,1.3c0.7,0.6,1.3,1.3,1.6,2c0.3,0.7,0.4,1.4,0.3,2.1
			c-0.1,0.7-0.4,1.3-1,1.9c-0.5,0.6-1.1,1-1.8,1.2c-0.7,0.2-1.4,0.2-2.1,0c-0.7-0.2-1.5-0.7-2.2-1.3c-0.7-0.6-1.2-1.3-1.6-2
			c-0.3-0.7-0.4-1.4-0.3-2.1c0.1-0.7,0.4-1.3,1-1.9C128.6,119.1,129.2,118.7,129.9,118.5z M128.6,122.3c0.2,0.6,0.7,1.3,1.6,2.1
			c1.7,1.5,3,1.7,3.9,0.6c0.5-0.5,0.6-1.1,0.4-1.7c-0.2-0.6-0.7-1.3-1.6-2.1c-0.9-0.8-1.6-1.2-2.3-1.3c-0.6-0.1-1.2,0.1-1.6,0.6
			C128.6,121.1,128.4,121.6,128.6,122.3z"/>
	</g>
	<g>
		<g>
			<path class="st0" d="M49.1,51.4l-0.7,0.8l2.7,2.3l-1.1,1.3l-6.8-5.8l1.7-2c1.5-1.8,3-2.1,4.3-1c0.5,0.4,0.7,0.8,0.8,1.3
				c0.1,0.5,0,1-0.2,1.7l4.5,0.7l-1.3,1.5L49.1,51.4z M47.5,51.4l0.7-0.8c0.4-0.4,0.5-0.8,0.5-1.2c0-0.4-0.2-0.7-0.6-1.1
				C47.7,48.1,47.4,48,47,48c-0.4,0.1-0.7,0.4-1.1,0.8l-0.6,0.7L47.5,51.4z"/>
			<path class="st0" d="M55.1,38.5l0.7,1.1l-2.6,2.1l1.6,1.9l2.2-1.8l0.8,1l-2.2,1.8l1.7,2l2.8-2.2l0.8,1l-4.1,3.3l-5.6-7L55.1,38.5
				z"/>
			<path class="st0" d="M69.3,40.5l-2,1l-6.1-4.9c0.4,0.5,0.7,1,1,1.4c0.3,0.4,0.6,1,0.9,1.6l1.7,3.2l-1.4,0.7l-4.2-7.9l1.9-1
				l6.2,4.9c-0.2-0.3-0.5-0.7-0.8-1.1c-0.3-0.5-0.6-1-0.9-1.5l-2-3.7l1.4-0.7L69.3,40.5z"/>
			<path class="st0" d="M75.9,29.8c1,0.4,1.7,1.4,2.2,3c0.5,1.6,0.4,2.8-0.2,3.7c-0.6,0.9-1.5,1.5-2.7,1.9l-2.3,0.7l-2.5-8.6
				l2.1-0.6C73.7,29.5,74.9,29.5,75.9,29.8z M72.3,31.2l1.8,6.1l0.8-0.2c0.7-0.2,1.2-0.6,1.5-1.2s0.3-1.4-0.1-2.6
				c-0.2-0.8-0.5-1.4-0.9-1.8c-0.3-0.4-0.7-0.6-1.1-0.7c-0.4-0.1-0.8,0-1.3,0.1L72.3,31.2z"/>
			<path class="st0" d="M83.3,27.6l1.1,8.9l-1.7,0.2l-1.1-8.9L83.3,27.6z"/>
			<path class="st0" d="M96.8,36.5l-1.7-0.1l0-3.7c0-1.3,0-2.4,0-3.2l0-0.5l-2,6.3l-1.6-0.1l-1.4-6.5c0,0.6,0,1,0,1.3
				c0,0.8-0.1,1.6-0.2,2.4l-0.4,3.7L87.9,36l1.2-8.9l2.2,0.1l1.3,6.3l1.8-6.2l2.2,0.1L96.8,36.5z"/>
			<path class="st0" d="M103.9,28.9l-2,8.7l-1.7-0.4l2-8.7L103.9,28.9z"/>
			<path class="st0" d="M113.7,32.2l-0.6,1.1l-3.1-1.2l-0.9,2.3l2.7,1l-0.5,1.2l-2.7-1l-1,2.4l3.3,1.3l-0.5,1.2l-4.9-1.9l3.2-8.3
				L113.7,32.2z"/>
			<path class="st0" d="M119.1,45.5l-1.9-1.2l1.2-7.8c-0.3,0.6-0.5,1.1-0.8,1.6c-0.2,0.5-0.6,1-0.9,1.6l-1.9,3.1l-1.3-0.8l4.8-7.6
				l1.8,1.2l-1.2,7.8c0.1-0.3,0.3-0.7,0.6-1.2c0.3-0.5,0.5-1,0.8-1.5l2.2-3.6l1.3,0.8L119.1,45.5z"/>
			<path class="st0" d="M132.4,45.4l-1.1,0.9l-1.7-1.6l-5.2,5.5l-1.3-1.2l5.2-5.5l-1.8-1.6l0.9-1L132.4,45.4z"/>
			<path class="st0" d="M138.3,53.5c0,0.7-0.1,1.4-0.5,2c-0.4,0.7-1,1.3-1.8,1.9c-0.8,0.6-1.6,0.9-2.3,1.1c-0.8,0.2-1.5,0.1-2.1-0.2
				c-0.6-0.3-1.2-0.7-1.7-1.4c-0.5-0.7-0.7-1.3-0.8-2c-0.1-0.7,0.1-1.4,0.5-2c0.4-0.7,1-1.3,1.8-1.9c0.8-0.6,1.6-0.9,2.3-1.1
				c0.8-0.2,1.5-0.1,2.1,0.2c0.6,0.3,1.2,0.7,1.7,1.4C138,52.1,138.3,52.8,138.3,53.5z M134.9,51.4c-0.7,0-1.4,0.4-2.4,1.1
				c-1.8,1.3-2.3,2.5-1.5,3.7c0.4,0.6,0.9,0.8,1.6,0.8c0.6,0,1.4-0.4,2.4-1.1c0.9-0.7,1.5-1.3,1.8-1.9c0.2-0.6,0.1-1.2-0.3-1.7
				C136.1,51.7,135.6,51.4,134.9,51.4z"/>
		</g>
	</g>
	<g>
		<path class="st10" d="M88.6,118c-2.6,0-4.7-2.1-4.7-4.7V94.9c0-2.6,2.1-4.7,4.7-4.7c2.6,0,4.7,2.1,4.7,4.7v18.5
			C93.2,115.9,91.1,118,88.6,118z M88.6,92.1c-1.6,0-2.8,1.3-2.8,2.8v18.5c0,1.6,1.3,2.8,2.8,2.8c1.6,0,2.8-1.3,2.8-2.8V94.9
			C91.4,93.3,90.1,92.1,88.6,92.1z"/>
		<path class="st10" d="M106.4,76.7H71c-3.2,0-5.9-2.6-5.9-5.9s2.6-5.9,5.9-5.9h35.4c3.2,0,5.9,2.6,5.9,5.9S109.6,76.7,106.4,76.7z
			 M71,66.8c-2.2,0-4,1.8-4,4s1.8,4,4,4h35.4c2.2,0,4-1.8,4-4s-1.8-4-4-4H71z"/>
		<path class="st10" d="M88.6,92.1c-0.5,0-0.9-0.4-0.9-0.9v-3.7c0-1.4,1-2.6,2.3-2.8l25.6-5.2c0.5-0.1,0.8-0.5,0.8-1v-5.5
			c0-0.6-0.5-1-1-1h-4c-0.5,0-0.9-0.4-0.9-0.9s0.4-0.9,0.9-0.9h4c1.6,0,2.9,1.3,2.9,2.9v5.5c0,1.4-1,2.6-2.3,2.8l-25.6,5.2
			c-0.5,0.1-0.8,0.5-0.8,1v3.7C89.5,91.6,89.1,92.1,88.6,92.1z"/>
	</g>
</g>
<g>
	<g>
		<defs>
			<rect id="SVGID_1_" x="223.5" width="800" height="400"/>
		</defs>
		<clipPath id="SVGID_2_">
			<use xlink:href="#SVGID_1_"  style="overflow:visible;"/>
		</clipPath>
		<g style="clip-path:url(#SVGID_2_);">
			
				<image style="overflow:visible;" width="1600" height="1067" xlink:href="../JPG/Newsletter fondo.jpg"  transform="matrix(0.6579 0 0 0.6579 126.8174 -204.721)">
			</image>
		</g>
	</g>
</g>
</svg>
