<?xml version="1.0" encoding="utf-8"?>
<!-- Generator: Adobe Illustrator 21.0.0, SVG Export Plug-In . SVG Version: 6.00 Build 0)  -->
<svg version="1.1" id="Layer_1" xmlns="http://www.w3.org/2000/svg" xmlns:xlink="http://www.w3.org/1999/xlink" x="0px" y="0px"
	 viewBox="0 0 179.4 173.3" style="enable-background:new 0 0 179.4 173.3;" xml:space="preserve">
<style type="text/css">
	.st0{fill:#231F20;}
	.st1{fill:none;stroke:#231F20;stroke-width:1.4017;stroke-linecap:round;stroke-linejoin:round;stroke-miterlimit:10;}
	.st2{fill:#3B3A3C;}
	.st3{fill:#B8A663;}
	.st4{fill:none;stroke:#231F20;stroke-miterlimit:10;}
	.st5{fill:none;stroke:#231F20;stroke-width:0.6174;stroke-linecap:round;stroke-linejoin:round;stroke-miterlimit:10;}
	.st6{fill:none;stroke:#231F20;stroke-linecap:round;stroke-linejoin:round;stroke-miterlimit:10;}
	.st7{fill:#FFFFFF;stroke:#231F20;stroke-linecap:round;stroke-linejoin:round;stroke-miterlimit:10;}
	.st8{fill:none;stroke:#1D1D1B;stroke-miterlimit:10;}
	.st9{fill:none;stroke:#1D1D1B;stroke-linecap:round;stroke-miterlimit:10;}
	.st10{fill:#1D1D1B;}
	.st11{fill:none;stroke:#1D1D1B;stroke-linecap:round;stroke-linejoin:round;stroke-miterlimit:10;}
	.st12{fill:#FFFFFF;stroke:#1D1D1B;stroke-miterlimit:10;}
	.st13{fill:none;stroke:#231F20;stroke-width:1.8508;stroke-linecap:round;stroke-linejoin:round;stroke-miterlimit:10;}
	.st14{fill:none;stroke:#231F20;stroke-width:1.8508;stroke-miterlimit:10;}
	.st15{fill:#FFFFFF;stroke:#231F20;stroke-width:1.8508;stroke-linecap:round;stroke-linejoin:round;stroke-miterlimit:10;}
	.st16{fill:none;stroke:#1D1D1B;stroke-width:1.8508;stroke-miterlimit:10;}
	.st17{fill:#FFFFFF;}
	.st18{fill:none;stroke:#1D1D1B;stroke-width:1.8508;stroke-linecap:round;stroke-linejoin:round;stroke-miterlimit:10;}
	.st19{fill:none;stroke:#1D1D1B;stroke-width:1.8508;stroke-linecap:round;stroke-miterlimit:10;}
	.st20{fill:#FFFFFF;stroke:#1D1D1B;stroke-width:1.8508;stroke-miterlimit:10;}
	.st21{fill:#C6C6C6;}
	.st22{fill:none;stroke:#DADADA;stroke-width:3.4203;stroke-miterlimit:10;}
	.st23{fill:#822B26;}
	.st24{fill:#A8A8A8;}
	.st25{fill:#2A6780;}
	.st26{opacity:0.8;fill:#2A6780;}
	.st27{fill:none;stroke:#FFFFFF;stroke-width:0.75;stroke-linecap:round;stroke-linejoin:round;stroke-miterlimit:10;}
	.st28{fill:none;stroke:#113A47;stroke-width:1.5;stroke-miterlimit:10;}
	.st29{fill:#113A47;}
</style>
<g>
	<path class="st0" d="M89.7,129.2c-23.5,0-42.6-19.1-42.6-42.6s19.1-42.6,42.6-42.6s42.6,19.1,42.6,42.6S113.2,129.2,89.7,129.2z
		 M89.7,45.9C67.3,45.9,49,64.2,49,86.6s18.3,40.7,40.7,40.7s40.7-18.3,40.7-40.7S112.2,45.9,89.7,45.9z"/>
	<g>
		<path class="st0" d="M63.2,130.6l-0.9,1l-1.9-1.3l-4.3,6.2l-1.4-1l4.3-6.2l-2-1.4l0.8-1.1L63.2,130.6z"/>
		<path class="st0" d="M65.5,141.8l0.4-2.1l-2.7-1.3l-1.4,1.6l-1.6-0.8l6.4-6.9l1.9,0.9l-1.4,9.3L65.5,141.8z M64.1,137.3l2.1,1
			L67,134L64.1,137.3z"/>
		<path class="st0" d="M79.8,146.1l-1.6-0.4l0.7-3.7c0.2-1.3,0.5-2.4,0.6-3.1l0.1-0.5l-3.1,5.9l-1.6-0.4l-0.2-6.7
			c-0.1,0.6-0.2,1-0.3,1.3c-0.2,0.8-0.4,1.5-0.6,2.3l-1.1,3.5l-1.6-0.4l2.8-8.5L76,136l0.1,6.5l2.9-5.7l2.2,0.5L79.8,146.1z"/>
		<path class="st0" d="M90.6,146.6l-0.6-2.1l-3,0l-0.5,2.1l-1.8,0l2.7-9l2.1,0l2.9,8.9L90.6,146.6z M87.4,143.3l2.3,0l-1.2-4.3
			L87.4,143.3z"/>
		<path class="st0" d="M103.6,145.3l-2.2,0.4l-4.3-6.6c0.2,0.6,0.3,1.2,0.5,1.7c0.1,0.5,0.3,1.1,0.4,1.8l0.6,3.6l-1.5,0.3l-1.6-8.8
			l2.1-0.4l4.3,6.6c-0.1-0.3-0.2-0.8-0.4-1.3c-0.2-0.5-0.3-1.1-0.4-1.7l-0.7-4.1l1.5-0.3L103.6,145.3z M98.9,135.9
			c-0.1,0-0.3-0.1-0.5-0.2c-0.1-0.1-0.3-0.1-0.3-0.1s-0.2,0-0.3,0c-0.1,0-0.3,0.1-0.3,0.2c-0.1,0.1-0.2,0.3-0.2,0.5l-1-0.3
			c0.1-0.4,0.3-0.8,0.5-1.1c0.2-0.3,0.5-0.5,0.8-0.5c0.2,0,0.4,0,0.5,0s0.3,0.1,0.5,0.2c0.1,0.1,0.2,0.1,0.3,0.1c0.1,0,0.2,0,0.3,0
			c0.1,0,0.2-0.1,0.3-0.2c0.1-0.1,0.2-0.3,0.3-0.5l0.9,0.3c-0.1,0.4-0.3,0.8-0.5,1.1c-0.2,0.3-0.5,0.5-0.8,0.5
			C99.2,135.9,99.1,135.9,98.9,135.9z"/>
		<path class="st0" d="M110.7,133.8c0.7,0.1,1.3,0.4,1.8,1c0.6,0.5,1,1.3,1.4,2.2c0.4,0.9,0.5,1.7,0.5,2.5c0,0.8-0.3,1.4-0.7,2
			c-0.4,0.6-1,1-1.7,1.3c-0.7,0.3-1.5,0.4-2.1,0.3c-0.7-0.1-1.3-0.4-1.9-1c-0.6-0.5-1-1.3-1.4-2.2c-0.4-0.9-0.5-1.7-0.5-2.5
			c0-0.8,0.3-1.4,0.7-2s1-1,1.7-1.3C109.3,133.7,110,133.6,110.7,133.8z M107.9,136.6c-0.1,0.6,0,1.5,0.4,2.6
			c0.8,2.1,1.9,2.9,3.2,2.3c0.6-0.3,1-0.7,1.2-1.3c0.1-0.6,0-1.5-0.5-2.6c-0.4-1.1-0.9-1.8-1.4-2.2c-0.5-0.4-1.1-0.4-1.8-0.2
			C108.4,135.5,108,135.9,107.9,136.6z"/>
		<path class="st0" d="M118.7,129c0.5-0.1,1-0.1,1.5,0l-0.2,1.3c-0.4-0.1-0.8,0-1.1,0s-0.7,0.2-1,0.4c-0.4,0.2-0.6,0.5-0.7,0.8
			c-0.1,0.3-0.1,0.6,0.1,0.9c0.1,0.2,0.3,0.3,0.4,0.4c0.2,0.1,0.4,0.1,0.7,0.1c0.3,0,0.7-0.1,1.2-0.3c0.9-0.2,1.6-0.3,2.2-0.2
			c0.6,0.1,1.1,0.5,1.5,1.2c0.3,0.5,0.4,0.9,0.4,1.4c0,0.5-0.2,1-0.5,1.5c-0.3,0.5-0.8,0.9-1.3,1.3c-0.6,0.4-1.1,0.6-1.7,0.7
			c-0.6,0.1-1.1,0.1-1.7,0l0.2-1.3c0.5,0.1,0.9,0.1,1.3,0c0.4-0.1,0.8-0.2,1.2-0.5c0.4-0.3,0.7-0.6,0.8-0.9c0.1-0.4,0.1-0.7-0.1-1.1
			c-0.1-0.2-0.3-0.4-0.5-0.5c-0.2-0.1-0.4-0.1-0.7-0.1c-0.3,0-0.7,0.1-1.1,0.2c-1,0.3-1.7,0.3-2.3,0.2c-0.6-0.1-1.1-0.5-1.4-1
			c-0.3-0.4-0.4-0.8-0.4-1.3c0-0.5,0.2-0.9,0.4-1.3c0.3-0.4,0.7-0.8,1.2-1.1C117.7,129.3,118.2,129.1,118.7,129z"/>
	</g>
	<g>
		<g>
			<path class="st0" d="M103.8,112H75.6c-2.5,0-4.6-2.1-4.6-4.6V70.3c0-2.5,2.1-4.6,4.6-4.6h28.3c2.5,0,4.6,2.1,4.6,4.6v37.1
				C108.4,110,106.4,112,103.8,112z M75.6,67.6c-1.5,0-2.7,1.2-2.7,2.7v37.1c0,1.5,1.2,2.7,2.7,2.7h28.3c1.5,0,2.7-1.2,2.7-2.7V70.3
				c0-1.5-1.2-2.7-2.7-2.7H75.6z"/>
			<g>
				<path class="st17" d="M70.3,72h38.7c1,0,1.7-0.8,1.7-1.7v-1.8c0-1-0.8-1.7-1.7-1.7H70.3c-1,0-1.7,0.8-1.7,1.7v1.8
					C68.6,71.2,69.4,72,70.3,72z"/>
				<path class="st0" d="M109.1,72.9H70.3c-1.5,0-2.7-1.2-2.7-2.7v-1.8c0-1.5,1.2-2.7,2.7-2.7h38.7c1.5,0,2.7,1.2,2.7,2.7v1.8
					C111.7,71.7,110.5,72.9,109.1,72.9z M70.3,67.6c-0.5,0-0.8,0.4-0.8,0.8v1.8c0,0.5,0.4,0.8,0.8,0.8h38.7c0.5,0,0.8-0.4,0.8-0.8
					v-1.8c0-0.5-0.4-0.8-0.8-0.8H70.3z"/>
			</g>
		</g>
		<path class="st10" d="M89.7,97.2c-0.9,0-1.7-0.2-2.4-0.7c-0.9-0.5-2.4-1.9-2.4-4.7c0-4,3-9.8,3.4-10.5c0.3-0.5,0.8-0.8,1.4-0.8
			c0.6,0,1.1,0.3,1.4,0.8c0.3,0.6,3.4,6.4,3.4,10.5c0,2.8-1.5,4.1-2.4,4.7C91.4,97,90.6,97.2,89.7,97.2z M89.7,82.7
			c-0.7,1.5-2.9,6.1-2.9,9.1c0,1.5,0.5,2.5,1.5,3.1c0.9,0.5,2.1,0.5,2.9,0c1-0.6,1.5-1.6,1.5-3.1C92.6,89.1,90.8,84.9,89.7,82.7z"/>
	</g>
	<g>
		<g>
			<path class="st0" d="M61.1,35.2l0.6,1.2l-2,1.3l4.1,6.4l-1.5,0.9l-4.1-6.4l-2,1.3l-0.7-1.1L61.1,35.2z"/>
			<path class="st0" d="M72.4,39.9l-1.3-1.7l-2.7,1.1l0.3,2.1L67,42.2l-0.9-9.3l1.9-0.8l6,7.2L72.4,39.9z M68.2,38l2.1-0.9l-2.7-3.5
				L68.2,38z"/>
			<path class="st0" d="M85.3,36.9l-1.6,0.3l-0.9-3.6c-0.3-1.3-0.5-2.3-0.7-3.1L82,29.9l-0.5,6.6L80,36.8l-2.8-6
				c0.1,0.6,0.2,1,0.3,1.3c0.1,0.8,0.3,1.6,0.3,2.4l0.4,3.7l-1.6,0.3l-0.9-8.9l2.2-0.4l2.7,5.9l0.4-6.4l2.2-0.4L85.3,36.9z"/>
			<path class="st0" d="M93.7,37l-0.5-2.1l-3-0.1l-0.6,2l-1.8-0.1l3.2-8.8l2.1,0.1l2.4,9.1L93.7,37z M90.7,33.5l2.3,0.1l-1-4.3
				L90.7,33.5z"/>
			<path class="st0" d="M104.8,39.1l-2.2-0.5l-1.3-7.8c-0.1,0.6-0.2,1.2-0.2,1.7c-0.1,0.5-0.2,1.1-0.4,1.8l-0.9,3.5l-1.5-0.4
				l2.1-8.7l2.1,0.5l1.3,7.8c0-0.3,0.1-0.8,0.2-1.4c0.1-0.6,0.2-1.1,0.3-1.7l1-4.1l1.5,0.4L104.8,39.1z M104.4,28.6
				c-0.1-0.1-0.2-0.2-0.4-0.4c-0.1-0.1-0.2-0.2-0.3-0.3c-0.1-0.1-0.1-0.1-0.2-0.1c-0.1,0-0.3,0-0.4,0c-0.1,0.1-0.3,0.2-0.4,0.4
				l-0.8-0.6c0.3-0.4,0.6-0.6,0.9-0.8c0.3-0.2,0.6-0.2,1-0.1c0.2,0,0.3,0.1,0.5,0.2c0.1,0.1,0.2,0.2,0.4,0.4
				c0.1,0.1,0.2,0.2,0.2,0.3c0.1,0.1,0.1,0.1,0.2,0.1c0.1,0,0.2,0,0.4,0c0.1-0.1,0.3-0.2,0.4-0.3l0.8,0.6c-0.3,0.4-0.6,0.6-0.9,0.8
				c-0.3,0.2-0.6,0.2-1,0.1C104.6,28.8,104.5,28.7,104.4,28.6z"/>
			<path class="st0" d="M117.2,35.1c0.4,0.6,0.5,1.3,0.5,2c0,0.8-0.3,1.6-0.7,2.5c-0.4,0.9-0.9,1.6-1.5,2c-0.6,0.5-1.2,0.8-1.9,0.8
				c-0.7,0.1-1.4-0.1-2.1-0.4c-0.7-0.4-1.3-0.8-1.6-1.4c-0.4-0.6-0.5-1.3-0.5-2c0-0.8,0.2-1.6,0.7-2.5c0.4-0.9,0.9-1.6,1.5-2
				c0.6-0.5,1.2-0.8,1.9-0.9c0.7-0.1,1.4,0.1,2.1,0.4C116.3,34,116.8,34.5,117.2,35.1z M113.2,34.9c-0.6,0.3-1.1,1-1.6,2.1
				c-1,2-0.8,3.3,0.4,3.9c0.6,0.3,1.2,0.3,1.8,0c0.6-0.3,1.1-1,1.6-2.1c0.5-1,0.7-1.9,0.6-2.5c-0.1-0.6-0.4-1.1-1.1-1.4
				C114.4,34.6,113.8,34.6,113.2,34.9z"/>
			<path class="st0" d="M126.6,41c0.3,0.4,0.4,0.9,0.5,1.5l-1.3,0.3c-0.1-0.4-0.2-0.8-0.4-1c-0.2-0.3-0.4-0.6-0.7-0.8
				c-0.3-0.3-0.7-0.4-1-0.4c-0.3,0-0.6,0.1-0.8,0.4c-0.1,0.2-0.2,0.4-0.2,0.5c0,0.2,0,0.4,0.2,0.7c0.1,0.3,0.3,0.6,0.7,1
				c0.5,0.8,0.9,1.4,1,2c0.1,0.6-0.1,1.2-0.6,1.8c-0.3,0.4-0.7,0.7-1.2,0.9c-0.5,0.2-1,0.2-1.5,0.1s-1.1-0.4-1.7-0.8
				c-0.5-0.4-1-0.9-1.3-1.4c-0.3-0.5-0.5-1-0.6-1.6l1.3-0.2c0.1,0.4,0.2,0.8,0.5,1.2c0.2,0.3,0.5,0.7,0.8,0.9
				c0.4,0.3,0.8,0.4,1.2,0.4c0.4,0,0.7-0.2,1-0.5c0.2-0.2,0.2-0.4,0.3-0.6s0-0.4-0.1-0.7c-0.1-0.3-0.3-0.6-0.6-1
				c-0.6-0.8-0.9-1.5-1-2.1c-0.1-0.6,0.1-1.1,0.5-1.7c0.3-0.4,0.7-0.7,1.1-0.8c0.4-0.1,0.9-0.2,1.4,0c0.5,0.1,1,0.4,1.4,0.7
				C125.9,40.2,126.3,40.6,126.6,41z"/>
		</g>
	</g>
</g>
</svg>
