<?xml version="1.0" encoding="utf-8"?>
<!-- Generator: Adobe Illustrator 21.0.0, SVG Export Plug-In . SVG Version: 6.00 Build 0)  -->
<svg version="1.1" id="Layer_1" xmlns="http://www.w3.org/2000/svg" xmlns:xlink="http://www.w3.org/1999/xlink" x="0px" y="0px"
	 viewBox="0 0 179.4 173.3" style="enable-background:new 0 0 179.4 173.3;" xml:space="preserve">
<style type="text/css">
	.st0{fill:#231F20;}
	.st1{fill:none;stroke:#231F20;stroke-width:1.4017;stroke-linecap:round;stroke-linejoin:round;stroke-miterlimit:10;}
	.st2{fill:#3B3A3C;}
	.st3{fill:#B8A663;}
	.st4{fill:none;stroke:#231F20;stroke-miterlimit:10;}
	.st5{fill:none;stroke:#231F20;stroke-width:0.6174;stroke-linecap:round;stroke-linejoin:round;stroke-miterlimit:10;}
	.st6{fill:none;stroke:#231F20;stroke-linecap:round;stroke-linejoin:round;stroke-miterlimit:10;}
	.st7{fill:#FFFFFF;stroke:#231F20;stroke-linecap:round;stroke-linejoin:round;stroke-miterlimit:10;}
	.st8{fill:none;stroke:#1D1D1B;stroke-miterlimit:10;}
	.st9{fill:none;stroke:#1D1D1B;stroke-linecap:round;stroke-miterlimit:10;}
	.st10{fill:#1D1D1B;}
	.st11{fill:none;stroke:#1D1D1B;stroke-linecap:round;stroke-linejoin:round;stroke-miterlimit:10;}
	.st12{fill:#FFFFFF;stroke:#1D1D1B;stroke-miterlimit:10;}
	.st13{fill:none;stroke:#231F20;stroke-width:1.8508;stroke-linecap:round;stroke-linejoin:round;stroke-miterlimit:10;}
	.st14{fill:none;stroke:#231F20;stroke-width:1.8508;stroke-miterlimit:10;}
	.st15{fill:#FFFFFF;stroke:#231F20;stroke-width:1.8508;stroke-linecap:round;stroke-linejoin:round;stroke-miterlimit:10;}
	.st16{fill:none;stroke:#1D1D1B;stroke-width:1.8508;stroke-miterlimit:10;}
	.st17{fill:#FFFFFF;}
	.st18{fill:none;stroke:#1D1D1B;stroke-width:1.8508;stroke-linecap:round;stroke-linejoin:round;stroke-miterlimit:10;}
	.st19{fill:none;stroke:#1D1D1B;stroke-width:1.8508;stroke-linecap:round;stroke-miterlimit:10;}
	.st20{fill:#FFFFFF;stroke:#1D1D1B;stroke-width:1.8508;stroke-miterlimit:10;}
	.st21{fill:#C6C6C6;}
	.st22{fill:none;stroke:#DADADA;stroke-width:3.4203;stroke-miterlimit:10;}
	.st23{fill:#822B26;}
	.st24{fill:#A8A8A8;}
	.st25{fill:#2A6780;}
	.st26{opacity:0.8;fill:#2A6780;}
	.st27{fill:none;stroke:#FFFFFF;stroke-width:0.75;stroke-linecap:round;stroke-linejoin:round;stroke-miterlimit:10;}
	.st28{fill:none;stroke:#113A47;stroke-width:1.5;stroke-miterlimit:10;}
	.st29{fill:#113A47;}
</style>
<g>
	<path class="st0" d="M89.7,128.5c-23.5,0-42.6-19.1-42.6-42.6s19.1-42.6,42.6-42.6s42.6,19.1,42.6,42.6S113.2,128.5,89.7,128.5z
		 M89.7,45.2C67.3,45.2,49,63.5,49,85.9s18.3,40.7,40.7,40.7s40.7-18.3,40.7-40.7S112.2,45.2,89.7,45.2z"/>
	<g>
		<path class="st0" d="M67,132c0.3,0.4,0.6,0.8,0.8,1.3l-1.2,0.5c-0.2-0.4-0.3-0.7-0.6-1c-0.2-0.3-0.5-0.5-0.8-0.7
			c-0.4-0.2-0.7-0.3-1-0.2c-0.3,0-0.5,0.2-0.7,0.5c-0.1,0.2-0.2,0.4-0.1,0.6c0,0.2,0.1,0.4,0.3,0.6c0.2,0.2,0.4,0.5,0.8,0.9
			c0.6,0.7,1.1,1.3,1.3,1.8c0.2,0.6,0.1,1.2-0.3,1.9c-0.3,0.5-0.6,0.8-1,1.1c-0.4,0.2-0.9,0.3-1.5,0.3c-0.6,0-1.1-0.2-1.8-0.5
			c-0.6-0.3-1.1-0.7-1.5-1.2c-0.4-0.4-0.6-0.9-0.8-1.4l1.2-0.5c0.2,0.4,0.4,0.8,0.6,1.1c0.3,0.3,0.6,0.6,1,0.8
			c0.4,0.2,0.8,0.3,1.2,0.3c0.4-0.1,0.7-0.3,0.9-0.7c0.1-0.2,0.2-0.4,0.2-0.6c0-0.2-0.1-0.4-0.3-0.7c-0.2-0.2-0.4-0.5-0.8-0.9
			c-0.7-0.7-1.1-1.3-1.3-1.9c-0.2-0.6-0.1-1.1,0.2-1.7c0.2-0.4,0.6-0.8,1-1c0.4-0.2,0.9-0.3,1.4-0.3c0.5,0,1,0.2,1.5,0.5
			C66.3,131.2,66.7,131.6,67,132z"/>
		<path class="st0" d="M76.2,135.4l-0.6,1.1l-3.1-1l-0.8,2.4l2.7,0.9l-0.4,1.2l-2.7-0.9l-0.8,2.5l3.4,1.1l-0.4,1.2l-5-1.7l2.8-8.5
			L76.2,135.4z"/>
		<path class="st0" d="M84,136.9c0.4,0.2,0.7,0.5,1.1,0.9l-1,0.9c-0.5-0.5-1-0.8-1.5-0.9c-0.7-0.1-1.2,0.1-1.7,0.6
			c-0.5,0.5-0.8,1.3-1,2.4c-0.2,1.1-0.1,2,0.2,2.6c0.3,0.6,0.8,0.9,1.5,1.1c0.4,0.1,0.7,0,1,0s0.6-0.2,1-0.4l0.6,1.1
			c-0.3,0.3-0.8,0.5-1.3,0.6c-0.5,0.1-1,0.2-1.6,0.1c-0.8-0.1-1.4-0.4-2-0.9c-0.5-0.4-0.9-1-1.1-1.8c-0.2-0.7-0.3-1.6-0.1-2.6
			c0.1-1,0.4-1.8,0.9-2.4c0.4-0.6,1-1.1,1.6-1.4s1.3-0.3,2.1-0.2C83.2,136.5,83.7,136.7,84,136.9z"/>
		<path class="st0" d="M94.5,145.9l-0.7-2l-3,0.2l-0.4,2.1l-1.8,0.1l2.3-9.1l2.1-0.1l3.2,8.8L94.5,145.9z M91.2,142.7l2.3-0.1
			l-1.4-4.2L91.2,142.7z"/>
		<path class="st0" d="M104.2,136.1c1,0.4,1.6,1.5,2,3.1c0.4,1.6,0.3,2.8-0.4,3.7c-0.6,0.9-1.6,1.4-2.8,1.7l-2.4,0.6l-2.1-8.7
			l2.1-0.5C102.1,135.6,103.3,135.7,104.2,136.1z M100.6,137.3l1.5,6.2l0.8-0.2c0.7-0.2,1.3-0.5,1.6-1.1c0.3-0.6,0.3-1.4,0-2.6
			c-0.2-0.8-0.5-1.4-0.8-1.8c-0.3-0.4-0.7-0.6-1.1-0.7c-0.4-0.1-0.8-0.1-1.3,0.1L100.6,137.3z"/>
		<path class="st0" d="M113.4,131.8c0.7,0.1,1.3,0.4,1.9,0.9c0.6,0.5,1.1,1.2,1.5,2.1c0.4,0.9,0.6,1.7,0.6,2.5c0,0.8-0.2,1.4-0.6,2
			c-0.4,0.6-0.9,1-1.6,1.4c-0.7,0.3-1.4,0.5-2.1,0.4c-0.7-0.1-1.3-0.4-1.9-0.9c-0.6-0.5-1.1-1.2-1.5-2.1c-0.4-0.9-0.6-1.7-0.6-2.5
			c0-0.8,0.2-1.5,0.6-2c0.4-0.6,0.9-1,1.6-1.4C112,131.8,112.7,131.7,113.4,131.8z M110.7,134.8c-0.1,0.6,0.1,1.5,0.6,2.5
			c0.9,2,2.1,2.7,3.3,2.1c0.6-0.3,1-0.8,1.1-1.4c0.1-0.6-0.1-1.5-0.6-2.6c-0.5-1.1-1-1.8-1.6-2.1c-0.6-0.3-1.1-0.4-1.8-0.1
			C111.2,133.6,110.8,134.1,110.7,134.8z"/>
	</g>
	<g>
		<g>
			<path class="st0" d="M66.2,32.2c0.5,0,1,0,1.5,0.2l-0.3,1.2c-0.4-0.1-0.8-0.1-1.1-0.1c-0.3,0-0.7,0.1-1,0.3
				c-0.4,0.2-0.6,0.4-0.8,0.7c-0.2,0.3-0.2,0.6,0,0.9c0.1,0.2,0.2,0.3,0.4,0.4c0.2,0.1,0.4,0.1,0.7,0.1c0.3,0,0.7,0,1.2-0.1
				c0.9-0.1,1.7-0.1,2.2,0.1c0.6,0.2,1,0.6,1.4,1.3c0.2,0.5,0.3,1,0.2,1.5c-0.1,0.5-0.3,1-0.6,1.4c-0.4,0.4-0.9,0.8-1.5,1.1
				c-0.6,0.3-1.2,0.5-1.8,0.5c-0.6,0-1.1,0-1.6-0.2l0.4-1.3c0.4,0.1,0.9,0.2,1.3,0.1c0.4,0,0.8-0.1,1.2-0.3c0.4-0.2,0.8-0.5,0.9-0.8
				c0.2-0.3,0.2-0.7,0-1.1c-0.1-0.2-0.2-0.4-0.4-0.5c-0.2-0.1-0.4-0.2-0.7-0.2c-0.3,0-0.7,0-1.2,0.1c-1,0.1-1.8,0.1-2.3-0.1
				c-0.6-0.2-1-0.6-1.3-1.2c-0.2-0.4-0.3-0.9-0.2-1.3c0.1-0.4,0.3-0.9,0.6-1.2c0.3-0.4,0.8-0.7,1.3-1C65.2,32.3,65.7,32.2,66.2,32.2
				z"/>
			<path class="st0" d="M77.2,28.5l0.2,1.3l-3.2,0.9l0.6,2.4l2.8-0.7l0.3,1.2l-2.8,0.7l0.7,2.5l3.4-0.9l0.3,1.2l-5.1,1.4l-2.3-8.6
				L77.2,28.5z"/>
			<path class="st0" d="M86.8,27.3c0.4,0.1,0.8,0.3,1.3,0.6L87.3,29c-0.6-0.4-1.1-0.5-1.7-0.5c-0.7,0.1-1.2,0.4-1.5,0.9
				c-0.4,0.6-0.5,1.4-0.4,2.6c0.1,1.1,0.4,1.9,0.8,2.4c0.4,0.5,1,0.7,1.7,0.7c0.4,0,0.7-0.1,0.9-0.3c0.3-0.1,0.5-0.4,0.8-0.6
				l0.9,0.9c-0.3,0.3-0.6,0.6-1.1,0.9c-0.4,0.2-0.9,0.4-1.5,0.4c-0.8,0.1-1.5-0.1-2.1-0.4c-0.6-0.3-1.1-0.8-1.5-1.5
				c-0.4-0.7-0.6-1.5-0.7-2.5c-0.1-1,0-1.8,0.3-2.5c0.3-0.7,0.7-1.3,1.3-1.7c0.6-0.4,1.2-0.7,1.9-0.7C85.9,27.1,86.4,27.2,86.8,27.3
				z"/>
			<path class="st0" d="M97,36.7l-0.3-2.1l-2.9-0.3l-0.8,2l-1.8-0.2l3.7-8.6l2.1,0.2l1.8,9.2L97,36.7z M94.2,33l2.3,0.2l-0.7-4.4
				L94.2,33z"/>
			<path class="st0" d="M109.2,31.5c0.6,0.8,0.7,2.1,0.2,3.7c-0.5,1.6-1.2,2.6-2.2,3c-1,0.4-2.1,0.4-3.3,0l-2.3-0.7l2.7-8.5l2.1,0.7
				C107.7,30,108.6,30.7,109.2,31.5z M105.5,30.7l-1.9,6.1l0.8,0.2c0.7,0.2,1.4,0.2,1.9-0.1c0.6-0.3,1-1.1,1.4-2.2
				c0.3-0.8,0.3-1.5,0.3-2c-0.1-0.5-0.3-0.9-0.5-1.2c-0.3-0.3-0.7-0.5-1.2-0.6L105.5,30.7z"/>
			<path class="st0" d="M120.2,36.1c0.3,0.6,0.5,1.3,0.4,2.1c-0.1,0.8-0.3,1.6-0.8,2.4c-0.5,0.8-1,1.5-1.7,2s-1.3,0.7-2,0.7
				c-0.7,0-1.4-0.1-2.1-0.5c-0.7-0.4-1.2-0.9-1.6-1.5c-0.3-0.6-0.5-1.3-0.4-2.1c0.1-0.8,0.3-1.6,0.8-2.4c0.5-0.8,1-1.5,1.6-1.9
				c0.6-0.5,1.3-0.7,2-0.7c0.7,0,1.4,0.1,2.1,0.5C119.3,35,119.9,35.5,120.2,36.1z M116.2,35.7c-0.6,0.3-1.2,0.9-1.7,2
				c-1.1,1.9-1,3.3,0.2,4c0.6,0.3,1.2,0.4,1.8,0.1c0.6-0.3,1.2-0.9,1.7-2c0.6-1,0.8-1.8,0.8-2.5c-0.1-0.6-0.4-1.1-1-1.5
				C117.4,35.4,116.8,35.4,116.2,35.7z"/>
		</g>
	</g>
	<path class="st0" d="M89.7,112.8c-14.8,0-26.8-12-26.8-26.8c0-14.8,12-26.8,26.8-26.8c14.8,0,26.8,12,26.8,26.8
		C116.5,100.7,104.5,112.8,89.7,112.8z M89.7,60.9c-13.8,0-25,11.2-25,25c0,13.8,11.2,25,25,25c13.8,0,25-11.2,25-25
		C114.7,72.2,103.5,60.9,89.7,60.9z"/>
	<path class="st10" d="M102,98.2c-0.2,0-0.4-0.1-0.6-0.2L88.8,86.3V76.1c0-0.5,0.4-0.9,0.9-0.9s0.9,0.4,0.9,0.9v9.4l12,11
		c0.4,0.3,0.4,0.9,0.1,1.3C102.5,98.1,102.3,98.2,102,98.2z"/>
	<g>
		<path class="st10" d="M91.1,103.2c0.3,0.2,0.5,0.4,0.7,0.8c0.2,0.3,0.3,0.8,0.3,1.2c0,0.5-0.1,1-0.3,1.3c-0.2,0.4-0.5,0.7-0.8,0.9
			c-0.3,0.2-0.7,0.3-1.1,0.3c-0.8,0-1.4-0.3-1.8-0.9c-0.4-0.6-0.6-1.5-0.6-2.6c0-0.8,0.1-1.5,0.3-2c0.2-0.6,0.5-1,0.9-1.4
			c0.4-0.3,0.9-0.5,1.4-0.5c0.5,0,1,0.1,1.5,0.4l-0.4,0.7c-0.3-0.2-0.7-0.3-1.1-0.3c-0.5,0-0.9,0.2-1.2,0.7c-0.3,0.5-0.5,1.1-0.5,2
			c0.4-0.6,1-0.9,1.7-0.9C90.4,103,90.8,103.1,91.1,103.2z M90.7,106.5c0.2-0.3,0.3-0.7,0.3-1.3c0-1-0.4-1.5-1.2-1.5
			c-0.3,0-0.6,0.1-0.9,0.3c-0.3,0.2-0.5,0.4-0.7,0.7c0,0.8,0.1,1.4,0.4,1.7c0.2,0.4,0.6,0.6,1,0.6C90.2,107,90.5,106.9,90.7,106.5z"
			/>
	</g>
	<g>
		<path class="st10" d="M91.5,65.2c0.4,0.6,0.6,1.5,0.6,2.7s-0.2,2.1-0.6,2.7c-0.4,0.6-1,0.9-1.8,0.9c-0.8,0-1.4-0.3-1.8-0.9
			c-0.4-0.6-0.6-1.5-0.6-2.7s0.2-2.1,0.6-2.7c0.4-0.6,1-0.9,1.8-0.9C90.5,64.2,91.1,64.6,91.5,65.2z M88.7,65.7
			c-0.2,0.5-0.3,1.2-0.3,2.2s0.1,1.8,0.3,2.2c0.2,0.5,0.6,0.7,1,0.7c0.5,0,0.8-0.2,1-0.7c0.2-0.5,0.3-1.2,0.3-2.2
			c0-1-0.1-1.8-0.3-2.2c-0.2-0.5-0.6-0.7-1-0.7C89.2,65,88.9,65.3,88.7,65.7z"/>
	</g>
	<circle class="st0" cx="89.7" cy="85.9" r="2.4"/>
</g>
</svg>
