<?xml version="1.0" encoding="utf-8"?>
<!-- Generator: Adobe Illustrator 21.0.0, SVG Export Plug-In . SVG Version: 6.00 Build 0)  -->
<svg version="1.1" id="Layer_1" xmlns="http://www.w3.org/2000/svg" xmlns:xlink="http://www.w3.org/1999/xlink" x="0px" y="0px"
	 viewBox="0 0 179.4 173.3" style="enable-background:new 0 0 179.4 173.3;" xml:space="preserve">
<style type="text/css">
	.st0{fill:#231F20;}
	.st1{fill:none;stroke:#231F20;stroke-width:1.4017;stroke-linecap:round;stroke-linejoin:round;stroke-miterlimit:10;}
	.st2{fill:#3B3A3C;}
	.st3{fill:#B8A663;}
	.st4{fill:none;stroke:#231F20;stroke-miterlimit:10;}
	.st5{fill:none;stroke:#231F20;stroke-width:0.6174;stroke-linecap:round;stroke-linejoin:round;stroke-miterlimit:10;}
	.st6{fill:none;stroke:#231F20;stroke-linecap:round;stroke-linejoin:round;stroke-miterlimit:10;}
	.st7{fill:#FFFFFF;stroke:#231F20;stroke-linecap:round;stroke-linejoin:round;stroke-miterlimit:10;}
	.st8{fill:none;stroke:#1D1D1B;stroke-miterlimit:10;}
	.st9{fill:none;stroke:#1D1D1B;stroke-linecap:round;stroke-miterlimit:10;}
	.st10{fill:#1D1D1B;}
	.st11{fill:none;stroke:#1D1D1B;stroke-linecap:round;stroke-linejoin:round;stroke-miterlimit:10;}
	.st12{fill:#FFFFFF;stroke:#1D1D1B;stroke-miterlimit:10;}
	.st13{fill:none;stroke:#231F20;stroke-width:1.8508;stroke-linecap:round;stroke-linejoin:round;stroke-miterlimit:10;}
	.st14{fill:none;stroke:#231F20;stroke-width:1.8508;stroke-miterlimit:10;}
	.st15{fill:#FFFFFF;stroke:#231F20;stroke-width:1.8508;stroke-linecap:round;stroke-linejoin:round;stroke-miterlimit:10;}
	.st16{fill:none;stroke:#1D1D1B;stroke-width:1.8508;stroke-miterlimit:10;}
	.st17{fill:#FFFFFF;}
	.st18{fill:none;stroke:#1D1D1B;stroke-width:1.8508;stroke-linecap:round;stroke-linejoin:round;stroke-miterlimit:10;}
	.st19{fill:none;stroke:#1D1D1B;stroke-width:1.8508;stroke-linecap:round;stroke-miterlimit:10;}
	.st20{fill:#FFFFFF;stroke:#1D1D1B;stroke-width:1.8508;stroke-miterlimit:10;}
	.st21{fill:#C6C6C6;}
	.st22{fill:none;stroke:#DADADA;stroke-width:3.4203;stroke-miterlimit:10;}
	.st23{fill:#822B26;}
	.st24{fill:#A8A8A8;}
	.st25{fill:#2A6780;}
	.st26{opacity:0.8;fill:#2A6780;}
	.st27{fill:none;stroke:#FFFFFF;stroke-width:0.75;stroke-linecap:round;stroke-linejoin:round;stroke-miterlimit:10;}
	.st28{fill:none;stroke:#113A47;stroke-width:1.5;stroke-miterlimit:10;}
	.st29{fill:#113A47;}
</style>
<g>
	<path class="st0" d="M89.9,128.4c-23.5,0-42.6-19.1-42.6-42.6s19.1-42.6,42.6-42.6s42.6,19.1,42.6,42.6S113.3,128.4,89.9,128.4z
		 M89.9,45.1c-22.5,0-40.7,18.3-40.7,40.7s18.3,40.7,40.7,40.7s40.7-18.3,40.7-40.7S112.3,45.1,89.9,45.1z"/>
	<g>
		<path class="st0" d="M50.8,118.8l-5.7,4.9l2.3,2.7l-1.2,0.8l-3.3-3.9l6.8-5.9L50.8,118.8z"/>
		<path class="st0" d="M53.5,133.8l0.9-2l-2.3-1.9l-1.7,1.3l-1.4-1.1l7.8-5.2l1.6,1.3l-3.5,8.7L53.5,133.8z M53.2,129.1l1.8,1.4
			l1.8-4L53.2,129.1z"/>
		<path class="st0" d="M68.1,132.3l-6.7,6.5l-1.8-1l2-9.1l1.6,0.9l-1.9,7.4l5.3-5.6L68.1,132.3z"/>
		<path class="st0" d="M71.8,143.2l0.2-2.1l-2.8-1l-1.2,1.8l-1.7-0.6l5.6-7.5l2,0.7l-0.4,9.4L71.8,143.2z M69.9,139l2.2,0.8l0.3-4.4
			L69.9,139z"/>
		<path class="st0" d="M84.2,141.7c0.3,0.4,0.4,0.9,0.3,1.6c-0.1,0.9-0.6,1.5-1.3,1.8s-1.6,0.3-2.8,0.2l-2.7-0.4l1.4-8.8l2.3,0.4
			c2.4,0.4,3.5,1.3,3.3,2.8c-0.1,0.5-0.3,0.9-0.7,1.2c-0.4,0.3-0.8,0.4-1.3,0.5C83.4,141,83.9,141.3,84.2,141.7z M82.1,143.9
			c0.4-0.1,0.6-0.5,0.7-1c0.1-0.5,0-0.9-0.3-1.2c-0.3-0.3-0.7-0.4-1.2-0.5l-1.2-0.2l-0.4,2.8l1,0.2C81.3,144,81.8,144,82.1,143.9z
			 M80.6,137.4l-0.4,2.4l1,0.2c0.5,0.1,0.9,0,1.2-0.1c0.3-0.2,0.5-0.5,0.6-0.9c0.1-0.4,0-0.7-0.3-1c-0.3-0.2-0.7-0.4-1.3-0.5
			L80.6,137.4z"/>
		<path class="st0" d="M90.7,137.2l0.2,9l-1.7,0l-0.2-9L90.7,137.2z"/>
		<path class="st0" d="M96.8,136.5l1.1,7.5l3.6-0.5l0,1.4l-5,0.7l-1.3-8.9L96.8,136.5z"/>
		<path class="st0" d="M104.9,134.8l2.5,8.6l-1.6,0.5l-2.5-8.6L104.9,134.8z"/>
		<path class="st0" d="M113.8,132.2c1,0.2,1.9,1.1,2.6,2.6c0.7,1.5,0.8,2.7,0.4,3.7c-0.5,1-1.3,1.7-2.4,2.2l-2.2,1l-3.8-8.1l2-0.9
			C111.7,132.1,112.8,131.9,113.8,132.2z M110.5,134.1l2.7,5.8l0.8-0.4c0.7-0.3,1.1-0.8,1.3-1.4c0.2-0.6,0-1.5-0.5-2.6
			c-0.4-0.8-0.7-1.3-1.1-1.6c-0.4-0.3-0.8-0.5-1.2-0.5c-0.4,0-0.8,0.1-1.3,0.3L110.5,134.1z"/>
		<path class="st0" d="M126.3,133.7l-1.7-1.4l-2.4,1.7l0.7,2l-1.4,1l-2.9-8.9l1.7-1.2l7.4,5.7L126.3,133.7z M121.7,132.8l1.9-1.3
			l-3.4-2.8L121.7,132.8z"/>
		<path class="st0" d="M129.1,120.2c1-0.2,2.2,0.3,3.4,1.5c1.2,1.2,1.8,2.3,1.7,3.3s-0.6,2-1.4,3l-1.7,1.8l-6.4-6.2l1.5-1.6
			C127,121,128,120.4,129.1,120.2z M126.7,123.2l4.6,4.4l0.6-0.6c0.5-0.5,0.8-1.1,0.7-1.8c0-0.6-0.5-1.4-1.4-2.2
			c-0.6-0.6-1.2-1-1.6-1.1c-0.5-0.2-0.9-0.2-1.3,0c-0.4,0.1-0.7,0.4-1.1,0.8L126.7,123.2z"/>
	</g>
	<g>
		<g>
			<path class="st0" d="M46.3,46.4l5.5,5.1l2.4-2.6l0.9,1.1l-3.5,3.7l-6.6-6.1L46.3,46.4z"/>
			<path class="st0" d="M61.7,44.7L60,43.4l-2.4,1.8l0.8,2L57,48.2l-3.1-8.8l1.7-1.3l7.6,5.5L61.7,44.7z M57.1,43.9l1.8-1.4
				l-3.5-2.7L57.1,43.9z"/>
			<path class="st0" d="M67,31.6l1.6,9.2l-1.8,0.9l-6.4-6.8l1.6-0.8l5.1,5.8l-1.6-7.5L67,31.6z"/>
			<path class="st0" d="M78,37.4l-1.1-1.8L74,36.4l0,2.1L72.4,39l0.2-9.4l2-0.6l5.1,7.8L78,37.4z M74,35.1l2.2-0.6l-2.3-3.8L74,35.1
				z"/>
			<path class="st0" d="M88.1,31.9c0.4,0.3,0.6,0.8,0.7,1.4c0.1,0.9-0.2,1.6-0.8,2.1c-0.6,0.4-1.5,0.7-2.7,0.8l-2.7,0.2l-0.8-8.9
				l2.3-0.2c2.5-0.2,3.8,0.4,3.9,2c0,0.5-0.1,1-0.4,1.3c-0.3,0.4-0.7,0.6-1.1,0.7C87.2,31.4,87.7,31.6,88.1,31.9z M83.7,28.7
				l0.2,2.4l1-0.1c0.5,0,0.8-0.2,1.1-0.4c0.3-0.2,0.4-0.6,0.3-1c0-0.4-0.2-0.7-0.5-0.9s-0.8-0.2-1.4-0.1L83.7,28.7z M86.6,34.6
				c0.3-0.2,0.5-0.6,0.4-1.1c0-0.5-0.2-0.9-0.6-1.1c-0.3-0.2-0.8-0.3-1.3-0.2L84,32.3l0.2,2.8l1-0.1C85.8,34.9,86.3,34.8,86.6,34.6z
				"/>
			<path class="st0" d="M94.7,27.3l-0.6,8.9l-1.7-0.1l0.6-8.9L94.7,27.3z"/>
			<path class="st0" d="M101.5,28.2l-1.6,7.4l3.5,0.7l-0.5,1.3l-5-1.1l1.9-8.8L101.5,28.2z"/>
			<path class="st0" d="M110.8,30.9l-3.1,8.4l-1.6-0.6l3.1-8.4L110.8,30.9z"/>
			<path class="st0" d="M120.1,36.5c0.4,1,0.2,2.2-0.6,3.7c-0.8,1.4-1.7,2.3-2.8,2.5c-1,0.2-2.1,0-3.2-0.6l-2.1-1.2l4.4-7.8l1.9,1.1
				C118.9,34.7,119.7,35.5,120.1,36.5z M116.6,34.9l-3.1,5.6l0.7,0.4c0.7,0.4,1.3,0.5,1.9,0.3c0.6-0.2,1.2-0.8,1.8-1.9
				c0.4-0.7,0.6-1.4,0.7-1.9c0-0.5-0.1-0.9-0.3-1.2c-0.2-0.3-0.6-0.6-1-0.8L116.6,34.9z"/>
			<path class="st0" d="M123.5,49.1l0.9-1.9l-2.3-1.9l-1.8,1.2l-1.4-1.1l7.9-5l1.6,1.4l-3.7,8.6L123.5,49.1z M123.2,44.4l1.7,1.5
				l1.9-4L123.2,44.4z"/>
			<path class="st0" d="M136.5,51.7c0,1-0.6,2.1-1.9,3.1c-1.3,1-2.5,1.4-3.5,1.2c-1-0.2-2-0.8-2.7-1.8l-1.5-1.9l7-5.6l1.4,1.7
				C136.1,49.6,136.5,50.6,136.5,51.7z M133.9,48.9l-5,4l0.5,0.7c0.5,0.6,1,0.9,1.7,1c0.6,0,1.4-0.3,2.4-1.1c0.7-0.5,1.1-1,1.3-1.5
				c0.2-0.5,0.3-0.9,0.2-1.3c-0.1-0.4-0.3-0.8-0.6-1.2L133.9,48.9z"/>
		</g>
	</g>
	<path class="st10" d="M89.9,108.6c-1,0-1.9-0.3-2.7-0.8c-1.2-0.7-2.6-2.2-2.6-5.2c0-4.5,3.4-11.1,3.8-11.8c0.3-0.5,0.9-0.9,1.5-0.9
		c0.6,0,1.2,0.3,1.5,0.9c0.2,0.3,3.8,7.1,3.8,11.8c0,3-1.4,4.5-2.6,5.2C91.8,108.3,90.8,108.6,89.9,108.6z M89.9,92
		c-0.7,1.4-3.5,6.9-3.5,10.6c0,1.7,0.6,2.9,1.7,3.6c1,0.6,2.4,0.6,3.4,0c1.1-0.7,1.7-1.9,1.7-3.6C93.3,98.9,90.6,93.3,89.9,92z
		 M89.7,91.7C89.7,91.7,89.7,91.7,89.7,91.7C89.7,91.7,89.7,91.7,89.7,91.7z"/>
	<polygon class="st10" points="97,74.5 82.8,74.5 82.8,44.9 84.6,44.9 84.6,72.7 95.1,72.7 95.1,44.9 97,44.9 	"/>
	<g>
		<path class="st17" d="M96.8,79.7H83c-2.4,0-4.4-2-4.4-4.4v0c0-2.4,2-4.4,4.4-4.4h13.8c2.4,0,4.4,2,4.4,4.4v0
			C101.2,77.7,99.2,79.7,96.8,79.7z"/>
		<path class="st10" d="M96.8,80.6H83c-3,0-5.4-2.4-5.4-5.4s2.4-5.4,5.4-5.4h13.8c3,0,5.4,2.4,5.4,5.4S99.7,80.6,96.8,80.6z
			 M83,71.8c-1.9,0-3.5,1.6-3.5,3.5s1.6,3.5,3.5,3.5h13.8c1.9,0,3.5-1.6,3.5-3.5s-1.6-3.5-3.5-3.5H83z"/>
	</g>
</g>
</svg>
