<?xml version="1.0" encoding="utf-8"?>
<!-- Generator: Adobe Illustrator 21.0.0, SVG Export Plug-In . SVG Version: 6.00 Build 0)  -->
<svg version="1.1" id="Layer_1" xmlns="http://www.w3.org/2000/svg" xmlns:xlink="http://www.w3.org/1999/xlink" x="0px" y="0px"
	 viewBox="0 0 36 36" style="enable-background:new 0 0 36 36;" xml:space="preserve">
<style type="text/css">
	.st0{fill:#231F20;}
	.st1{fill:none;stroke:#231F20;stroke-width:1.4017;stroke-linecap:round;stroke-linejoin:round;stroke-miterlimit:10;}
	.st2{fill:#3B3A3C;}
	.st3{fill:#B8A663;}
	.st4{fill:none;stroke:#231F20;stroke-miterlimit:10;}
	.st5{fill:none;stroke:#231F20;stroke-width:0.6174;stroke-linecap:round;stroke-linejoin:round;stroke-miterlimit:10;}
	.st6{fill:none;stroke:#231F20;stroke-linecap:round;stroke-linejoin:round;stroke-miterlimit:10;}
	.st7{fill:#FFFFFF;stroke:#231F20;stroke-linecap:round;stroke-linejoin:round;stroke-miterlimit:10;}
	.st8{fill:none;stroke:#1D1D1B;stroke-miterlimit:10;}
	.st9{fill:none;stroke:#1D1D1B;stroke-linecap:round;stroke-miterlimit:10;}
	.st10{fill:#1D1D1B;}
	.st11{fill:none;stroke:#1D1D1B;stroke-linecap:round;stroke-linejoin:round;stroke-miterlimit:10;}
	.st12{fill:#FFFFFF;stroke:#1D1D1B;stroke-miterlimit:10;}
	.st13{fill:none;stroke:#231F20;stroke-width:1.8508;stroke-linecap:round;stroke-linejoin:round;stroke-miterlimit:10;}
	.st14{fill:none;stroke:#231F20;stroke-width:1.8508;stroke-miterlimit:10;}
	.st15{fill:#FFFFFF;stroke:#231F20;stroke-width:1.8508;stroke-linecap:round;stroke-linejoin:round;stroke-miterlimit:10;}
	.st16{fill:none;stroke:#1D1D1B;stroke-width:1.8508;stroke-miterlimit:10;}
	.st17{fill:#FFFFFF;}
	.st18{fill:none;stroke:#1D1D1B;stroke-width:1.8508;stroke-linecap:round;stroke-linejoin:round;stroke-miterlimit:10;}
	.st19{fill:none;stroke:#1D1D1B;stroke-width:1.8508;stroke-linecap:round;stroke-miterlimit:10;}
	.st20{fill:#FFFFFF;stroke:#1D1D1B;stroke-width:1.8508;stroke-miterlimit:10;}
	.st21{fill:#C6C6C6;}
	.st22{fill:none;stroke:#DADADA;stroke-width:3.4203;stroke-miterlimit:10;}
	.st23{fill:#822B26;}
	.st24{fill:#A8A8A8;}
	.st25{fill:#2A6780;}
	.st26{opacity:0.8;fill:#2A6780;}
	.st27{fill:none;stroke:#FFFFFF;stroke-width:0.75;stroke-linecap:round;stroke-linejoin:round;stroke-miterlimit:10;}
	.st28{fill:none;stroke:#113A47;stroke-width:1.5;stroke-miterlimit:10;}
	.st29{fill:#113A47;}
</style>
<path d="M29.1,5H6.9C5.9,5,5,5.8,5,6.9v22.2c0,1,0.9,1.9,1.9,1.9h22.2c1.1,0,1.9-0.8,1.9-1.9V6.9C31,5.8,30.1,5,29.1,5z M12.7,27.2
	H8.9V14.7h3.9V27.2z M10.8,13.1c-1.2,0-2.2-1-2.2-2.2c0-1.2,1-2.2,2.2-2.2c1.2,0,2.2,1,2.2,2.2C13,12.1,12,13.1,10.8,13.1z
	 M27.2,27.2h-3.9v-6c0-1.4,0-3.3-2-3.3c-2,0-2.3,1.6-2.3,3.2v6.1h-3.9V14.7h3.7v1.7h0.1c0.5-1,1.8-2,3.6-2c3.9,0,4.6,2.6,4.6,5.9
	V27.2z"/>
</svg>
