<svg xmlns:xlink="http://www.w3.org/1999/xlink" xmlns="http://www.w3.org/2000/svg" version="1.1" id="Layer_1" x="0px" y="0px" viewBox="0 0 81.1 83.1" style="enable-background: new 0 0 81.1 83.1">
<style type="text/css">
	.st0{fill:#231F20;}
	.st1{fill:none;stroke:#231F20;stroke-width:1.4017;stroke-linecap:round;stroke-linejoin:round;stroke-miterlimit:10;}
	.st2{fill:#3B3A3C;}
	.st3{fill:#B8A663;}
	.st4{fill:none;stroke:#231F20;stroke-miterlimit:10;}
	.st5{fill:none;stroke:#231F20;stroke-width:0.6174;stroke-linecap:round;stroke-linejoin:round;stroke-miterlimit:10;}
	.st6{fill:none;stroke:#231F20;stroke-linecap:round;stroke-linejoin:round;stroke-miterlimit:10;}
	.st7{fill:#FFFFFF;stroke:#231F20;stroke-linecap:round;stroke-linejoin:round;stroke-miterlimit:10;}
	.st8{fill:none;stroke:#1D1D1B;stroke-miterlimit:10;}
	.st9{fill:none;stroke:#1D1D1B;stroke-linecap:round;stroke-miterlimit:10;}
	.st10{fill:#1D1D1B;}
	.st11{fill:none;stroke:#1D1D1B;stroke-linecap:round;stroke-linejoin:round;stroke-miterlimit:10;}
	.st12{fill:#FFFFFF;stroke:#1D1D1B;stroke-miterlimit:10;}
	.st13{fill:none;stroke:#231F20;stroke-width:1.8508;stroke-linecap:round;stroke-linejoin:round;stroke-miterlimit:10;}
	.st14{fill:none;stroke:#231F20;stroke-width:1.8508;stroke-miterlimit:10;}
	.st15{fill:#FFFFFF;stroke:#231F20;stroke-width:1.8508;stroke-linecap:round;stroke-linejoin:round;stroke-miterlimit:10;}
	.st16{fill:none;stroke:#1D1D1B;stroke-width:1.8508;stroke-miterlimit:10;}
	.st17{fill:#FFFFFF;}
	.st18{fill:none;stroke:#1D1D1B;stroke-width:1.8508;stroke-linecap:round;stroke-linejoin:round;stroke-miterlimit:10;}
	.st19{fill:none;stroke:#1D1D1B;stroke-width:1.8508;stroke-linecap:round;stroke-miterlimit:10;}
	.st20{fill:#FFFFFF;stroke:#1D1D1B;stroke-width:1.8508;stroke-miterlimit:10;}
	.st21{fill:#C6C6C6;}
	.st22{fill:none;stroke:#DADADA;stroke-width:3.4203;stroke-miterlimit:10;}
	.st23{fill:#822B26;}
	.st24{fill:#A8A8A8;}
	.st25{fill:#2A6780;}
	.st26{opacity:0.8;fill:#2A6780;}
	.st27{fill:none;stroke:#FFFFFF;stroke-width:0.75;stroke-linecap:round;stroke-linejoin:round;stroke-miterlimit:10;}
	.st28{fill:none;stroke:#113A47;stroke-width:1.5;stroke-miterlimit:10;}
	.st29{fill:#113A47;}
	.st30{fill:#B7A562;}
</style>

<g>
	<path class="st0" d="M5.8,32.1l-2-0.6L4,30.8c0.2-0.7,0.2-1.2,0-1.7c-0.2-0.5-0.6-0.8-1.2-1C2.2,28,1.7,28,1.3,28.3   c-0.4,0.3-0.7,0.8-0.9,1.5L0,31.2l5.6,1.7L5.8,32.1z M3.3,30.7l-0.2,0.7l-2.3-0.7L1,30c0.1-0.4,0.3-0.7,0.6-0.9   c0.2-0.2,0.6-0.2,1-0.1c0.4,0.1,0.7,0.3,0.8,0.6C3.5,29.9,3.5,30.2,3.3,30.7z" />
	<path class="st0" d="M7.6,27l-2.2-1.1l0.4-0.8l2.8-0.2L9,24l-3,0.3c0.1-0.4,0-0.8-0.1-1.1c-0.1-0.3-0.4-0.5-0.8-0.7   c-0.5-0.2-0.9-0.2-1.3,0c-0.4,0.2-0.8,0.7-1.1,1.3l-0.7,1.4l5.2,2.5L7.6,27z M5.2,24.9l-0.3,0.7L3,24.7l0.3-0.6   c0.2-0.4,0.4-0.7,0.7-0.8c0.2-0.1,0.5-0.1,0.8,0c0.3,0.2,0.5,0.4,0.6,0.6C5.4,24.2,5.4,24.5,5.2,24.9z" />
	<path class="st0" d="M7.3,21.3c0.5,0.4,1,0.6,1.5,0.7c0.5,0.1,0.9,0.1,1.3-0.1c0.4-0.2,0.7-0.5,1-0.9c0.3-0.4,0.4-0.8,0.5-1.3   c0-0.4-0.1-0.9-0.3-1.3c-0.2-0.4-0.6-0.8-1.1-1.2c-0.5-0.4-1-0.6-1.5-0.7c-0.5-0.1-0.9-0.1-1.3,0.1c-0.4,0.2-0.7,0.4-1,0.8   c-0.3,0.4-0.4,0.8-0.4,1.3c0,0.4,0.1,0.9,0.4,1.3C6.4,20.6,6.8,21,7.3,21.3z M6.8,18c0.6-0.9,1.6-0.9,2.8,0c1.3,0.9,1.6,1.8,1,2.7   c-0.3,0.4-0.7,0.6-1.1,0.6c-0.5,0-1-0.2-1.7-0.7c-0.7-0.5-1.1-0.9-1.2-1.4S6.5,18.4,6.8,18z" />
	<path class="st0" d="M14.7,16.6c0.5-0.5,0.8-1.1,0.9-1.8c0.1-0.7-0.3-1.4-1-2.2c-0.8-0.8-1.5-1.1-2.2-1c-0.7,0.1-1.3,0.4-1.9,1.1   l-0.9,0.9l4.1,4.1L14.7,16.6z M11.1,12.9c0.3-0.3,0.5-0.4,0.8-0.6s0.6-0.1,0.9,0c0.4,0.1,0.7,0.4,1.2,0.8c0.6,0.6,0.9,1.2,0.9,1.6   c0,0.5-0.2,0.9-0.6,1.3l-0.5,0.5l-3.2-3.2L11.1,12.9z" />
	<path class="st0" d="M18.2,12.8c0.5,0.1,1-0.1,1.5-0.4c0.3-0.2,0.6-0.5,0.8-0.8c0.2-0.3,0.2-0.6,0.2-1c0-0.3-0.2-0.7-0.4-1L18,6.4   l-0.7,0.5l2.2,3.2c0.3,0.4,0.4,0.7,0.3,1c0,0.3-0.2,0.6-0.6,0.8c-0.3,0.2-0.6,0.3-0.9,0.3c-0.3-0.1-0.6-0.3-0.8-0.6l-2.2-3.2   l-0.7,0.5L17,12C17.3,12.5,17.7,12.7,18.2,12.8z" />
	<path class="st0" d="M22.7,8.9c0.4,0.3,0.8,0.5,1.2,0.5c0.4,0,0.9,0,1.3-0.2c0.3-0.2,0.6-0.4,0.8-0.6c0.2-0.2,0.3-0.5,0.4-0.7   l-0.6-0.3c-0.1,0.2-0.2,0.4-0.4,0.6c-0.1,0.2-0.3,0.3-0.5,0.4c-0.4,0.2-0.9,0.2-1.3,0c-0.4-0.2-0.8-0.7-1.2-1.4   c-0.4-0.7-0.5-1.3-0.4-1.8c0.1-0.5,0.4-0.8,0.8-1c0.4-0.2,0.8-0.2,1.2-0.1l0.2-0.7c-0.3-0.1-0.6-0.1-0.8-0.1   c-0.3,0-0.5,0.1-0.8,0.3c-0.4,0.2-0.7,0.5-0.9,0.8c-0.2,0.4-0.3,0.8-0.3,1.3c0,0.5,0.1,1,0.4,1.6C22,8.2,22.3,8.6,22.7,8.9z" />
	<polygon class="st0" points="27.4,2.7 29,7.6 29.8,7.4 28.2,2.5 29.7,2 29.6,1.3 25.7,2.6 25.9,3.2" />
	<path class="st0" d="M32.4,5.3c0.3,0.4,0.6,0.7,1,0.9c0.4,0.2,0.8,0.2,1.3,0.1s0.9-0.3,1.2-0.6c0.3-0.3,0.6-0.7,0.7-1.1   s0.1-1,0-1.6c-0.1-0.6-0.3-1.2-0.6-1.6c-0.3-0.4-0.6-0.7-1-0.9c-0.4-0.2-0.8-0.2-1.3-0.1c-0.5,0.1-0.9,0.3-1.2,0.6   c-0.3,0.3-0.6,0.7-0.7,1.2c-0.1,0.5-0.1,1,0,1.6C31.9,4.4,32.1,4.9,32.4,5.3z M32.8,1.8C33,1.4,33.3,1.1,33.8,1   c1.1-0.2,1.7,0.5,1.9,2.1c0.2,1.5-0.2,2.4-1.2,2.6c-0.5,0.1-0.9,0-1.2-0.4C33,5,32.8,4.4,32.6,3.6C32.5,2.8,32.5,2.2,32.8,1.8z" />
	<polygon class="st0" points="45.2,5.4 42.8,5.2 42.9,3.2 44.9,3.4 44.9,2.7 43,2.6 43.1,0.7 45.4,0.9 45.5,0.3 42.4,0 41.9,5.8    45.1,6" />
	<path class="st0" d="M47.8,6.3c0.3,0.3,0.7,0.5,1.1,0.6c0.4,0.1,0.7,0.1,1,0c0.3-0.1,0.6-0.2,0.8-0.3l-0.3-0.6   c-0.2,0.1-0.5,0.2-0.7,0.2c-0.2,0-0.4,0-0.7,0c-0.5-0.1-0.8-0.4-1-0.8c-0.2-0.4-0.2-1,0-1.8c0.2-0.8,0.5-1.3,0.8-1.6   c0.4-0.3,0.8-0.4,1.3-0.3c0.4,0.1,0.7,0.3,1,0.7L51.7,2c-0.2-0.3-0.4-0.4-0.6-0.6c-0.2-0.1-0.5-0.3-0.8-0.3C49.8,1,49.4,1,49,1.1   c-0.4,0.1-0.8,0.4-1.1,0.8c-0.3,0.4-0.5,0.9-0.7,1.5c-0.1,0.6-0.2,1.2-0.1,1.7C47.3,5.6,47.5,6,47.8,6.3z" />
	<path class="st0" d="M53.8,8.5c0.5,0.2,0.9,0.2,1.3,0.2S56,8.4,56.3,8c0.4-0.3,0.7-0.8,0.9-1.4c0.2-0.6,0.4-1.1,0.3-1.6   c0-0.5-0.2-0.9-0.4-1.3c-0.3-0.4-0.6-0.6-1.1-0.8c-0.4-0.2-0.9-0.2-1.3-0.2S54,3.1,53.6,3.4c-0.4,0.3-0.7,0.8-0.9,1.4   c-0.2,0.6-0.4,1.1-0.3,1.6c0,0.5,0.2,0.9,0.4,1.3S53.4,8.3,53.8,8.5z M53.5,5.1c0.3-0.7,0.7-1.2,1.1-1.5c0.4-0.2,0.8-0.3,1.3-0.1   c1,0.4,1.2,1.3,0.6,2.8c-0.6,1.4-1.4,2-2.4,1.6c-0.5-0.2-0.8-0.5-0.9-1C53.1,6.5,53.2,5.9,53.5,5.1z" />
	<polygon class="st0" points="60.9,11.3 58.8,10.1 61.5,5.7 60.8,5.3 57.8,10.3 60.4,11.9" />
	<path class="st0" d="M63.1,14.1c0.4,0.3,0.8,0.5,1.2,0.5c0.4,0.1,0.9,0,1.3-0.2c0.4-0.2,0.9-0.6,1.3-1c0.4-0.5,0.7-1,0.8-1.5   c0.1-0.5,0.1-0.9,0-1.3c-0.1-0.4-0.4-0.8-0.8-1.1c-0.4-0.3-0.8-0.5-1.2-0.5c-0.4-0.1-0.9,0-1.3,0.3c-0.4,0.2-0.9,0.6-1.3,1   c-0.4,0.5-0.7,1-0.8,1.4c-0.1,0.5-0.1,0.9,0,1.3C62.5,13.4,62.7,13.7,63.1,14.1z M63.8,10.7c0.5-0.6,1-1,1.5-1.1   c0.5-0.1,0.9,0,1.3,0.3c0.8,0.7,0.7,1.6-0.3,2.8c-1,1.2-1.9,1.5-2.7,0.8c-0.4-0.3-0.6-0.7-0.5-1.2C63,11.9,63.3,11.4,63.8,10.7z" />
	<polygon class="st0" points="68.6,8.5 66.7,8.1 66.6,8.6 68.4,9.2" />
	<path class="st0" d="M67.1,16.7c-0.1,0.7,0.1,1.3,0.6,1.9c0.4,0.5,1,0.9,1.6,1.1l2.1-1.8l-1.2-1.5l-0.4,0.5l0.7,0.8L69,18.8   c-0.3-0.1-0.6-0.3-0.9-0.7c-0.3-0.4-0.5-0.8-0.3-1.3c0.1-0.4,0.5-0.9,1.1-1.5c0.4-0.4,0.8-0.6,1.2-0.7c0.4-0.1,0.7-0.1,1,0   c0.3,0.1,0.5,0.2,0.7,0.5c0.2,0.2,0.3,0.4,0.4,0.6c0.1,0.2,0.1,0.4,0.1,0.7l0.7,0c0-0.3-0.1-0.6-0.2-0.9c-0.1-0.3-0.3-0.5-0.5-0.8   c-0.3-0.3-0.7-0.6-1.1-0.7c-0.4-0.1-0.9-0.2-1.4,0c-0.5,0.1-1,0.4-1.5,0.8C67.6,15.4,67.2,16,67.1,16.7z" />
	<rect x="69.8" y="19.9" transform="matrix(0.8352 -0.5499 0.5499 0.8352 0.8022 43.3243)" class="st0" width="5.8" height="0.8" />
	<path class="st0" d="M72.8,23.6c-0.3,0.4-0.5,0.8-0.5,1.2c0,0.4,0,0.9,0.2,1.3c0.2,0.3,0.4,0.6,0.6,0.8c0.2,0.2,0.5,0.3,0.7,0.4   l0.3-0.6c-0.2-0.1-0.4-0.2-0.6-0.4c-0.2-0.1-0.3-0.3-0.4-0.5c-0.2-0.4-0.2-0.9,0-1.3c0.2-0.4,0.7-0.8,1.4-1.2   c0.7-0.4,1.3-0.5,1.8-0.4c0.5,0.1,0.8,0.4,1,0.8c0.2,0.4,0.2,0.7,0.1,1.2l0.7,0.2c0.1-0.3,0.1-0.6,0.1-0.8c0-0.3-0.1-0.5-0.3-0.8   c-0.2-0.4-0.5-0.7-0.9-0.9c-0.4-0.2-0.8-0.3-1.3-0.3c-0.5,0-1,0.2-1.6,0.4C73.6,22.9,73.1,23.2,72.8,23.6z" />
	<path class="st0" d="M75.1,28.5c-0.4,0.3-0.6,0.7-0.7,1.1c-0.1,0.4-0.1,0.9,0.1,1.3s0.4,0.8,0.7,1.1c0.3,0.3,0.7,0.5,1.2,0.5   c0.5,0.1,1,0,1.6-0.2c0.6-0.2,1.1-0.4,1.5-0.8c0.4-0.3,0.6-0.7,0.7-1.1c0.1-0.4,0.1-0.9,0-1.3c-0.1-0.5-0.4-0.8-0.7-1.1   c-0.3-0.3-0.8-0.5-1.2-0.5c-0.5-0.1-1,0-1.6,0.2C76,27.9,75.5,28.2,75.1,28.5z M78.7,28.4c0.4,0.2,0.7,0.5,0.9,1   c0.3,1-0.3,1.8-1.8,2.2c-1.5,0.5-2.4,0.2-2.7-0.8c-0.1-0.5-0.1-0.9,0.2-1.3s0.8-0.7,1.6-0.9C77.6,28.3,78.2,28.3,78.7,28.4z" />
	<path class="st0" d="M2.8,53.7c0.2,0.6,0.5,1.1,0.9,1.4c0.4,0.3,0.9,0.3,1.5,0.1c0.6-0.2,0.9-0.5,1.1-1c0.2-0.5,0.1-1-0.1-1.7   l-0.5-1.4l-5.5,1.8l0.2,0.8l2-0.7L2.8,53.7z M5.5,52.1l0.2,0.7c0.1,0.4,0.2,0.8,0.1,1.1c-0.1,0.3-0.3,0.5-0.7,0.6   c-0.4,0.1-0.8,0.1-1,0s-0.4-0.5-0.6-0.9l-0.2-0.7L5.5,52.1z" />
	<path class="st0" d="M7.9,60.2c0.5-0.2,0.8-0.6,0.8-1.1c0.1-0.5,0-1-0.4-1.7l-0.7-1.4l-5.2,2.6l0.4,0.7l2.2-1.1l0.4,0.8l-1.6,2.3   l0.4,0.8l1.6-2.6c0.3,0.3,0.6,0.5,0.9,0.6C7.2,60.5,7.5,60.4,7.9,60.2z M6,58.8l-0.4-0.7l1.9-0.9l0.3,0.6c0.2,0.4,0.3,0.8,0.3,1   c0,0.3-0.2,0.5-0.5,0.6c-0.3,0.2-0.6,0.2-0.9,0.1C6.4,59.5,6.2,59.2,6,58.8z" />
	<path class="st0" d="M11.7,65.1c0.2-0.4,0.3-0.9,0.3-1.3c0-0.4-0.2-0.8-0.5-1.2c-0.3-0.4-0.6-0.7-1-0.8s-0.9-0.2-1.3-0.1   s-1,0.3-1.5,0.7c-0.5,0.4-0.9,0.8-1.1,1.2c-0.2,0.4-0.3,0.9-0.3,1.3c0,0.4,0.2,0.8,0.5,1.2c0.3,0.4,0.6,0.7,1,0.8   c0.4,0.2,0.9,0.2,1.3,0.1c0.5-0.1,1-0.3,1.5-0.7C11.1,66,11.5,65.6,11.7,65.1z M10.1,65.7c-1.3,0.9-2.2,0.9-2.8,0.1   C7,65.3,6.9,64.9,7,64.5c0.1-0.5,0.5-0.9,1.2-1.4c0.7-0.5,1.2-0.7,1.7-0.7c0.5,0,0.9,0.2,1.2,0.6C11.7,63.8,11.4,64.7,10.1,65.7z" />
	<path class="st0" d="M15,66.8L14.2,66l-4,4.2l1,1c0.5,0.5,1.2,0.8,1.8,0.9c0.7,0.1,1.4-0.3,2.1-1.1c0.8-0.8,1.1-1.5,1-2.2   C16,68,15.7,67.4,15,66.8z M14.5,70.3c-0.6,0.6-1.1,0.9-1.6,0.9c-0.5,0-0.9-0.2-1.3-0.6l-0.5-0.5l3.1-3.3l0.4,0.4   c0.3,0.3,0.5,0.5,0.6,0.8c0.1,0.3,0.1,0.6,0,0.9C15.2,69.4,14.9,69.8,14.5,70.3z" />
	<path class="st0" d="M21.1,71.7l-2.2,3.2c-0.3,0.4-0.5,0.6-0.8,0.7c-0.3,0.1-0.6,0-0.9-0.3c-0.3-0.2-0.5-0.5-0.6-0.8   c0-0.3,0.1-0.6,0.3-1l2.2-3.2l-0.7-0.5l-2.2,3.2c-0.3,0.5-0.5,1-0.4,1.5c0.1,0.5,0.4,0.9,0.9,1.3c0.4,0.2,0.7,0.4,1,0.4   c0.3,0,0.7,0,1-0.2c0.3-0.2,0.6-0.4,0.8-0.7l2.2-3.2L21.1,71.7z" />
	<path class="st0" d="M25.5,74c-0.4-0.2-0.8-0.3-1.2-0.2c-0.4,0.1-0.8,0.2-1.2,0.5c-0.4,0.3-0.7,0.8-1,1.3c-0.3,0.6-0.4,1.1-0.4,1.6   c0,0.5,0.1,0.9,0.3,1.3c0.2,0.4,0.6,0.7,1,0.9c0.3,0.2,0.6,0.2,1,0.2c0.3,0,0.6,0,0.8-0.1l-0.1-0.6c-0.3,0-0.5,0.1-0.7,0.1   c-0.2,0-0.4-0.1-0.6-0.2c-0.4-0.2-0.7-0.5-0.8-1c-0.1-0.5,0-1.1,0.4-1.8c0.4-0.7,0.7-1.2,1.2-1.4c0.4-0.2,0.9-0.2,1.3,0   c0.4,0.2,0.6,0.5,0.8,0.9l0.6-0.3c-0.1-0.3-0.3-0.5-0.5-0.7C26,74.3,25.8,74.1,25.5,74z" />
	<polygon class="st0" points="27.5,75.7 29,76.2 27.5,81.1 28.3,81.3 29.8,76.4 31.3,76.9 31.6,76.3 27.7,75.1" />
	<path class="st0" d="M36,77.3c-0.3-0.3-0.7-0.5-1.2-0.5c-0.5-0.1-0.9,0-1.3,0.2c-0.4,0.2-0.7,0.5-1,0.9c-0.3,0.4-0.5,0.9-0.6,1.5   C31.8,80,31.8,80.6,32,81c0.1,0.5,0.4,0.9,0.7,1.1c0.3,0.3,0.7,0.5,1.2,0.5c0.5,0.1,0.9,0,1.3-0.2c0.4-0.2,0.7-0.5,1-0.9   c0.3-0.4,0.5-0.9,0.6-1.5c0.1-0.6,0.1-1.2-0.1-1.7C36.6,78,36.3,77.6,36,77.3z M35.9,80c-0.2,1.5-0.9,2.2-1.9,2.1   c-0.5-0.1-0.9-0.3-1.1-0.7c-0.2-0.4-0.3-1-0.1-1.8c0.1-0.8,0.4-1.4,0.7-1.7c0.3-0.3,0.8-0.5,1.3-0.4C35.8,77.6,36.2,78.4,35.9,80z" />
	<polygon class="st0" points="43.1,82.4 42.9,80.4 44.9,80.2 44.8,79.6 42.9,79.8 42.7,77.9 44.9,77.7 45,77 41.9,77.3 42.3,83.1    45.5,82.8 45.5,82.2" />
	<path class="st0" d="M50.5,81.1c-0.2,0.1-0.4,0.2-0.6,0.3c-0.5,0.1-0.9,0-1.3-0.3c-0.4-0.3-0.6-0.8-0.8-1.6c-0.2-0.8-0.2-1.4,0-1.8   s0.5-0.7,1-0.8c0.4-0.1,0.8,0,1.2,0.2l0.3-0.6c-0.3-0.1-0.6-0.2-0.8-0.3c-0.3,0-0.5,0-0.9,0.1c-0.4,0.1-0.8,0.3-1.1,0.6   c-0.3,0.3-0.5,0.7-0.6,1.2c-0.1,0.5-0.1,1,0,1.7c0.1,0.6,0.4,1.1,0.7,1.5c0.3,0.4,0.7,0.7,1.1,0.8c0.4,0.1,0.8,0.2,1.3,0.1   c0.4-0.1,0.7-0.2,0.9-0.4c0.2-0.2,0.4-0.4,0.6-0.6L51,80.7C50.9,80.9,50.7,81,50.5,81.1z" />
	<path class="st0" d="M56,75.2c-0.4-0.3-0.7-0.6-1.2-0.6c-0.4-0.1-0.9,0-1.3,0.2c-0.4,0.2-0.8,0.4-1.1,0.8c-0.3,0.4-0.4,0.8-0.4,1.3   c0,0.5,0.1,1,0.3,1.6c0.2,0.6,0.5,1.1,0.9,1.4c0.4,0.3,0.7,0.5,1.2,0.6c0.4,0.1,0.9,0,1.3-0.2c0.5-0.2,0.8-0.4,1.1-0.8   c0.3-0.4,0.4-0.8,0.4-1.3c0-0.5-0.1-1-0.3-1.6C56.7,76,56.4,75.5,56,75.2z M55.5,79.6c-0.5,0.2-0.9,0.2-1.3-0.1s-0.8-0.7-1-1.5   c-0.3-0.7-0.4-1.4-0.3-1.8s0.4-0.8,0.9-1c1-0.4,1.8,0.1,2.4,1.6C56.7,78.3,56.5,79.2,55.5,79.6z" />
	<polygon class="st0" points="60.7,77 58.1,72.6 57.4,73 60.4,78 63,76.4 62.7,75.8" />
	<polygon class="st0" points="61.7,69.5 62.7,67.8 62.1,67.5 61.3,69.3" />
	<path class="st0" d="M66.5,70.1c-0.4-0.5-0.8-0.9-1.3-1.1c-0.4-0.2-0.9-0.3-1.3-0.3c-0.4,0-0.8,0.2-1.2,0.5   c-0.4,0.3-0.6,0.7-0.8,1.1c-0.1,0.4-0.1,0.9,0,1.3c0.1,0.5,0.4,1,0.8,1.5c0.4,0.5,0.8,0.9,1.3,1.1c0.4,0.2,0.9,0.3,1.3,0.3   c0.4-0.1,0.8-0.2,1.2-0.5c0.4-0.3,0.6-0.7,0.8-1.1c0.1-0.4,0.1-0.9,0-1.3C67.1,71.1,66.8,70.6,66.5,70.1z M66,73.5   c-0.4,0.3-0.8,0.4-1.3,0.3c-0.5-0.1-0.9-0.5-1.4-1.1c-0.5-0.6-0.8-1.2-0.8-1.7c0-0.5,0.2-0.9,0.6-1.2c0.8-0.7,1.7-0.4,2.7,0.8   C66.8,71.9,66.8,72.8,66,73.5z" />
	<path class="st0" d="M69.2,66.8l0.5,0.4l0.7-0.8l1.3,1.2c-0.1,0.3-0.3,0.7-0.5,1c-0.3,0.4-0.7,0.6-1.2,0.5c-0.5,0-1-0.3-1.6-0.9   c-0.4-0.4-0.7-0.7-0.8-1.1c-0.2-0.4-0.2-0.7-0.2-1c0-0.3,0.2-0.6,0.4-0.8c0.2-0.2,0.3-0.3,0.5-0.4c0.2-0.1,0.4-0.2,0.7-0.2L68.9,64   c-0.3,0.1-0.6,0.1-0.9,0.3c-0.3,0.1-0.5,0.3-0.7,0.6c-0.3,0.3-0.5,0.7-0.6,1.2c-0.1,0.4,0,0.9,0.2,1.4c0.2,0.5,0.5,0.9,1,1.3   c0.7,0.7,1.4,1,2.1,1c0.7,0,1.3-0.3,1.8-0.8c0.4-0.5,0.7-1.1,0.9-1.8l-2.1-1.9L69.2,66.8z" />
	
		<rect x="71.8" y="60.5" transform="matrix(0.5647 -0.8253 0.8253 0.5647 -20.8508 87.1927)" class="st0" width="0.8" height="5.8" />
	<path class="st0" d="M77,58.8c0,0.3,0,0.5,0,0.7c0,0.2-0.1,0.4-0.2,0.6c-0.2,0.4-0.6,0.7-1,0.8c-0.5,0.1-1.1-0.1-1.8-0.4   c-0.7-0.4-1.2-0.8-1.4-1.2c-0.2-0.4-0.2-0.9,0.1-1.3c0.2-0.3,0.5-0.6,0.9-0.8l-0.3-0.6c-0.3,0.1-0.5,0.3-0.7,0.4   c-0.2,0.2-0.4,0.4-0.5,0.7c-0.2,0.4-0.3,0.8-0.3,1.2c0,0.4,0.2,0.8,0.5,1.2c0.3,0.4,0.7,0.7,1.3,1c0.6,0.3,1.1,0.5,1.6,0.5   c0.5,0,0.9-0.1,1.3-0.3c0.4-0.2,0.7-0.5,0.9-1c0.2-0.3,0.3-0.6,0.3-0.9c0-0.3,0-0.6-0.1-0.8L77,58.8z" />
	<path class="st0" d="M79.2,52.5c-0.4-0.3-0.8-0.6-1.4-0.8c-0.6-0.2-1.2-0.3-1.6-0.2c-0.5,0-0.9,0.2-1.2,0.5   c-0.3,0.3-0.6,0.6-0.7,1.1c-0.2,0.5-0.2,0.9-0.1,1.3c0.1,0.4,0.3,0.8,0.7,1.1c0.4,0.3,0.8,0.6,1.4,0.8c0.6,0.2,1.1,0.3,1.6,0.2   c0.5,0,0.9-0.2,1.2-0.5c0.3-0.3,0.6-0.6,0.7-1.1c0.2-0.5,0.2-0.9,0.1-1.3S79.5,52.8,79.2,52.5z M79.2,54.7   c-0.2,0.5-0.5,0.8-0.9,0.9c-0.4,0.1-1,0.1-1.8-0.2c-0.8-0.3-1.3-0.6-1.6-1c-0.3-0.4-0.3-0.8-0.2-1.3c0.3-1,1.3-1.3,2.7-0.8   C78.9,53,79.5,53.7,79.2,54.7z" />
	<path class="st0" d="M1.8,43c0.9,0,1.7-0.7,1.7-1.7s-0.7-1.7-1.7-1.7s-1.7,0.7-1.7,1.7S0.9,43,1.8,43z" />
	<path class="st0" d="M79.5,39.7c-0.9,0-1.7,0.7-1.7,1.7s0.7,1.7,1.7,1.7s1.7-0.7,1.7-1.7S80.4,39.7,79.5,39.7z" />
	<path class="st0" d="M72.6,41.6c0-17.8-14.5-32.2-32.2-32.2C22.6,9.3,8.1,23.8,8.1,41.6s14.5,32.2,32.2,32.2S72.6,59.4,72.6,41.6z    M40.3,72.4L40.3,72.4c-17,0-30.8-13.8-30.8-30.8s13.8-30.8,30.8-30.8s30.8,13.8,30.8,30.8S57.3,72.4,40.3,72.4z" />
	<path class="st0" d="M40.7,49.1v-8.4c7-0.4,12.6-6.2,12.6-13.3c0-0.4-0.3-0.7-0.7-0.7c-5.9,0-10.8,3.8-12.6,9.1   c-0.6-1.9-1.7-3.7-3.2-5.2c-2.5-2.5-5.9-3.9-9.4-3.9h0c-0.4,0-0.7,0.3-0.7,0.7c0,7.1,5.6,12.9,12.6,13.3v8.5   c-5,0.3-9.7,2.5-13.1,6.1C26,55.5,25.9,55.8,26,56c0.1,0.3,0.4,0.4,0.6,0.4l27.3,0c0.3,0,0.5-0.2,0.6-0.4c0.1-0.3,0.1-0.6-0.1-0.8   C50.9,51.4,45.9,49.2,40.7,49.1z M44.2,31.6c2.1-2.1,4.8-3.3,7.7-3.5c-0.3,5.6-4.6,10.2-10.1,11l5-5c0.3-0.3,0.3-0.7,0-1   c-0.3-0.3-0.7-0.3-1,0l-5,5C41.2,35.7,42.4,33.4,44.2,31.6z M28.1,28.1c5.6,0.3,10.2,4.6,11.1,10.1l-5-5c-0.3-0.3-0.7-0.3-1,0   c-0.3,0.3-0.3,0.7,0,1l5,5C32.7,38.3,28.5,33.7,28.1,28.1z" />
</g>
</svg>