<svg xmlns:xlink="http://www.w3.org/1999/xlink" xmlns="http://www.w3.org/2000/svg" version="1.1" id="Layer_1" x="0px" y="0px" viewBox="0 0 81.2 85" style="enable-background: new 0 0 81.2 85">
<style type="text/css">
	.st0{fill:#231F20;}
	.st1{fill:none;stroke:#231F20;stroke-width:1.4017;stroke-linecap:round;stroke-linejoin:round;stroke-miterlimit:10;}
	.st2{fill:#3B3A3C;}
	.st3{fill:#B8A663;}
	.st4{fill:none;stroke:#231F20;stroke-miterlimit:10;}
	.st5{fill:none;stroke:#231F20;stroke-width:0.6174;stroke-linecap:round;stroke-linejoin:round;stroke-miterlimit:10;}
	.st6{fill:none;stroke:#231F20;stroke-linecap:round;stroke-linejoin:round;stroke-miterlimit:10;}
	.st7{fill:#FFFFFF;stroke:#231F20;stroke-linecap:round;stroke-linejoin:round;stroke-miterlimit:10;}
	.st8{fill:none;stroke:#1D1D1B;stroke-miterlimit:10;}
	.st9{fill:none;stroke:#1D1D1B;stroke-linecap:round;stroke-miterlimit:10;}
	.st10{fill:#1D1D1B;}
	.st11{fill:none;stroke:#1D1D1B;stroke-linecap:round;stroke-linejoin:round;stroke-miterlimit:10;}
	.st12{fill:#FFFFFF;stroke:#1D1D1B;stroke-miterlimit:10;}
	.st13{fill:none;stroke:#231F20;stroke-width:1.8508;stroke-linecap:round;stroke-linejoin:round;stroke-miterlimit:10;}
	.st14{fill:none;stroke:#231F20;stroke-width:1.8508;stroke-miterlimit:10;}
	.st15{fill:#FFFFFF;stroke:#231F20;stroke-width:1.8508;stroke-linecap:round;stroke-linejoin:round;stroke-miterlimit:10;}
	.st16{fill:none;stroke:#1D1D1B;stroke-width:1.8508;stroke-miterlimit:10;}
	.st17{fill:#FFFFFF;}
	.st18{fill:none;stroke:#1D1D1B;stroke-width:1.8508;stroke-linecap:round;stroke-linejoin:round;stroke-miterlimit:10;}
	.st19{fill:none;stroke:#1D1D1B;stroke-width:1.8508;stroke-linecap:round;stroke-miterlimit:10;}
	.st20{fill:#FFFFFF;stroke:#1D1D1B;stroke-width:1.8508;stroke-miterlimit:10;}
	.st21{fill:#C6C6C6;}
	.st22{fill:none;stroke:#DADADA;stroke-width:3.4203;stroke-miterlimit:10;}
	.st23{fill:#822B26;}
	.st24{fill:#A8A8A8;}
	.st25{fill:#2A6780;}
	.st26{opacity:0.8;fill:#2A6780;}
	.st27{fill:none;stroke:#FFFFFF;stroke-width:0.75;stroke-linecap:round;stroke-linejoin:round;stroke-miterlimit:10;}
	.st28{fill:none;stroke:#113A47;stroke-width:1.5;stroke-miterlimit:10;}
	.st29{fill:#113A47;}
	.st30{fill:#B7A562;}
</style>

<g>
	<path class="st0" d="M3.6,43.2c0-0.9-0.7-1.7-1.7-1.7s-1.7,0.7-1.7,1.7s0.7,1.7,1.7,1.7S3.6,44.1,3.6,43.2z" />
	<polygon class="st0" points="1.1,31.9 6,33.4 6.3,32.6 1.4,31.2 1.8,29.6 1.2,29.3 0,33.3 0.7,33.5" />
	<polygon class="st0" points="8.7,26.7 8.1,26.4 7.1,28.6 5.3,27.7 6.2,25.9 5.6,25.7 4.7,27.4 3,26.6 4,24.6 3.4,24.3 2.1,27.1    7.4,29.6" />
	<path class="st0" d="M7,23.8c0.5,0.3,1,0.6,1.5,0.6c0.5,0.1,0.9,0,1.3-0.2c0.4-0.2,0.7-0.5,1-0.9c0.2-0.3,0.3-0.6,0.4-0.9   c0.1-0.3,0-0.6,0-0.8l-0.6,0.1c0,0.3,0,0.5,0,0.7c0,0.2-0.1,0.4-0.3,0.6c-0.3,0.4-0.6,0.6-1.1,0.7c-0.5,0-1-0.2-1.7-0.6   c-0.7-0.5-1.1-0.9-1.2-1.3c-0.1-0.5-0.1-0.9,0.2-1.3c0.2-0.3,0.5-0.6,1-0.7l-0.2-0.6c-0.3,0.1-0.6,0.2-0.8,0.4   c-0.2,0.1-0.4,0.4-0.6,0.7c-0.2,0.4-0.4,0.8-0.4,1.2c0,0.4,0.1,0.9,0.4,1.3C6.1,23,6.5,23.4,7,23.8z" />
	<path class="st0" d="M13.2,20.1l-2-1.8c-0.3-0.3-0.6-0.6-0.9-0.8c-0.3-0.2-0.5-0.4-0.8-0.7l5.2,1.6l0.7-0.8l-4.3-3.9l-0.5,0.6   l2.3,2.1c0.2,0.2,0.5,0.4,0.8,0.6c0.3,0.2,0.5,0.4,0.6,0.5L9.1,16l-0.7,0.8l4.3,3.9L13.2,20.1z" />
	<path class="st0" d="M15.1,14.1c0.4,0.5,0.8,0.9,1.2,1.1c0.4,0.2,0.9,0.3,1.3,0.3c0.4,0,0.8-0.2,1.2-0.5c0.4-0.3,0.7-0.6,0.8-1.1   c0.2-0.4,0.2-0.9,0.1-1.3c-0.1-0.5-0.4-1-0.7-1.5c-0.4-0.5-0.8-0.9-1.2-1.1c-0.4-0.2-0.9-0.3-1.3-0.3s-0.8,0.2-1.2,0.5   c-0.4,0.3-0.7,0.6-0.8,1.1c-0.2,0.4-0.2,0.9-0.1,1.3C14.4,13.1,14.7,13.6,15.1,14.1z M15.6,10.8c0.8-0.6,1.7-0.3,2.7,0.9   c0.9,1.2,1,2.2,0.1,2.8c-0.4,0.3-0.8,0.4-1.3,0.3c-0.5-0.1-0.9-0.5-1.4-1.1C15.3,13,15,12.4,15,11.9C15,11.4,15.2,11.1,15.6,10.8z" />
	<polygon class="st0" points="25.1,11 24.9,10.3 22.8,11.5 20.4,7 19.7,7.4 22.4,12.5" />
	<path class="st0" d="M25.9,9.3c0.3,0.4,0.7,0.6,1.2,0.7c0.4,0.1,0.9,0.1,1.3-0.1c0.5-0.2,0.8-0.4,1.1-0.8c0.3-0.3,0.4-0.8,0.5-1.3   c0-0.5,0-1-0.3-1.6c-0.2-0.6-0.5-1.1-0.8-1.4c-0.3-0.4-0.7-0.6-1.2-0.7C27.2,4,26.8,4,26.3,4.2c-0.5,0.2-0.8,0.4-1.1,0.8   c-0.3,0.4-0.4,0.8-0.5,1.3c0,0.5,0,1,0.3,1.6C25.2,8.5,25.5,8.9,25.9,9.3z M25.6,5.8c0.1-0.5,0.4-0.8,0.9-0.9   c1-0.4,1.8,0.2,2.3,1.7c0.5,1.5,0.3,2.4-0.7,2.7c-0.5,0.2-0.9,0.1-1.3-0.1c-0.4-0.3-0.7-0.8-1-1.5C25.5,6.8,25.5,6.2,25.6,5.8z" />
	<path class="st0" d="M32.6,7.8c0.5,0.4,1.1,0.6,1.9,0.5c0.7-0.1,1.2-0.4,1.8-0.8l-0.5-2.8L34,5l0.2,0.6l1-0.2l0.3,1.7   c-0.3,0.2-0.6,0.4-1,0.4c-0.5,0.1-0.9,0-1.3-0.4c-0.3-0.3-0.6-0.9-0.7-1.7c-0.1-0.5-0.1-1,0-1.4c0.1-0.4,0.3-0.7,0.5-0.9   c0.2-0.2,0.5-0.3,0.8-0.4c0.3,0,0.5,0,0.7,0c0.2,0,0.4,0.1,0.7,0.3l0.4-0.6c-0.3-0.2-0.6-0.3-0.9-0.3c-0.3-0.1-0.6-0.1-1,0   c-0.4,0.1-0.8,0.3-1.2,0.6c-0.3,0.3-0.6,0.7-0.7,1.2c-0.1,0.5-0.2,1-0.1,1.7C31.8,6.6,32.1,7.3,32.6,7.8z" />
	
		<rect x="38.3" y="1.9" transform="matrix(0.999 -4.454805e-02 4.454805e-02 0.999 -0.175 1.7272)" class="st0" width="0.8" height="5.8" />
	<polygon class="st0" points="39.5,0.6 39.1,0 37.5,1 37.7,1.4" />
	<path class="st0" d="M42.1,6.2l2.2,0.2l0.3,1.5l0.8,0.1L44,2l-1-0.1l-2.3,5.6l0.8,0.1L42.1,6.2z M43.5,2.6l0.7,3.1l-1.8-0.1   L43.5,2.6z" />
	<path class="st0" d="M50.7,7.6l2.1,0.7l0,1.5l0.8,0.3l0-6.1l-1-0.3l-3.5,5l0.8,0.2L50.7,7.6z M52.9,4.5l-0.1,3.2l-1.7-0.6L52.9,4.5   z" />
	<polygon class="st0" points="58.2,11.5 56,10.4 58.3,5.9 57.6,5.5 55,10.7 57.8,12.1" />
	<polygon class="st0" points="62.3,14.2 60.3,12.9 61.4,11.2 63,12.3 63.4,11.8 61.8,10.7 62.8,9.2 64.7,10.4 65.1,9.9 62.5,8.2    59.3,13 61.9,14.8" />
	<path class="st0" d="M63.8,16.2l1.9-1.7c0.7-0.6,1.3-1.2,1.8-1.7l-2,4l0.5,0.5l3.9-2.3c-0.4,0.4-0.9,1-1.5,1.8l-1.7,2l0.6,0.5   l3.7-4.5l-0.8-0.8l-3.8,2.2l2-3.9l-0.8-0.7l-4.4,3.9L63.8,16.2z" />
	<path class="st0" d="M68.4,21l1.4-0.5l1.3,1.8l-0.9,1.2l0.5,0.7l3.6-4.9l-0.6-0.8l-5.8,1.9L68.4,21z M73.4,19.2l-1.9,2.5l-1.1-1.5   L73.4,19.2z" />
	<path class="st0" d="M71.8,26.2l2.4-1.2c0.4-0.2,0.8-0.4,1-0.6c0.3-0.2,0.6-0.4,0.9-0.6l-3.3,4.3l0.5,1l5.2-2.6l-0.3-0.7l-2.8,1.4   c-0.3,0.1-0.6,0.3-0.9,0.5c-0.3,0.2-0.5,0.3-0.7,0.4l3.3-4.3l-0.5-0.9l-5.2,2.6L71.8,26.2z" />
	<path class="st0" d="M74.1,31.3l1.5,0l0.7,2.1L75,34.2l0.3,0.8l5-3.5l-0.3-1l-6.1,0L74.1,31.3z M79.5,31.2L76.9,33l-0.5-1.7   L79.5,31.2z" />
	<polygon class="st0" points="6.5,56.8 7.1,56.7 5.8,52.8 5.2,53 5.7,54.5 0.9,56.2 1.1,56.9 6,55.3" />
	<polygon class="st0" points="6.1,61.9 6.7,61.6 5.8,59.9 7.5,59 8.5,61 9.1,60.8 7.7,58 2.6,60.6 4,63.5 4.5,63.2 3.5,61 5.3,60.1" />
	<path class="st0" d="M6.9,67.1c-0.3-0.4-0.3-0.8-0.2-1.3c0.1-0.5,0.5-0.9,1.2-1.4c0.7-0.5,1.2-0.7,1.7-0.6c0.5,0,0.8,0.2,1.1,0.6   c0.2,0.3,0.3,0.7,0.3,1.2l0.7,0.1c0-0.3,0-0.6-0.1-0.8c-0.1-0.2-0.2-0.5-0.4-0.8c-0.3-0.4-0.6-0.6-1-0.8C9.9,63,9.5,63,9,63.1   c-0.5,0.1-1,0.3-1.5,0.7c-0.5,0.4-0.9,0.8-1.2,1.2c-0.3,0.4-0.4,0.9-0.4,1.3c0,0.4,0.2,0.8,0.4,1.2c0.2,0.3,0.4,0.5,0.7,0.7   c0.3,0.2,0.5,0.3,0.8,0.3L8,67.8c-0.2-0.1-0.5-0.2-0.6-0.3C7.2,67.4,7.1,67.3,6.9,67.1z" />
	<path class="st0" d="M15.4,69l-2.3,2.2c-0.2,0.2-0.5,0.4-0.7,0.7c-0.2,0.3-0.4,0.5-0.5,0.6l1.9-5.1l-0.7-0.8l-4.2,4l0.5,0.5   l1.9-1.8c0.3-0.3,0.6-0.6,0.8-0.8c0.2-0.2,0.5-0.5,0.7-0.8L11,72.8l0.7,0.8l4.2-4L15.4,69z" />
	<path class="st0" d="M20,73.2c-0.2-0.4-0.4-0.8-0.8-1c-0.4-0.3-0.8-0.4-1.2-0.5s-0.9,0.1-1.3,0.3c-0.4,0.2-0.8,0.6-1.2,1.1   c-0.4,0.5-0.6,1-0.7,1.5c-0.1,0.5-0.1,0.9,0.1,1.3c0.2,0.4,0.4,0.8,0.8,1c0.4,0.3,0.8,0.5,1.2,0.5c0.4,0,0.9-0.1,1.3-0.3   c0.4-0.2,0.8-0.6,1.2-1.1c0.4-0.5,0.6-1,0.7-1.5C20.2,74,20.2,73.6,20,73.2z M18.7,75.5c-0.9,1.3-1.8,1.6-2.7,0.9   c-0.4-0.3-0.6-0.7-0.6-1.2c0-0.5,0.2-1,0.7-1.7c0.5-0.6,0.9-1,1.4-1.2c0.5-0.1,0.9-0.1,1.3,0.2C19.7,73.3,19.6,74.2,18.7,75.5z" />
	<polygon class="st0" points="22.7,74.5 20.1,79.7 22.8,81.1 23.2,80.5 21.1,79.4 23.5,74.9" />
	<path class="st0" d="M28.6,77.1c-0.5-0.2-0.9-0.2-1.3-0.1c-0.4,0.1-0.8,0.3-1.2,0.7c-0.3,0.4-0.6,0.8-0.8,1.4   c-0.2,0.6-0.3,1.1-0.2,1.6c0,0.5,0.2,0.9,0.5,1.2c0.3,0.3,0.6,0.6,1.1,0.8c0.5,0.2,0.9,0.2,1.3,0.1c0.4-0.1,0.8-0.3,1.1-0.7   c0.3-0.4,0.6-0.8,0.8-1.4c0.2-0.6,0.3-1.2,0.3-1.6c0-0.5-0.2-0.9-0.5-1.2C29.4,77.5,29.1,77.2,28.6,77.1z M29.1,80.5   c-0.5,1.5-1.3,2-2.3,1.7c-0.5-0.2-0.8-0.5-0.9-0.9c-0.1-0.4-0.1-1,0.2-1.8c0.3-0.8,0.6-1.3,1-1.5c0.4-0.3,0.8-0.3,1.3-0.2   C29.4,78.1,29.7,79,29.1,80.5z" />
	<path class="st0" d="M33.1,80c0.2-0.3,0.5-0.5,0.7-0.7c0.3-0.1,0.6-0.1,0.8-0.1c0.3,0,0.5,0.1,0.6,0.2c0.2,0.1,0.4,0.3,0.5,0.5   l0.5-0.4c-0.2-0.3-0.5-0.5-0.7-0.6c-0.2-0.1-0.5-0.3-0.9-0.3c-0.4-0.1-0.9,0-1.3,0.1c-0.4,0.2-0.8,0.5-1.1,0.9   c-0.3,0.4-0.5,0.9-0.6,1.5c-0.2,1-0.1,1.7,0.3,2.3c0.3,0.6,0.9,0.9,1.6,1.1c0.7,0.1,1.3,0,2-0.2l0.5-2.8l-1.9-0.3l0,0.7l1,0.2   l-0.3,1.7c-0.3,0.1-0.7,0.1-1.1,0.1c-0.5-0.1-0.9-0.3-1.1-0.8c-0.2-0.4-0.2-1-0.1-1.8C32.7,80.8,32.8,80.4,33.1,80z" />
	
		<rect x="35.8" y="81.6" transform="matrix(4.286360e-02 -0.9991 0.9991 4.286360e-02 -44.9363 117.1859)" class="st0" width="5.8" height="0.8" />
	<polygon class="st0" points="37.8,78.1 38,78.6 39.9,78 39.6,77.3" />
	<path class="st0" d="M42.5,79.1L41.1,85l0.8-0.1l0.3-1.5l2.2-0.2l0.5,1.4l0.8-0.1l-2.3-5.6L42.5,79.1z M42.4,82.8l0.7-3.1l1.1,3   L42.4,82.8z" />
	<path class="st0" d="M50.6,77.7l0,6.1l0.8-0.2l0-1.5l2.1-0.7l0.9,1.3l0.8-0.3l-3.5-5L50.6,77.7z M51.3,81.4l0-3.2l1.8,2.6   L51.3,81.4z" />
	<polygon class="st0" points="57.6,80.5 55.4,75.9 54.7,76.3 57.2,81.5 59.9,80.1 59.7,79.5" />
	<polygon class="st0" points="62.3,78 61.3,76.3 62.9,75.2 62.5,74.7 60.9,75.8 59.9,74.2 61.7,73 61.5,72.4 58.8,74.1 62,78.9    64.7,77.2 64.4,76.6" />
	<path class="st0" d="M65.6,68.8l2,3.9l-3.8-2.3l-0.8,0.7l3.6,4.6l0.6-0.5l-1.6-2c-0.6-0.7-1.1-1.3-1.6-1.9l3.9,2.3l0.5-0.5l-2-4   c0.4,0.4,1,0.9,1.7,1.6l1.9,1.8l0.6-0.5l-4.3-3.9L65.6,68.8z" />
	<path class="st0" d="M68.5,65.5l3.5,5l0.5-0.6l-0.9-1.2l1.3-1.7l1.4,0.5l0.5-0.7l-5.7-2L68.5,65.5z M72.3,66.6l-1.1,1.4l-1.9-2.6   L72.3,66.6z" />
	<path class="st0" d="M72.6,59.1l2.8,1.5c0.3,0.1,0.6,0.3,0.9,0.4c0.3,0.1,0.6,0.2,0.7,0.3l-5.5-0.2L71,62l5.1,2.7l0.4-0.7l-2.3-1.2   c-0.4-0.2-0.8-0.4-1.1-0.5c-0.3-0.1-0.6-0.3-1-0.4l5.4,0.2l0.5-0.9l-5.1-2.7L72.6,59.1z" />
	<path class="st0" d="M74.1,55.4L79,59l0.3-0.8L78,57.4l0.7-2.1l1.5,0.1l0.3-0.8l-6.1-0.1L74.1,55.4z M78,55.3L77.5,57l-2.6-1.8   L78,55.3z" />
	<path class="st0" d="M79.5,41.5c-0.9,0-1.7,0.7-1.7,1.7s0.7,1.7,1.7,1.7s1.7-0.7,1.7-1.7S80.4,41.5,79.5,41.5z" />
	<path class="st0" d="M59.3,30.2c-0.4,0-0.7,0.3-0.7,0.7c0,2.2-1.8,4-4,4h-8.8v-7c0-2.4-2-4.4-4.4-4.4h-0.8c-1.9,0-3.6,1.4-3.9,3.3   H36c-1.5,0-2.6,1.2-2.6,2.6c0,0.2,0.1,0.5,0.3,0.6c0.2,0.1,0.4,0.2,0.7,0.1c0.5-0.2,1.1-0.3,1.6-0.3c0.3,0,0.5,0.2,0.5,0.5   c0,1.2-0.2,2.3-0.7,3.4c-0.2,0.4-0.3,0.8-0.4,1.3h-9.1c-2.2,0-4-1.8-4-4c0-0.4-0.3-0.7-0.7-0.7c-0.4,0-0.7,0.3-0.7,0.7v26.9   c0,0.4,0.3,0.7,0.7,0.7c0.4,0,0.7-0.3,0.7-0.7V34.5c0.3,0.3,0.6,0.6,1,0.9v20.3c0,0.4,0.3,0.7,0.7,0.7c0.4,0,0.7-0.3,0.7-0.7V36   c0.3,0.1,0.6,0.2,1,0.2v17.2c0,0.4,0.3,0.7,0.7,0.7s0.7-0.3,0.7-0.7V36.3h1v15c0,0.4,0.3,0.7,0.7,0.7s0.7-0.3,0.7-0.7v-15h1v12.8   c0,0.4,0.3,0.7,0.7,0.7c0.4,0,0.7-0.3,0.7-0.7V36.3h1v10.6c0,0.4,0.3,0.7,0.7,0.7c0.4,0,0.7-0.3,0.7-0.7V36.3h0.9   c0,0.4-0.1,0.8,0,1.1l0,12l-6,9h-2.7c-0.4,0-0.7,0.3-0.7,0.7s0.3,0.7,0.7,0.7h2.5v2.4c0,0.4,0.3,0.7,0.7,0.7c0.4,0,0.7-0.3,0.7-0.7   v-3L35,52l0,8.7c0,0.3,0.1,0.5,0.4,0.6c0.2,0.1,0.5,0.1,0.7,0l4.4-2.8l4.4,2.8c0.1,0.1,0.2,0.1,0.4,0.1c0.1,0,0.2,0,0.3-0.1   c0.2-0.1,0.4-0.4,0.4-0.6V52l4.8,7.3v3c0,0.4,0.3,0.7,0.7,0.7c0.4,0,0.7-0.3,0.7-0.7v-2.4h2.5c0.4,0,0.7-0.3,0.7-0.7   s-0.3-0.7-0.7-0.7h-2.7l-6-8.9l-0.1-13.2h0.9v10.6c0,0.4,0.3,0.7,0.7,0.7s0.7-0.3,0.7-0.7V36.3h1v12.8c0,0.4,0.3,0.7,0.7,0.7   c0.4,0,0.7-0.3,0.7-0.7V36.3h1v15c0,0.4,0.3,0.7,0.7,0.7s0.7-0.3,0.7-0.7v-15h1v17.2c0,0.4,0.3,0.7,0.7,0.7c0.4,0,0.7-0.3,0.7-0.7   V36.2c0.3,0,0.7-0.1,1-0.2v19.6c0,0.4,0.3,0.7,0.7,0.7s0.7-0.3,0.7-0.7V35.3c0.4-0.2,0.7-0.5,1-0.9v23.3c0,0.4,0.3,0.7,0.7,0.7   c0.4,0,0.7-0.3,0.7-0.7V30.9C60,30.5,59.7,30.2,59.3,30.2z" />
	<path class="st0" d="M72.6,43.5c0-17.8-14.5-32.2-32.2-32.2c-17.8,0-32.2,14.5-32.2,32.2s14.5,32.2,32.2,32.2   C58.2,75.7,72.6,61.2,72.6,43.5z M40.4,74.3c-17,0-30.8-13.8-30.8-30.8s13.8-30.8,30.8-30.8c17,0,30.8,13.8,30.8,30.8   S57.4,74.3,40.4,74.3z" />
</g>
</svg>