<?xml version="1.0" encoding="utf-8"?>
<!-- Generator: Adobe Illustrator 21.0.0, SVG Export Plug-In . SVG Version: 6.00 Build 0)  -->
<svg version="1.1" id="Layer_1" xmlns="http://www.w3.org/2000/svg" xmlns:xlink="http://www.w3.org/1999/xlink" x="0px" y="0px"
	 viewBox="0 0 560 105.6" style="enable-background:new 0 0 560 105.6;" xml:space="preserve">
<style type="text/css">
	.st0{fill:#231F20;}
	.st1{fill:none;stroke:#231F20;stroke-width:1.4017;stroke-linecap:round;stroke-linejoin:round;stroke-miterlimit:10;}
	.st2{fill:#3B3A3C;}
	.st3{fill:#B8A663;}
	.st4{fill:none;stroke:#231F20;stroke-miterlimit:10;}
	.st5{fill:none;stroke:#231F20;stroke-width:0.6174;stroke-linecap:round;stroke-linejoin:round;stroke-miterlimit:10;}
	.st6{fill:none;stroke:#231F20;stroke-linecap:round;stroke-linejoin:round;stroke-miterlimit:10;}
	.st7{fill:#FFFFFF;stroke:#231F20;stroke-linecap:round;stroke-linejoin:round;stroke-miterlimit:10;}
	.st8{fill:none;stroke:#1D1D1B;stroke-miterlimit:10;}
	.st9{fill:none;stroke:#1D1D1B;stroke-linecap:round;stroke-miterlimit:10;}
	.st10{fill:#1D1D1B;}
	.st11{fill:none;stroke:#1D1D1B;stroke-linecap:round;stroke-linejoin:round;stroke-miterlimit:10;}
	.st12{fill:#FFFFFF;stroke:#1D1D1B;stroke-miterlimit:10;}
	.st13{fill:none;stroke:#231F20;stroke-width:1.8508;stroke-linecap:round;stroke-linejoin:round;stroke-miterlimit:10;}
	.st14{fill:none;stroke:#231F20;stroke-width:1.8508;stroke-miterlimit:10;}
	.st15{fill:#FFFFFF;stroke:#231F20;stroke-width:1.8508;stroke-linecap:round;stroke-linejoin:round;stroke-miterlimit:10;}
	.st16{fill:none;stroke:#1D1D1B;stroke-width:1.8508;stroke-miterlimit:10;}
	.st17{fill:#FFFFFF;}
	.st18{fill:none;stroke:#1D1D1B;stroke-width:1.8508;stroke-linecap:round;stroke-linejoin:round;stroke-miterlimit:10;}
	.st19{fill:none;stroke:#1D1D1B;stroke-width:1.8508;stroke-linecap:round;stroke-miterlimit:10;}
	.st20{fill:#FFFFFF;stroke:#1D1D1B;stroke-width:1.8508;stroke-miterlimit:10;}
	.st21{fill:#C6C6C6;}
	.st22{fill:none;stroke:#DADADA;stroke-width:3.4203;stroke-miterlimit:10;}
	.st23{fill:#822B26;}
	.st24{fill:#A8A8A8;}
	.st25{fill:#2A6780;}
	.st26{opacity:0.8;fill:#2A6780;}
	.st27{fill:none;stroke:#FFFFFF;stroke-width:0.75;stroke-linecap:round;stroke-linejoin:round;stroke-miterlimit:10;}
	.st28{fill:none;stroke:#113A47;stroke-width:1.5;stroke-miterlimit:10;}
	.st29{fill:#113A47;}
</style>
<g>
	<polygon class="st0" points="14.8,41.7 14.2,41.5 13.5,43.8 11.6,43.2 12.1,41.4 11.5,41.2 11,43 9.2,42.5 9.8,40.4 9.2,40.1 
		8.3,43.1 13.9,44.8 	"/>
	<path class="st0" d="M15.7,39.4L13.5,38c-0.8-0.5-1.5-0.9-2.1-1.2l4.5,0.8l0.3-0.7l-3.3-3.1c0.5,0.2,1.2,0.6,2.2,0.9l2.4,1l0.4-0.7
		l-5.4-2.2l-0.5,1l3.2,2.9L10.9,36l-0.5,1l5,3L15.7,39.4z"/>
	<path class="st0" d="M19.6,32.7l-1.7-1.3l0.4-0.6c0.4-0.5,0.6-1.1,0.6-1.6c0-0.5-0.2-1-0.8-1.3c-0.5-0.4-0.9-0.5-1.4-0.3
		s-0.9,0.5-1.4,1.1l-0.9,1.2l4.6,3.5L19.6,32.7z M17.4,31.1l-1.9-1.5l0.4-0.6c0.3-0.4,0.6-0.6,0.9-0.7c0.3-0.1,0.6,0,0.9,0.3
		c0.4,0.3,0.6,0.6,0.5,0.9c0,0.3-0.1,0.6-0.4,1L17.4,31.1z"/>
	<path class="st0" d="M22.3,29.3L21.6,28l1.6-1.5l1.3,0.7l0.6-0.6l-5.4-2.8L19,24.5l2.7,5.4L22.3,29.3z M19.8,24.6l2.8,1.5l-1.3,1.3
		L19.8,24.6z"/>
	<path class="st0" d="M24.4,23.4c0.4,0.5,0.8,0.9,1.2,1.1c0.4,0.2,0.9,0.4,1.3,0.3c0.4,0,0.8-0.2,1.2-0.4c0.4-0.3,0.8-0.5,1.1-0.6
		c0.3-0.1,0.7-0.1,1.1,0l0-0.9c-0.3,0-0.6,0-0.8,0.1c-0.3,0.1-0.5,0.2-0.8,0.4c0.2-0.4,0.3-0.9,0.3-1.3c0-0.5-0.3-1-0.7-1.5
		c-0.4-0.5-0.8-0.9-1.2-1.2c-0.4-0.2-0.9-0.4-1.3-0.3c-0.4,0-0.9,0.2-1.3,0.5c-0.4,0.3-0.7,0.6-0.8,1c-0.2,0.4-0.2,0.9-0.1,1.3
		C23.8,22.4,24,22.9,24.4,23.4z M25.1,20.1c0.9-0.6,1.8-0.3,2.7,1c0.9,1.3,0.9,2.2,0,2.8c-0.4,0.3-0.8,0.4-1.3,0.2
		c-0.4-0.1-0.9-0.5-1.4-1.2c-0.5-0.7-0.7-1.2-0.7-1.7C24.4,20.8,24.6,20.4,25.1,20.1z"/>
	<path class="st0" d="M32.1,21.4c0.5,0.2,1,0.1,1.6-0.1c0.4-0.2,0.7-0.4,0.9-0.7s0.3-0.6,0.3-0.9c0-0.3,0-0.7-0.2-1l-1.6-3.6
		l-0.7,0.3l1.6,3.5c0.2,0.4,0.2,0.8,0.1,1c-0.1,0.3-0.3,0.5-0.7,0.7c-0.4,0.2-0.7,0.2-1,0.1c-0.3-0.1-0.5-0.4-0.7-0.8l-1.6-3.5
		l-0.7,0.3l1.6,3.6C31.3,20.9,31.6,21.2,32.1,21.4z"/>
	<polygon class="st0" points="40.8,18.7 40.6,18.1 38.3,18.7 37.8,16.8 39.7,16.3 39.5,15.7 37.6,16.2 37.1,14.4 39.3,13.8 
		39.2,13.2 36.2,14 37.7,19.6 	"/>
	<path class="st0" d="M46.8,18l-0.1-2.5l0.9,0l1.4,2.4l1,0l-1.6-2.6c0.4-0.1,0.7-0.3,0.9-0.6c0.2-0.3,0.3-0.6,0.3-1
		c0-0.5-0.2-0.9-0.6-1.2c-0.4-0.3-0.9-0.4-1.7-0.4l-1.5,0L46,18L46.8,18z M47.4,12.8c0.5,0,0.8,0.1,1,0.2c0.2,0.2,0.3,0.4,0.3,0.8
		c0,0.4-0.1,0.7-0.3,0.8c-0.2,0.2-0.5,0.3-0.9,0.3l-0.8,0l-0.1-2.1L47.4,12.8z"/>
	<polygon class="st0" points="55.1,17.8 52.7,17.5 53,15.5 54.9,15.8 55,15.2 53.1,14.9 53.3,13 55.5,13.3 55.7,12.7 52.6,12.3 
		51.8,18 55,18.5 	"/>
	<path class="st0" d="M57.8,18.9c0.3,0.3,0.7,0.6,1.1,0.7c0.4,0.1,0.7,0.1,1,0.1c0.3,0,0.6-0.1,0.8-0.3l-0.2-0.6
		c-0.2,0.1-0.5,0.1-0.7,0.2c-0.2,0-0.4,0-0.7-0.1c-0.5-0.1-0.8-0.4-1-0.9c-0.2-0.4-0.2-1,0.1-1.8c0.2-0.8,0.5-1.3,0.9-1.6
		s0.8-0.3,1.3-0.2c0.4,0.1,0.7,0.3,1,0.7l0.6-0.4c-0.2-0.3-0.4-0.5-0.6-0.6c-0.2-0.2-0.5-0.3-0.8-0.4c-0.4-0.1-0.9-0.1-1.3,0
		c-0.4,0.1-0.8,0.4-1.1,0.7c-0.3,0.4-0.6,0.9-0.8,1.5c-0.2,0.6-0.2,1.2-0.2,1.6C57.3,18.1,57.5,18.5,57.8,18.9z"/>
	<rect x="60.8" y="17.7" transform="matrix(0.3922 -0.9199 0.9199 0.3922 22.0795 69.6504)" class="st0" width="5.8" height="0.8"/>
	<path class="st0" d="M67,23.1c0.3,0.2,0.6,0.3,0.9,0.3c0.3,0,0.6,0,0.8-0.1l-0.1-0.6c-0.3,0-0.5,0-0.7,0c-0.2,0-0.4-0.1-0.6-0.2
		c-0.4-0.2-0.7-0.6-0.7-1.1c-0.1-0.5,0.1-1.1,0.5-1.7c0.4-0.7,0.8-1.1,1.3-1.3c0.4-0.2,0.9-0.1,1.3,0.1c0.3,0.2,0.6,0.5,0.8,0.9
		l0.6-0.2c-0.1-0.3-0.2-0.5-0.4-0.7c-0.2-0.2-0.4-0.4-0.7-0.6c-0.4-0.2-0.8-0.3-1.2-0.3c-0.4,0-0.9,0.2-1.3,0.4
		c-0.4,0.3-0.8,0.7-1.1,1.2s-0.5,1.1-0.6,1.6c-0.1,0.5,0,0.9,0.2,1.3C66.3,22.6,66.6,22.9,67,23.1z"/>
	<polygon class="st0" points="72.3,26.9 72.8,26.4 71,24.9 74.2,20.9 73.5,20.4 69.9,24.9 	"/>
	<path class="st0" d="M73.7,28.2l1.4-0.7l1.5,1.6l-0.8,1.3l0.6,0.6l3-5.3L78.7,25l-5.5,2.6L73.7,28.2z M78.5,25.8l-1.6,2.7l-1.2-1.3
		L78.5,25.8z"/>
	<path class="st0" d="M78.3,33.8c0.9,1.3,1.7,1.6,2.6,1c0.4-0.2,0.6-0.5,0.6-0.9c0-0.3,0-0.7-0.2-1c0.2,0.2,0.5,0.4,0.8,0.4
		c0.3,0.1,0.6,0,0.9-0.2c0.4-0.3,0.6-0.6,0.6-1.1c0-0.5-0.2-1-0.6-1.6l-0.8-1.1l-4.8,3.2L78.3,33.8z M82.1,30.2l0.4,0.5
		c0.3,0.4,0.4,0.7,0.4,1c0,0.3-0.1,0.5-0.4,0.7c-0.2,0.2-0.5,0.2-0.8,0.1c-0.3-0.1-0.5-0.3-0.7-0.6l-0.5-0.7L82.1,30.2z M80.1,31.6
		l0.5,0.8c0.2,0.3,0.3,0.6,0.3,0.9s-0.2,0.5-0.5,0.8c-0.3,0.2-0.6,0.3-0.9,0.1c-0.3-0.1-0.5-0.4-0.8-0.8l-0.4-0.7L80.1,31.6z"/>
	<polygon class="st0" points="81.8,40.3 82.5,40.1 81.5,37.9 86.1,35.7 85.8,35 80.5,37.5 	"/>
	<polygon class="st0" points="83.4,45.1 84,44.9 83.3,42.6 85.2,42.1 85.8,43.9 86.4,43.7 85.8,41.9 87.6,41.3 88.3,43.5 88.9,43.4 
		88,40.4 82.5,42.1 	"/>
	<polygon class="st0" points="11.4,65.3 12,67.1 12.6,67 12,65.1 13.8,64.5 14.5,66.6 15.2,66.5 14.2,63.5 8.7,65.4 9.7,68.4 
		10.3,68.2 9.5,65.9 	"/>
	<path class="st0" d="M17.6,71.6l-4.3,1l3.1-3.1L16,68.5l-5.3,2.3l0.4,0.7l2.3-1c0.8-0.4,1.6-0.7,2.2-1l-3.2,3.2l0.4,0.7l4.4-0.9
		c-0.5,0.3-1.2,0.7-2,1.2L12.8,75l0.4,0.7l4.9-3.2L17.6,71.6z"/>
	<path class="st0" d="M20.4,78.7c0.5-0.4,0.7-0.8,0.7-1.3c0-0.5-0.2-1-0.7-1.6l-0.9-1.2L15,78.2l0.5,0.6l1.7-1.3l0.5,0.6
		c0.4,0.5,0.9,0.9,1.4,1C19.4,79.2,19.9,79,20.4,78.7z M18,77.6l-0.4-0.5l1.9-1.5l0.4,0.6c0.3,0.4,0.4,0.7,0.4,1
		c0,0.3-0.2,0.6-0.5,0.8c-0.4,0.3-0.7,0.4-1,0.3C18.6,78.2,18.3,78,18,77.6z"/>
	<path class="st0" d="M23.5,79.2l-5.3,2.9l0.6,0.6l1.3-0.7l1.6,1.5L21,84.8l0.6,0.6l2.7-5.5L23.5,79.2z M22,82.8l-1.3-1.2l2.7-1.6
		L22,82.8z"/>
	<path class="st0" d="M28.5,83.2c-0.4-0.3-0.8-0.4-1.3-0.4c-0.4,0-0.9,0.1-1.3,0.4c-0.4,0.3-0.8,0.6-1.2,1.2c-0.4,0.5-0.6,1-0.7,1.5
		c-0.1,0.5,0,0.9,0.1,1.3c0.2,0.4,0.5,0.7,0.9,1c0.4,0.3,0.7,0.6,0.9,0.8c0.2,0.3,0.3,0.6,0.4,1l0.8-0.3c-0.1-0.3-0.2-0.5-0.4-0.7
		c-0.2-0.2-0.4-0.4-0.6-0.6c0.5,0.1,0.9,0,1.4-0.2c0.4-0.2,0.8-0.6,1.2-1.1c0.4-0.5,0.6-1,0.7-1.5c0.1-0.5,0-0.9-0.1-1.3
		C29.2,83.8,28.9,83.4,28.5,83.2z M28.1,86.5c-0.9,1.3-1.8,1.6-2.6,1c-0.4-0.3-0.6-0.7-0.6-1.1c0-0.5,0.2-1,0.6-1.7
		c0.5-0.7,0.9-1.1,1.4-1.2c0.4-0.2,0.9-0.1,1.3,0.2C29,84.3,29,85.3,28.1,86.5z"/>
	<path class="st0" d="M33.4,90.4c-0.2,0.4-0.4,0.7-0.7,0.8c-0.3,0.1-0.6,0.1-1-0.1c-0.4-0.2-0.6-0.4-0.7-0.7c-0.1-0.3,0-0.6,0.1-1
		l1.6-3.5l-0.7-0.3l-1.6,3.6c-0.2,0.5-0.3,1-0.1,1.5c0.2,0.5,0.6,0.8,1.1,1.1c0.4,0.2,0.8,0.2,1.1,0.2c0.3,0,0.7-0.1,0.9-0.3
		c0.3-0.2,0.5-0.5,0.6-0.8l1.6-3.6L35,86.8L33.4,90.4z"/>
	<polygon class="st0" points="36.4,93.5 39.5,94.3 39.7,93.7 37.3,93.1 37.9,91.1 39.7,91.7 39.9,91 38,90.5 38.5,88.7 40.7,89.3 
		40.9,88.7 37.9,87.9 	"/>
	<path class="st0" d="M49.4,92.1c0.2-0.2,0.3-0.6,0.3-1c0-0.5-0.2-1-0.5-1.2c-0.4-0.3-0.9-0.4-1.6-0.5l-1.5,0l-0.1,5.8l0.8,0
		l0.1-2.5l0.9,0l1.3,2.5l1,0l-1.5-2.6C48.8,92.5,49.1,92.4,49.4,92.1z M47.5,92.2l-0.8,0l0.1-2.1l0.7,0c0.5,0,0.8,0.1,1,0.3
		c0.2,0.2,0.3,0.4,0.3,0.8c0,0.4-0.1,0.7-0.3,0.8C48.3,92.1,48,92.2,47.5,92.2z"/>
	<polygon class="st0" points="53.2,94.4 52.9,92.4 54.9,92.2 54.8,91.5 52.8,91.8 52.6,89.9 54.8,89.6 54.8,89 51.7,89.4 52.5,95.1 
		55.6,94.7 55.6,94.1 	"/>
	<path class="st0" d="M60.8,92.7c-0.2,0.1-0.4,0.2-0.6,0.3c-0.5,0.1-0.9,0.1-1.3-0.2c-0.4-0.3-0.7-0.8-0.9-1.6
		c-0.2-0.8-0.2-1.4-0.1-1.8c0.2-0.4,0.5-0.7,1-0.8c0.4-0.1,0.8-0.1,1.2,0.1l0.3-0.6c-0.3-0.1-0.6-0.2-0.8-0.2c-0.3,0-0.5,0-0.9,0.1
		c-0.4,0.1-0.8,0.3-1.1,0.7c-0.3,0.3-0.5,0.7-0.6,1.2c-0.1,0.5,0,1,0.1,1.7c0.2,0.6,0.4,1.1,0.7,1.5c0.3,0.4,0.7,0.6,1.1,0.8
		c0.4,0.1,0.9,0.1,1.3,0c0.4-0.1,0.6-0.2,0.9-0.4c0.2-0.2,0.4-0.4,0.5-0.6l-0.5-0.4C61.1,92.4,60.9,92.6,60.8,92.7z"/>
	<rect x="63" y="86.5" transform="matrix(0.9228 -0.3853 0.3853 0.9228 -29.5475 31.3489)" class="st0" width="0.8" height="5.8"/>
	<path class="st0" d="M69.8,88.6c-0.1,0.2-0.3,0.3-0.5,0.4c-0.4,0.2-0.8,0.3-1.3,0.1c-0.4-0.2-0.9-0.6-1.3-1.3
		c-0.4-0.7-0.6-1.3-0.5-1.8c0.1-0.5,0.3-0.8,0.7-1.1c0.3-0.2,0.7-0.3,1.2-0.2l0.1-0.7c-0.3-0.1-0.6-0.1-0.8,0
		c-0.3,0-0.5,0.1-0.8,0.3c-0.4,0.2-0.7,0.5-0.9,0.9c-0.2,0.4-0.3,0.8-0.2,1.3c0,0.5,0.2,1,0.5,1.6c0.3,0.6,0.7,1,1.1,1.3
		s0.8,0.4,1.3,0.5c0.4,0,0.9-0.1,1.3-0.3c0.3-0.2,0.6-0.4,0.7-0.6c0.2-0.2,0.3-0.5,0.4-0.7l-0.6-0.2C70,88.3,69.9,88.5,69.8,88.6z"
		/>
	<polygon class="st0" points="73.3,86.2 70.1,82.2 69.5,82.7 73.1,87.3 75.5,85.4 75.1,84.8 	"/>
	<path class="st0" d="M74,78.8l2.9,5.4l0.6-0.6l-0.7-1.3l1.5-1.6l1.4,0.7l0.6-0.6l-5.5-2.7L74,78.8z M77.6,80.4l-1.3,1.3l-1.6-2.8
		L77.6,80.4z"/>
	<path class="st0" d="M82.5,74.7c-0.4-0.3-0.7-0.3-1-0.3c-0.3,0.1-0.6,0.3-0.9,0.6c0.1-0.3,0.2-0.6,0.1-0.9
		c-0.1-0.3-0.2-0.5-0.5-0.7c-0.4-0.3-0.8-0.3-1.2-0.2c-0.4,0.2-0.8,0.6-1.3,1.2l-0.8,1.1l4.8,3.3l0.9-1.3
		C83.5,76.3,83.4,75.4,82.5,74.7z M79.4,76.3l-1.5-1l0.4-0.5c0.3-0.4,0.5-0.6,0.7-0.7c0.2-0.1,0.5-0.1,0.8,0.1
		c0.2,0.2,0.4,0.4,0.4,0.7c0,0.3-0.1,0.5-0.3,0.8L79.4,76.3z M82.1,77.2l-0.5,0.7l-1.7-1.2l0.5-0.8c0.2-0.3,0.5-0.5,0.7-0.6
		c0.3-0.1,0.6,0,0.9,0.2c0.3,0.2,0.5,0.5,0.4,0.8C82.5,76.5,82.3,76.8,82.1,77.2z"/>
	<polygon class="st0" points="85,72.2 80.4,70 80.1,70.7 85.2,73.3 86.6,70.5 86,70.1 	"/>
	<polygon class="st0" points="87.2,67.1 85.3,66.5 86,64.6 85.3,64.4 84.7,66.3 82.9,65.7 83.6,63.5 83.1,63.2 82.1,66.2 87.6,68 
		88.6,65 88,64.8 	"/>
	<circle class="st0" cx="10.1" cy="53.5" r="1.7"/>
	<circle class="st0" cx="87.7" cy="53.5" r="1.7"/>
	<path class="st0" d="M48.6,33.9c-8,0-16.1,1.6-16.1,4.5v3.8c0,0,0,0,0,0c0,0,0,0,0,0v26.4c0,3.3,9.7,4.5,16.2,4.5
		s16.2-1.2,16.2-4.5V38.4C64.7,35.4,56.6,33.9,48.6,33.9z M63.3,42.2c0,1.1-5.2,3.1-14.8,3.1c-9.5,0-14.7-2-14.8-3.1v-1.8
		c2.7,1.7,8.9,2.5,14.7,2.5c5.9,0,12.1-0.8,14.8-2.5V42.2z M48.6,71.7c-9.6,0-14.8-2.1-14.8-3.1V44.2c2.9,1.8,9.8,2.6,14.8,2.6
		c5,0,11.9-0.7,14.8-2.6v24.4C63.3,69.6,58.1,71.7,48.6,71.7z"/>
	<path class="st0" d="M53.9,58.7c-0.2-0.3-0.6-0.5-1-0.3c-0.3,0.2-0.5,0.6-0.3,1l2.9,5.1h-2.2V63l-3.6,2.1l3.6,2.1v-1.4h3.4
		c0.3,0,0.5-0.1,0.6-0.4c0.1-0.2,0.1-0.5,0-0.7L53.9,58.7z"/>
	<path class="st0" d="M47.3,64.4h-5.8l1.1-1.9l1.2,0.7V59l-3.6,2.1l1.2,0.7l-1.7,3c-0.1,0.2-0.1,0.5,0,0.7c0.1,0.2,0.4,0.4,0.6,0.4
		h7.1c0.4,0,0.7-0.3,0.7-0.7S47.7,64.4,47.3,64.4z"/>
	<path class="st0" d="M52,52.5l-1.2,0.7l-1.6-2.8c-0.1-0.2-0.4-0.4-0.6-0.4s-0.5,0.1-0.6,0.4l-3.5,6c-0.2,0.3-0.1,0.8,0.3,1
		c0.1,0.1,0.2,0.1,0.4,0.1c0.2,0,0.5-0.1,0.6-0.4l2.9-4.9l1,1.8l-1.2,0.7l3.6,2.1L52,52.5z"/>
	<path class="st0" d="M48.6,21.5c-17.8,0-32.2,14.5-32.2,32.2S30.8,86,48.6,86c17.8,0,32.2-14.5,32.2-32.2S66.3,21.5,48.6,21.5z
		 M48.6,84.6c-17,0-30.8-13.8-30.8-30.8s13.8-30.8,30.8-30.8c17,0,30.8,13.8,30.8,30.8S65.6,84.6,48.6,84.6z"/>
	<circle class="st0" cx="316.8" cy="53.5" r="1.7"/>
	<polygon class="st0" points="316,42.2 320.9,43.7 321.1,42.9 316.2,41.4 316.7,39.9 316.1,39.6 314.9,43.6 315.5,43.8 	"/>
	<polygon class="st0" points="323.6,36.9 323,36.7 322,38.8 320.2,38 321,36.2 320.4,36 319.6,37.7 317.9,36.9 318.9,34.9 
		318.3,34.5 317,37.4 322.2,39.8 	"/>
	<path class="st0" d="M321.9,34.1c0.5,0.3,1,0.6,1.5,0.6c0.5,0.1,0.9,0,1.3-0.2c0.4-0.2,0.7-0.5,1-0.9c0.2-0.3,0.3-0.6,0.4-0.9
		c0.1-0.3,0-0.6,0-0.8l-0.6,0.1c0,0.3,0,0.5,0,0.7c0,0.2-0.1,0.4-0.3,0.6c-0.3,0.4-0.6,0.6-1.1,0.7c-0.5,0-1-0.2-1.7-0.6
		c-0.7-0.5-1.1-0.9-1.2-1.3c-0.1-0.5-0.1-0.9,0.2-1.3c0.2-0.3,0.5-0.6,1-0.7l-0.2-0.6c-0.3,0.1-0.6,0.2-0.8,0.4
		c-0.2,0.1-0.4,0.4-0.6,0.7c-0.2,0.4-0.4,0.8-0.4,1.2c0,0.4,0.1,0.9,0.4,1.3C321,33.3,321.3,33.7,321.9,34.1z"/>
	<path class="st0" d="M328.1,30.4l-2-1.8c-0.3-0.3-0.6-0.6-0.9-0.8c-0.3-0.2-0.5-0.4-0.8-0.7l5.2,1.6l0.7-0.8l-4.3-3.9l-0.5,0.6
		l2.3,2.1c0.2,0.2,0.5,0.4,0.8,0.6c0.3,0.2,0.5,0.4,0.6,0.5l-5.2-1.6l-0.7,0.8l4.3,3.9L328.1,30.4z"/>
	<path class="st0" d="M329.9,24.4c0.4,0.5,0.8,0.9,1.2,1.1c0.4,0.2,0.9,0.3,1.3,0.3c0.4,0,0.8-0.2,1.2-0.5c0.4-0.3,0.7-0.6,0.8-1.1
		c0.2-0.4,0.2-0.9,0.1-1.3c-0.1-0.5-0.4-1-0.7-1.5c-0.4-0.5-0.8-0.9-1.2-1.1c-0.4-0.2-0.9-0.3-1.3-0.3s-0.8,0.2-1.2,0.5
		c-0.4,0.3-0.7,0.6-0.8,1.1c-0.2,0.4-0.2,0.9-0.1,1.3C329.3,23.4,329.6,23.9,329.9,24.4z M330.5,21c0.8-0.6,1.7-0.3,2.7,0.9
		c0.9,1.2,1,2.2,0.1,2.8c-0.4,0.3-0.8,0.4-1.3,0.3c-0.5-0.1-0.9-0.5-1.4-1.1c-0.5-0.6-0.7-1.2-0.7-1.7
		C329.9,21.7,330.1,21.3,330.5,21z"/>
	<polygon class="st0" points="340,21.3 339.8,20.6 337.7,21.7 335.3,17.3 334.6,17.6 337.3,22.7 	"/>
	<path class="st0" d="M340.7,19.6c0.3,0.4,0.7,0.6,1.2,0.7c0.4,0.1,0.9,0.1,1.3-0.1c0.5-0.2,0.8-0.4,1.1-0.8
		c0.3-0.3,0.4-0.8,0.5-1.3c0-0.5,0-1-0.3-1.6c-0.2-0.6-0.5-1.1-0.8-1.4c-0.3-0.4-0.7-0.6-1.2-0.7c-0.4-0.1-0.9-0.1-1.3,0.1
		c-0.5,0.2-0.8,0.4-1.1,0.8c-0.3,0.4-0.4,0.8-0.5,1.3c0,0.5,0,1,0.3,1.6C340.1,18.7,340.4,19.2,340.7,19.6z M340.5,16
		c0.1-0.5,0.4-0.8,0.9-0.9c1-0.4,1.8,0.2,2.3,1.7c0.5,1.5,0.3,2.4-0.7,2.7c-0.5,0.2-0.9,0.1-1.3-0.1c-0.4-0.3-0.7-0.8-1-1.5
		C340.4,17.1,340.4,16.5,340.5,16z"/>
	<path class="st0" d="M347.5,18.1c0.5,0.4,1.1,0.6,1.9,0.5c0.7-0.1,1.2-0.4,1.8-0.8l-0.5-2.8l-1.9,0.3l0.2,0.6l1-0.2l0.3,1.7
		c-0.3,0.2-0.6,0.4-1,0.4c-0.5,0.1-0.9,0-1.3-0.4c-0.3-0.3-0.6-0.9-0.7-1.7c-0.1-0.5-0.1-1,0-1.4c0.1-0.4,0.3-0.7,0.5-0.9
		c0.2-0.2,0.5-0.3,0.8-0.4c0.3,0,0.5,0,0.7,0c0.2,0,0.4,0.1,0.7,0.3l0.4-0.6c-0.3-0.2-0.6-0.3-0.9-0.3c-0.3-0.1-0.6-0.1-1,0
		c-0.4,0.1-0.8,0.3-1.2,0.6c-0.3,0.3-0.6,0.7-0.7,1.2c-0.1,0.5-0.2,1-0.1,1.7C346.7,16.9,347,17.6,347.5,18.1z"/>
	
		<rect x="353.1" y="12.2" transform="matrix(0.999 -4.454805e-02 4.454805e-02 0.999 -0.3202 15.7643)" class="st0" width="0.8" height="5.8"/>
	<polygon class="st0" points="354.4,10.9 354,10.3 352.4,11.3 352.6,11.7 	"/>
	<path class="st0" d="M357,16.5l2.2,0.2l0.3,1.5l0.8,0.1l-1.4-5.9l-1-0.1l-2.3,5.6l0.8,0.1L357,16.5z M358.3,12.9L359,16l-1.8-0.1
		L358.3,12.9z"/>
	<path class="st0" d="M365.6,17.9l2.1,0.7l0,1.5l0.8,0.3l0-6.1l-1-0.3l-3.5,5l0.8,0.2L365.6,17.9z M367.7,14.7l-0.1,3.2l-1.7-0.6
		L367.7,14.7z"/>
	<polygon class="st0" points="373,21.8 370.9,20.7 373.1,16.1 372.4,15.8 369.9,21 372.6,22.4 	"/>
	<polygon class="st0" points="377.1,24.5 375.2,23.2 376.3,21.5 377.9,22.6 378.2,22.1 376.6,21 377.7,19.4 379.5,20.7 380,20.2 
		377.4,18.5 374.1,23.3 376.8,25 	"/>
	<path class="st0" d="M378.6,26.5l1.9-1.7c0.7-0.6,1.3-1.2,1.8-1.7l-2,4l0.5,0.5l3.9-2.3c-0.4,0.4-0.9,1-1.5,1.8l-1.7,2l0.6,0.5
		l3.7-4.5l-0.8-0.8l-3.8,2.2l2-3.9l-0.8-0.7l-4.4,3.9L378.6,26.5z"/>
	<path class="st0" d="M383.2,31.3l1.4-0.5l1.3,1.8l-0.9,1.2l0.5,0.7l3.6-4.9l-0.6-0.8l-5.8,1.9L383.2,31.3z M388.3,29.5l-1.9,2.5
		l-1.1-1.5L388.3,29.5z"/>
	<path class="st0" d="M386.7,36.5l2.4-1.2c0.4-0.2,0.8-0.4,1-0.6c0.3-0.2,0.6-0.4,0.9-0.6l-3.3,4.3l0.5,1l5.2-2.6l-0.3-0.7l-2.8,1.4
		c-0.3,0.1-0.6,0.3-0.9,0.5c-0.3,0.2-0.5,0.3-0.7,0.4l3.3-4.3l-0.5-0.9l-5.2,2.6L386.7,36.5z"/>
	<path class="st0" d="M389,41.6l1.5,0l0.7,2.1l-1.3,0.9l0.3,0.8l5-3.5l-0.3-1l-6.1,0L389,41.6z M394.4,41.5l-2.6,1.8l-0.5-1.7
		L394.4,41.5z"/>
	<polygon class="st0" points="321.3,67.1 322,67 320.7,63 320.1,63.3 320.6,64.8 315.7,66.4 316,67.2 320.8,65.6 	"/>
	<polygon class="st0" points="321,72.2 321.6,71.9 320.7,70.1 322.4,69.3 323.4,71.3 324,71.1 322.6,68.3 317.4,70.9 318.8,73.7 
		319.4,73.5 318.3,71.3 320.1,70.4 	"/>
	<path class="st0" d="M321.8,77.3c-0.3-0.4-0.3-0.8-0.2-1.3c0.1-0.5,0.5-0.9,1.2-1.4c0.7-0.5,1.2-0.7,1.7-0.6c0.5,0,0.8,0.2,1.1,0.6
		c0.2,0.3,0.3,0.7,0.3,1.2l0.7,0.1c0-0.3,0-0.6-0.1-0.8c-0.1-0.2-0.2-0.5-0.4-0.8c-0.3-0.4-0.6-0.6-1-0.8c-0.4-0.2-0.8-0.2-1.3-0.1
		c-0.5,0.1-1,0.3-1.5,0.7c-0.5,0.4-0.9,0.8-1.2,1.2c-0.3,0.4-0.4,0.9-0.4,1.3c0,0.4,0.2,0.8,0.4,1.2c0.2,0.3,0.4,0.5,0.7,0.7
		c0.3,0.2,0.5,0.3,0.8,0.3l0.2-0.6c-0.2-0.1-0.5-0.2-0.6-0.3C322.1,77.7,322,77.5,321.8,77.3z"/>
	<path class="st0" d="M330.3,79.3l-2.3,2.2c-0.2,0.2-0.5,0.4-0.7,0.7c-0.2,0.3-0.4,0.5-0.5,0.6l1.9-5.1l-0.7-0.8l-4.2,4l0.5,0.5
		l1.9-1.8c0.3-0.3,0.6-0.6,0.8-0.8c0.2-0.2,0.5-0.5,0.7-0.8l-1.9,5.1l0.7,0.8l4.2-4L330.3,79.3z"/>
	<path class="st0" d="M334.9,83.4c-0.2-0.4-0.4-0.8-0.8-1c-0.4-0.3-0.8-0.4-1.2-0.5s-0.9,0.1-1.3,0.3c-0.4,0.2-0.8,0.6-1.2,1.1
		c-0.4,0.5-0.6,1-0.7,1.5c-0.1,0.5-0.1,0.9,0.1,1.3c0.2,0.4,0.4,0.8,0.8,1c0.4,0.3,0.8,0.5,1.2,0.5c0.4,0,0.9-0.1,1.3-0.3
		c0.4-0.2,0.8-0.6,1.2-1.1c0.4-0.5,0.6-1,0.7-1.5C335.1,84.3,335.1,83.8,334.9,83.4z M333.6,85.7c-0.9,1.3-1.8,1.6-2.7,0.9
		c-0.4-0.3-0.6-0.7-0.6-1.2c0-0.5,0.2-1,0.7-1.7c0.5-0.6,0.9-1,1.4-1.2c0.5-0.1,0.9-0.1,1.3,0.2C334.6,83.5,334.5,84.5,333.6,85.7z"
		/>
	<polygon class="st0" points="337.6,84.8 334.9,90 337.7,91.4 338.1,90.8 336,89.7 338.3,85.2 	"/>
	<path class="st0" d="M343.5,87.4c-0.5-0.2-0.9-0.2-1.3-0.1c-0.4,0.1-0.8,0.3-1.2,0.7c-0.3,0.4-0.6,0.8-0.8,1.4
		c-0.2,0.6-0.3,1.1-0.2,1.6c0,0.5,0.2,0.9,0.5,1.2c0.3,0.3,0.6,0.6,1.1,0.8c0.5,0.2,0.9,0.2,1.3,0.1c0.4-0.1,0.8-0.3,1.1-0.7
		c0.3-0.4,0.6-0.8,0.8-1.4c0.2-0.6,0.3-1.2,0.3-1.6c0-0.5-0.2-0.9-0.5-1.2C344.3,87.8,344,87.5,343.5,87.4z M344,90.7
		c-0.5,1.5-1.3,2-2.3,1.7c-0.5-0.2-0.8-0.5-0.9-0.9c-0.1-0.4-0.1-1,0.2-1.8c0.3-0.8,0.6-1.3,1-1.5c0.4-0.3,0.8-0.3,1.3-0.2
		C344.3,88.3,344.5,89.3,344,90.7z"/>
	<path class="st0" d="M347.9,90.3c0.2-0.3,0.5-0.5,0.7-0.7c0.3-0.1,0.6-0.1,0.8-0.1c0.3,0,0.5,0.1,0.6,0.2c0.2,0.1,0.4,0.3,0.5,0.5
		l0.5-0.4c-0.2-0.3-0.5-0.5-0.7-0.6c-0.2-0.1-0.5-0.3-0.9-0.3c-0.4-0.1-0.9,0-1.3,0.1c-0.4,0.2-0.8,0.5-1.1,0.9
		c-0.3,0.4-0.5,0.9-0.6,1.5c-0.2,1-0.1,1.7,0.3,2.3c0.3,0.6,0.9,0.9,1.6,1.1c0.7,0.1,1.3,0,2-0.2l0.5-2.8l-1.9-0.3l0,0.7l1,0.2
		l-0.3,1.7c-0.3,0.1-0.7,0.1-1.1,0.1c-0.5-0.1-0.9-0.3-1.1-0.8c-0.2-0.4-0.2-1-0.1-1.8C347.6,91.1,347.7,90.6,347.9,90.3z"/>
	
		<rect x="350.7" y="91.9" transform="matrix(4.286360e-02 -0.9991 0.9991 4.286360e-02 246.1691 441.6053)" class="st0" width="5.8" height="0.8"/>
	<polygon class="st0" points="352.7,88.4 352.9,88.8 354.7,88.3 354.4,87.6 	"/>
	<path class="st0" d="M357.4,89.4l-1.4,5.9l0.8-0.1l0.3-1.5l2.2-0.2l0.5,1.4l0.8-0.1l-2.3-5.6L357.4,89.4z M357.3,93.1L358,90l1.1,3
		L357.3,93.1z"/>
	<path class="st0" d="M365.5,88l0,6.1l0.8-0.2l0-1.5l2.1-0.7l0.9,1.3l0.8-0.3l-3.5-5L365.5,88z M366.2,91.6l0-3.2l1.8,2.6
		L366.2,91.6z"/>
	<polygon class="st0" points="372.5,90.8 370.3,86.2 369.5,86.5 372,91.8 374.8,90.4 374.6,89.8 	"/>
	<polygon class="st0" points="377.2,88.2 376.1,86.6 377.8,85.5 377.4,85 375.8,86.1 374.7,84.5 376.6,83.2 376.3,82.7 373.7,84.4 
		376.9,89.2 379.6,87.5 379.2,86.9 	"/>
	<path class="st0" d="M380.5,79.1l2,3.9l-3.8-2.3l-0.8,0.7l3.6,4.6l0.6-0.5l-1.6-2c-0.6-0.7-1.1-1.3-1.6-1.9l3.9,2.3l0.5-0.5l-2-4
		c0.4,0.4,1,0.9,1.7,1.6l1.9,1.8l0.6-0.5l-4.3-3.9L380.5,79.1z"/>
	<path class="st0" d="M383.4,75.8l3.5,5l0.5-0.6l-0.9-1.2l1.3-1.7l1.4,0.5l0.5-0.7l-5.7-2L383.4,75.8z M387.2,76.9l-1.1,1.4
		l-1.9-2.6L387.2,76.9z"/>
	<path class="st0" d="M387.4,69.3l2.8,1.5c0.3,0.1,0.6,0.3,0.9,0.4c0.3,0.1,0.6,0.2,0.7,0.3l-5.5-0.2l-0.5,0.9L391,75l0.4-0.7
		l-2.3-1.2c-0.4-0.2-0.8-0.4-1.1-0.5c-0.3-0.1-0.6-0.3-1-0.4l5.4,0.2l0.5-0.9l-5.1-2.7L387.4,69.3z"/>
	<path class="st0" d="M389,65.7l4.9,3.6l0.3-0.8l-1.2-0.9l0.7-2.1l1.5,0.1l0.3-0.8l-6.1-0.1L389,65.7z M392.9,65.5l-0.6,1.7
		l-2.6-1.8L392.9,65.5z"/>
	<circle class="st0" cx="394.4" cy="53.5" r="1.7"/>
	<path class="st0" d="M374.2,40.4c-0.4,0-0.7,0.3-0.7,0.7c0,2.2-1.8,4-4,4h-8.8v-7c0-2.4-2-4.4-4.4-4.4h-0.8c-1.9,0-3.6,1.4-3.9,3.3
		h-0.6c-1.5,0-2.6,1.2-2.6,2.6c0,0.2,0.1,0.5,0.3,0.6c0.2,0.1,0.4,0.2,0.7,0.1c0.5-0.2,1.1-0.3,1.6-0.3c0.3,0,0.5,0.2,0.5,0.5
		c0,1.2-0.2,2.3-0.7,3.4c-0.2,0.4-0.3,0.8-0.4,1.3h-9.1c-2.2,0-4-1.8-4-4c0-0.4-0.3-0.7-0.7-0.7c-0.4,0-0.7,0.3-0.7,0.7v26.9
		c0,0.4,0.3,0.7,0.7,0.7c0.4,0,0.7-0.3,0.7-0.7V44.8c0.3,0.3,0.6,0.6,1,0.9v20.3c0,0.4,0.3,0.7,0.7,0.7c0.4,0,0.7-0.3,0.7-0.7V46.3
		c0.3,0.1,0.6,0.2,1,0.2v17.2c0,0.4,0.3,0.7,0.7,0.7s0.7-0.3,0.7-0.7V46.5h1v15c0,0.4,0.3,0.7,0.7,0.7s0.7-0.3,0.7-0.7v-15h1v12.8
		c0,0.4,0.3,0.7,0.7,0.7c0.4,0,0.7-0.3,0.7-0.7V46.5h1v10.6c0,0.4,0.3,0.7,0.7,0.7c0.4,0,0.7-0.3,0.7-0.7V46.5h0.9
		c0,0.4-0.1,0.8,0,1.1l0,12l-6,9h-2.7c-0.4,0-0.7,0.3-0.7,0.7s0.3,0.7,0.7,0.7h2.5v2.4c0,0.4,0.3,0.7,0.7,0.7c0.4,0,0.7-0.3,0.7-0.7
		v-3l4.9-7.3l0,8.7c0,0.3,0.1,0.5,0.4,0.6c0.2,0.1,0.5,0.1,0.7,0l4.4-2.8l4.4,2.8c0.1,0.1,0.2,0.1,0.4,0.1c0.1,0,0.2,0,0.3-0.1
		c0.2-0.1,0.4-0.4,0.4-0.6v-8.7l4.8,7.3v3c0,0.4,0.3,0.7,0.7,0.7c0.4,0,0.7-0.3,0.7-0.7v-2.4h2.5c0.4,0,0.7-0.3,0.7-0.7
		s-0.3-0.7-0.7-0.7h-2.7l-6-8.9l-0.1-13.2h0.9v10.6c0,0.4,0.3,0.7,0.7,0.7s0.7-0.3,0.7-0.7V46.5h1v12.8c0,0.4,0.3,0.7,0.7,0.7
		c0.4,0,0.7-0.3,0.7-0.7V46.5h1v15c0,0.4,0.3,0.7,0.7,0.7s0.7-0.3,0.7-0.7v-15h1v17.2c0,0.4,0.3,0.7,0.7,0.7c0.4,0,0.7-0.3,0.7-0.7
		V46.5c0.3,0,0.7-0.1,1-0.2v19.6c0,0.4,0.3,0.7,0.7,0.7s0.7-0.3,0.7-0.7V45.6c0.4-0.2,0.7-0.5,1-0.9v23.3c0,0.4,0.3,0.7,0.7,0.7
		c0.4,0,0.7-0.3,0.7-0.7V41.1C374.9,40.8,374.6,40.4,374.2,40.4z"/>
	<path class="st0" d="M387.5,53.7c0-17.8-14.5-32.2-32.2-32.2C337.5,21.5,323,36,323,53.7S337.5,86,355.3,86
		C373.1,86,387.5,71.5,387.5,53.7z M355.3,84.6c-17,0-30.8-13.8-30.8-30.8s13.8-30.8,30.8-30.8c17,0,30.8,13.8,30.8,30.8
		S372.3,84.6,355.3,84.6z"/>
	<path class="st0" d="M167.4,44.3l-2-0.6l0.2-0.7c0.2-0.7,0.2-1.2,0-1.7c-0.2-0.5-0.6-0.8-1.2-1c-0.6-0.2-1.1-0.1-1.5,0.2
		c-0.4,0.3-0.7,0.8-0.9,1.5l-0.4,1.5l5.6,1.7L167.4,44.3z M164.9,42.8l-0.2,0.7l-2.3-0.7l0.2-0.7c0.1-0.4,0.3-0.7,0.6-0.9
		c0.2-0.2,0.6-0.2,1-0.1c0.4,0.1,0.7,0.3,0.8,0.6C165.1,42,165.1,42.4,164.9,42.8z"/>
	<path class="st0" d="M169.2,39.1l-2.2-1.1l0.4-0.8l2.8-0.2l0.4-0.9l-3,0.3c0.1-0.4,0-0.8-0.1-1.1c-0.1-0.3-0.4-0.5-0.8-0.7
		c-0.5-0.2-0.9-0.2-1.3,0c-0.4,0.2-0.8,0.7-1.1,1.3l-0.7,1.4l5.2,2.5L169.2,39.1z M166.8,37.1l-0.3,0.7l-1.9-0.9l0.3-0.6
		c0.2-0.4,0.4-0.7,0.7-0.8c0.2-0.1,0.5-0.1,0.8,0c0.3,0.2,0.5,0.4,0.6,0.6C167,36.4,167,36.7,166.8,37.1z"/>
	<path class="st0" d="M168.9,33.5c0.5,0.4,1,0.6,1.5,0.7c0.5,0.1,0.9,0.1,1.3-0.1c0.4-0.2,0.7-0.5,1-0.9c0.3-0.4,0.4-0.8,0.5-1.3
		c0-0.4-0.1-0.9-0.3-1.3c-0.2-0.4-0.6-0.8-1.1-1.2c-0.5-0.4-1-0.6-1.5-0.7c-0.5-0.1-0.9-0.1-1.3,0.1c-0.4,0.2-0.7,0.4-1,0.8
		c-0.3,0.4-0.4,0.8-0.4,1.3c0,0.4,0.1,0.9,0.4,1.3C168,32.7,168.4,33.1,168.9,33.5z M168.3,30.1c0.6-0.9,1.6-0.9,2.8,0
		c1.3,0.9,1.6,1.8,1,2.7c-0.3,0.4-0.7,0.6-1.1,0.6c-0.5,0-1-0.2-1.7-0.7c-0.7-0.5-1.1-0.9-1.2-1.4S168.1,30.5,168.3,30.1z"/>
	<path class="st0" d="M176.3,28.7c0.5-0.5,0.8-1.1,0.9-1.8c0.1-0.7-0.3-1.4-1-2.2c-0.8-0.8-1.5-1.1-2.2-1c-0.7,0.1-1.3,0.4-1.9,1.1
		l-0.9,0.9l4.1,4.1L176.3,28.7z M172.7,25.1c0.3-0.3,0.5-0.4,0.8-0.6s0.6-0.1,0.9,0c0.4,0.1,0.7,0.4,1.2,0.8
		c0.6,0.6,0.9,1.2,0.9,1.6c0,0.5-0.2,0.9-0.6,1.3l-0.5,0.5l-3.2-3.2L172.7,25.1z"/>
	<path class="st0" d="M179.8,25c0.5,0.1,1-0.1,1.5-0.4c0.3-0.2,0.6-0.5,0.8-0.8c0.2-0.3,0.2-0.6,0.2-1c0-0.3-0.2-0.7-0.4-1l-2.3-3.2
		l-0.7,0.5l2.2,3.2c0.3,0.4,0.4,0.7,0.3,1c0,0.3-0.2,0.6-0.6,0.8c-0.3,0.2-0.6,0.3-0.9,0.3c-0.3-0.1-0.6-0.3-0.8-0.6l-2.2-3.2
		l-0.7,0.5l2.3,3.2C178.9,24.6,179.3,24.9,179.8,25z"/>
	<path class="st0" d="M184.3,21.1c0.4,0.3,0.8,0.5,1.2,0.5c0.4,0,0.9,0,1.3-0.2c0.3-0.2,0.6-0.4,0.8-0.6c0.2-0.2,0.3-0.5,0.4-0.7
		l-0.6-0.3c-0.1,0.2-0.2,0.4-0.4,0.6c-0.1,0.2-0.3,0.3-0.5,0.4c-0.4,0.2-0.9,0.2-1.3,0c-0.4-0.2-0.8-0.7-1.2-1.4
		c-0.4-0.7-0.5-1.3-0.4-1.8c0.1-0.5,0.4-0.8,0.8-1c0.4-0.2,0.8-0.2,1.2-0.1l0.2-0.7c-0.3-0.1-0.6-0.1-0.8-0.1
		c-0.3,0-0.5,0.1-0.8,0.3c-0.4,0.2-0.7,0.5-0.9,0.8c-0.2,0.4-0.3,0.8-0.3,1.3c0,0.5,0.1,1,0.4,1.6C183.6,20.3,183.9,20.8,184.3,21.1
		z"/>
	<polygon class="st0" points="189,14.9 190.6,19.8 191.3,19.5 189.8,14.6 191.3,14.2 191.2,13.5 187.2,14.7 187.5,15.4 	"/>
	<path class="st0" d="M193.9,17.5c0.3,0.4,0.6,0.7,1,0.9c0.4,0.2,0.8,0.2,1.3,0.1s0.9-0.3,1.2-0.6c0.3-0.3,0.6-0.7,0.7-1.1
		s0.1-1,0-1.6c-0.1-0.6-0.3-1.2-0.6-1.6c-0.3-0.4-0.6-0.7-1-0.9c-0.4-0.2-0.8-0.2-1.3-0.1c-0.5,0.1-0.9,0.3-1.2,0.6
		c-0.3,0.3-0.6,0.7-0.7,1.2c-0.1,0.5-0.1,1,0,1.6C193.5,16.5,193.7,17.1,193.9,17.5z M194.4,13.9c0.2-0.4,0.6-0.7,1.1-0.7
		c1.1-0.2,1.7,0.5,1.9,2.1c0.2,1.5-0.2,2.4-1.2,2.6c-0.5,0.1-0.9,0-1.2-0.4c-0.3-0.3-0.6-0.9-0.7-1.7
		C194.1,15,194.1,14.4,194.4,13.9z"/>
	<polygon class="st0" points="206.8,17.6 204.4,17.4 204.5,15.4 206.5,15.5 206.5,14.9 204.6,14.7 204.7,12.9 207,13 207.1,12.4 
		204,12.2 203.5,17.9 206.7,18.2 	"/>
	<path class="st0" d="M209.4,18.4c0.3,0.3,0.7,0.5,1.1,0.6c0.4,0.1,0.7,0.1,1,0c0.3-0.1,0.6-0.2,0.8-0.3l-0.3-0.6
		c-0.2,0.1-0.5,0.2-0.7,0.2c-0.2,0-0.4,0-0.7,0c-0.5-0.1-0.8-0.4-1-0.8c-0.2-0.4-0.2-1,0-1.8c0.2-0.8,0.5-1.3,0.8-1.6
		c0.4-0.3,0.8-0.4,1.3-0.3c0.4,0.1,0.7,0.3,1,0.7l0.5-0.4c-0.2-0.3-0.4-0.4-0.6-0.6c-0.2-0.1-0.5-0.3-0.8-0.3
		c-0.4-0.1-0.9-0.1-1.3,0.1c-0.4,0.1-0.8,0.4-1.1,0.8c-0.3,0.4-0.5,0.9-0.7,1.5c-0.1,0.6-0.2,1.2-0.1,1.7
		C208.9,17.7,209.1,18.1,209.4,18.4z"/>
	<path class="st0" d="M215.4,20.7c0.5,0.2,0.9,0.2,1.3,0.2s0.8-0.3,1.2-0.6c0.4-0.3,0.7-0.8,0.9-1.4c0.2-0.6,0.4-1.1,0.3-1.6
		c0-0.5-0.2-0.9-0.4-1.3c-0.3-0.4-0.6-0.6-1.1-0.8c-0.4-0.2-0.9-0.2-1.3-0.2s-0.8,0.3-1.2,0.6c-0.4,0.3-0.7,0.8-0.9,1.4
		c-0.2,0.6-0.4,1.1-0.3,1.6c0,0.5,0.2,0.9,0.4,1.3S215,20.5,215.4,20.7z M215.1,17.3c0.3-0.7,0.7-1.2,1.1-1.5
		c0.4-0.2,0.8-0.3,1.3-0.1c1,0.4,1.2,1.3,0.6,2.8c-0.6,1.4-1.4,2-2.4,1.6c-0.5-0.2-0.8-0.5-0.9-1C214.7,18.6,214.8,18,215.1,17.3z"
		/>
	<polygon class="st0" points="222.5,23.5 220.4,22.2 223.1,17.9 222.4,17.5 219.4,22.4 222,24 	"/>
	<path class="st0" d="M224.7,26.2c0.4,0.3,0.8,0.5,1.2,0.5c0.4,0.1,0.9,0,1.3-0.2c0.4-0.2,0.9-0.6,1.3-1c0.4-0.5,0.7-1,0.8-1.5
		c0.1-0.5,0.1-0.9,0-1.3c-0.1-0.4-0.4-0.8-0.8-1.1c-0.4-0.3-0.8-0.5-1.2-0.5c-0.4-0.1-0.9,0-1.3,0.3c-0.4,0.2-0.9,0.6-1.3,1
		c-0.4,0.5-0.7,1-0.8,1.4c-0.1,0.5-0.1,0.9,0,1.3C224.1,25.5,224.3,25.9,224.7,26.2z M225.4,22.9c0.5-0.6,1-1,1.5-1.1
		c0.5-0.1,0.9,0,1.3,0.3c0.8,0.7,0.7,1.6-0.3,2.8c-1,1.2-1.9,1.5-2.7,0.8c-0.4-0.3-0.6-0.7-0.5-1.2
		C224.6,24.1,224.8,23.5,225.4,22.9z"/>
	<polygon class="st0" points="230.2,20.7 228.3,20.3 228.2,20.7 230,21.4 	"/>
	<path class="st0" d="M228.6,28.9c-0.1,0.7,0.1,1.3,0.6,1.9c0.4,0.5,1,0.9,1.6,1.1L233,30l-1.2-1.5l-0.4,0.5l0.7,0.8l-1.3,1.1
		c-0.3-0.1-0.6-0.3-0.9-0.7c-0.3-0.4-0.5-0.8-0.3-1.3c0.1-0.4,0.5-0.9,1.1-1.5c0.4-0.4,0.8-0.6,1.2-0.7c0.4-0.1,0.7-0.1,1,0
		c0.3,0.1,0.5,0.2,0.7,0.5c0.2,0.2,0.3,0.4,0.4,0.6c0.1,0.2,0.1,0.4,0.1,0.7l0.7,0c0-0.3-0.1-0.6-0.2-0.9c-0.1-0.3-0.3-0.5-0.5-0.8
		c-0.3-0.3-0.7-0.6-1.1-0.7c-0.4-0.1-0.9-0.2-1.4,0c-0.5,0.1-1,0.4-1.5,0.8C229.2,27.6,228.8,28.2,228.6,28.9z"/>
	
		<rect x="231.4" y="32.1" transform="matrix(0.8352 -0.5499 0.5499 0.8352 20.7408 134.1838)" class="st0" width="5.8" height="0.8"/>
	<path class="st0" d="M234.4,35.8c-0.3,0.4-0.5,0.8-0.5,1.2c0,0.4,0,0.9,0.2,1.3c0.2,0.3,0.4,0.6,0.6,0.8c0.2,0.2,0.5,0.3,0.7,0.4
		l0.3-0.6c-0.2-0.1-0.4-0.2-0.6-0.4c-0.2-0.1-0.3-0.3-0.4-0.5c-0.2-0.4-0.2-0.9,0-1.3c0.2-0.4,0.7-0.8,1.4-1.2
		c0.7-0.4,1.3-0.5,1.8-0.4c0.5,0.1,0.8,0.4,1,0.8c0.2,0.4,0.2,0.7,0.1,1.2l0.7,0.2c0.1-0.3,0.1-0.6,0.1-0.8c0-0.3-0.1-0.5-0.3-0.8
		c-0.2-0.4-0.5-0.7-0.9-0.9c-0.4-0.2-0.8-0.3-1.3-0.3c-0.5,0-1,0.2-1.6,0.4C235.2,35.1,234.7,35.4,234.4,35.8z"/>
	<path class="st0" d="M236.7,40.7c-0.4,0.3-0.6,0.7-0.7,1.1c-0.1,0.4-0.1,0.9,0.1,1.3s0.4,0.8,0.7,1.1c0.3,0.3,0.7,0.5,1.2,0.5
		c0.5,0.1,1,0,1.6-0.2c0.6-0.2,1.1-0.4,1.5-0.8c0.4-0.3,0.6-0.7,0.7-1.1c0.1-0.4,0.1-0.9,0-1.3c-0.1-0.5-0.4-0.8-0.7-1.1
		c-0.3-0.3-0.8-0.5-1.2-0.5c-0.5-0.1-1,0-1.6,0.2C237.6,40.1,237.1,40.3,236.7,40.7z M240.2,40.6c0.4,0.2,0.7,0.5,0.9,1
		c0.3,1-0.3,1.8-1.8,2.2c-1.5,0.5-2.4,0.2-2.7-0.8c-0.1-0.5-0.1-0.9,0.2-1.3s0.8-0.7,1.6-0.9C239.2,40.5,239.8,40.4,240.2,40.6z"/>
	<path class="st0" d="M164.4,65.8c0.2,0.6,0.5,1.1,0.9,1.4c0.4,0.3,0.9,0.3,1.5,0.1c0.6-0.2,0.9-0.5,1.1-1c0.2-0.5,0.1-1-0.1-1.7
		l-0.5-1.4l-5.5,1.8l0.2,0.8l2-0.7L164.4,65.8z M167.1,64.2l0.2,0.7c0.1,0.4,0.2,0.8,0.1,1.1c-0.1,0.3-0.3,0.5-0.7,0.6
		c-0.4,0.1-0.8,0.1-1,0s-0.4-0.5-0.6-0.9l-0.2-0.7L167.1,64.2z"/>
	<path class="st0" d="M169.5,72.4c0.5-0.2,0.8-0.6,0.8-1.1c0.1-0.5,0-1-0.4-1.7l-0.7-1.4l-5.2,2.6l0.4,0.7l2.2-1.1l0.4,0.8l-1.6,2.3
		l0.4,0.8l1.6-2.6c0.3,0.3,0.6,0.5,0.9,0.6C168.8,72.6,169.1,72.6,169.5,72.4z M167.6,71l-0.4-0.7l1.9-0.9l0.3,0.6
		c0.2,0.4,0.3,0.8,0.3,1c0,0.3-0.2,0.5-0.5,0.6c-0.3,0.2-0.6,0.2-0.9,0.1C168,71.6,167.7,71.4,167.6,71z"/>
	<path class="st0" d="M173.3,77.3c0.2-0.4,0.3-0.9,0.3-1.3c0-0.4-0.2-0.8-0.5-1.2c-0.3-0.4-0.6-0.7-1-0.8s-0.9-0.2-1.3-0.1
		s-1,0.3-1.5,0.7c-0.5,0.4-0.9,0.8-1.1,1.2c-0.2,0.4-0.3,0.9-0.3,1.3c0,0.4,0.2,0.8,0.5,1.2c0.3,0.4,0.6,0.7,1,0.8
		c0.4,0.2,0.9,0.2,1.3,0.1c0.5-0.1,1-0.3,1.5-0.7C172.7,78.1,173.1,77.7,173.3,77.3z M171.7,77.8c-1.3,0.9-2.2,0.9-2.8,0.1
		c-0.3-0.4-0.4-0.8-0.2-1.3c0.1-0.5,0.5-0.9,1.2-1.4c0.7-0.5,1.2-0.7,1.7-0.7c0.5,0,0.9,0.2,1.2,0.6C173.3,76,172.9,76.9,171.7,77.8
		z"/>
	<path class="st0" d="M176.6,79l-0.9-0.8l-4,4.2l1,1c0.5,0.5,1.2,0.8,1.8,0.9c0.7,0.1,1.4-0.3,2.1-1.1c0.8-0.8,1.1-1.5,1-2.2
		C177.6,80.2,177.2,79.6,176.6,79z M176.1,82.4c-0.6,0.6-1.1,0.9-1.6,0.9c-0.5,0-0.9-0.2-1.3-0.6l-0.5-0.5l3.1-3.3l0.4,0.4
		c0.3,0.3,0.5,0.5,0.6,0.8c0.1,0.3,0.1,0.6,0,0.9C176.8,81.6,176.5,82,176.1,82.4z"/>
	<path class="st0" d="M182.7,83.9l-2.2,3.2c-0.3,0.4-0.5,0.6-0.8,0.7c-0.3,0.1-0.6,0-0.9-0.3c-0.3-0.2-0.5-0.5-0.6-0.8
		c0-0.3,0.1-0.6,0.3-1l2.2-3.2L180,82l-2.2,3.2c-0.3,0.5-0.5,1-0.4,1.5c0.1,0.5,0.4,0.9,0.9,1.3c0.4,0.2,0.7,0.4,1,0.4
		c0.3,0,0.7,0,1-0.2c0.3-0.2,0.6-0.4,0.8-0.7l2.2-3.2L182.7,83.9z"/>
	<path class="st0" d="M187,86.1c-0.4-0.2-0.8-0.3-1.2-0.2c-0.4,0.1-0.8,0.2-1.2,0.5c-0.4,0.3-0.7,0.8-1,1.3
		c-0.3,0.6-0.4,1.1-0.4,1.6c0,0.5,0.1,0.9,0.3,1.3c0.2,0.4,0.6,0.7,1,0.9c0.3,0.2,0.6,0.2,1,0.2c0.3,0,0.6,0,0.8-0.1l-0.1-0.6
		c-0.3,0-0.5,0.1-0.7,0.1c-0.2,0-0.4-0.1-0.6-0.2c-0.4-0.2-0.7-0.5-0.8-1c-0.1-0.5,0-1.1,0.4-1.8c0.4-0.7,0.7-1.2,1.2-1.4
		c0.4-0.2,0.9-0.2,1.3,0c0.4,0.2,0.6,0.5,0.8,0.9l0.6-0.3c-0.1-0.3-0.3-0.5-0.5-0.7C187.6,86.4,187.4,86.3,187,86.1z"/>
	<polygon class="st0" points="189,87.9 190.6,88.4 189.1,93.2 189.8,93.5 191.4,88.6 192.9,89.1 193.2,88.5 189.2,87.2 	"/>
	<path class="st0" d="M197.6,89.5c-0.3-0.3-0.7-0.5-1.2-0.5c-0.5-0.1-0.9,0-1.3,0.2c-0.4,0.2-0.7,0.5-1,0.9
		c-0.3,0.4-0.5,0.9-0.6,1.5c-0.1,0.6-0.1,1.2,0.1,1.7c0.1,0.5,0.4,0.9,0.7,1.1c0.3,0.3,0.7,0.5,1.2,0.5c0.5,0.1,0.9,0,1.3-0.2
		c0.4-0.2,0.7-0.5,1-0.9c0.3-0.4,0.5-0.9,0.6-1.5c0.1-0.6,0.1-1.2-0.1-1.7C198.2,90.1,197.9,89.8,197.6,89.5z M197.5,92.1
		c-0.2,1.5-0.9,2.2-1.9,2.1c-0.5-0.1-0.9-0.3-1.1-0.7c-0.2-0.4-0.3-1-0.1-1.8c0.1-0.8,0.4-1.4,0.7-1.7c0.3-0.3,0.8-0.5,1.3-0.4
		C197.3,89.7,197.7,90.6,197.5,92.1z"/>
	<polygon class="st0" points="204.7,94.5 204.5,92.6 206.4,92.4 206.4,91.8 204.4,91.9 204.3,90 206.5,89.9 206.6,89.2 203.4,89.5 
		203.9,95.2 207.1,95 207.1,94.3 	"/>
	<path class="st0" d="M212.1,93.3c-0.2,0.1-0.4,0.2-0.6,0.3c-0.5,0.1-0.9,0-1.3-0.3c-0.4-0.3-0.6-0.8-0.8-1.6
		c-0.2-0.8-0.2-1.4,0-1.8s0.5-0.7,1-0.8c0.4-0.1,0.8,0,1.2,0.2l0.3-0.6c-0.3-0.1-0.6-0.2-0.8-0.3c-0.3,0-0.5,0-0.9,0.1
		c-0.4,0.1-0.8,0.3-1.1,0.6c-0.3,0.3-0.5,0.7-0.6,1.2c-0.1,0.5-0.1,1,0,1.7c0.1,0.6,0.4,1.1,0.7,1.5c0.3,0.4,0.7,0.7,1.1,0.8
		c0.4,0.1,0.8,0.2,1.3,0.1c0.4-0.1,0.7-0.2,0.9-0.4c0.2-0.2,0.4-0.4,0.6-0.6l-0.5-0.4C212.5,93,212.3,93.2,212.1,93.3z"/>
	<path class="st0" d="M217.6,87.3c-0.4-0.3-0.7-0.6-1.2-0.6c-0.4-0.1-0.9,0-1.3,0.2c-0.4,0.2-0.8,0.4-1.1,0.8
		c-0.3,0.4-0.4,0.8-0.4,1.3c0,0.5,0.1,1,0.3,1.6c0.2,0.6,0.5,1.1,0.9,1.4c0.4,0.3,0.7,0.5,1.2,0.6c0.4,0.1,0.9,0,1.3-0.2
		c0.5-0.2,0.8-0.4,1.1-0.8c0.3-0.4,0.4-0.8,0.4-1.3c0-0.5-0.1-1-0.3-1.6C218.3,88.1,218,87.7,217.6,87.3z M217.1,91.8
		c-0.5,0.2-0.9,0.2-1.3-0.1s-0.8-0.7-1-1.5c-0.3-0.7-0.4-1.4-0.3-1.8s0.4-0.8,0.9-1c1-0.4,1.8,0.1,2.4,1.6
		C218.3,90.5,218.1,91.4,217.1,91.8z"/>
	<polygon class="st0" points="222.3,89.1 219.7,84.7 219,85.2 221.9,90.1 224.6,88.6 224.3,87.9 	"/>
	<polygon class="st0" points="223.3,81.7 224.3,80 223.7,79.7 222.9,81.5 	"/>
	<path class="st0" d="M228,82.3c-0.4-0.5-0.8-0.9-1.3-1.1c-0.4-0.2-0.9-0.3-1.3-0.3c-0.4,0-0.8,0.2-1.2,0.5
		c-0.4,0.3-0.6,0.7-0.8,1.1c-0.1,0.4-0.1,0.9,0,1.3c0.1,0.5,0.4,1,0.8,1.5c0.4,0.5,0.8,0.9,1.3,1.1c0.4,0.2,0.9,0.3,1.3,0.3
		c0.4-0.1,0.8-0.2,1.2-0.5c0.4-0.3,0.6-0.7,0.8-1.1c0.1-0.4,0.1-0.9,0-1.3C228.7,83.3,228.4,82.8,228,82.3z M227.6,85.7
		c-0.4,0.3-0.8,0.4-1.3,0.3c-0.5-0.1-0.9-0.5-1.4-1.1c-0.5-0.6-0.8-1.2-0.8-1.7c0-0.5,0.2-0.9,0.6-1.2c0.8-0.7,1.7-0.4,2.7,0.8
		C228.4,84,228.4,85,227.6,85.7z"/>
	<path class="st0" d="M230.8,78.9l0.5,0.4l0.7-0.8l1.3,1.2c-0.1,0.3-0.3,0.7-0.5,1c-0.3,0.4-0.7,0.6-1.2,0.5c-0.5,0-1-0.3-1.6-0.9
		c-0.4-0.4-0.7-0.7-0.8-1.1c-0.2-0.4-0.2-0.7-0.2-1c0-0.3,0.2-0.6,0.4-0.8c0.2-0.2,0.3-0.3,0.5-0.4c0.2-0.1,0.4-0.2,0.7-0.2
		l-0.1-0.7c-0.3,0.1-0.6,0.1-0.9,0.3c-0.3,0.1-0.5,0.3-0.7,0.6c-0.3,0.3-0.5,0.7-0.6,1.2c-0.1,0.4,0,0.9,0.2,1.4
		c0.2,0.5,0.5,0.9,1,1.3c0.7,0.7,1.4,1,2.1,1c0.7,0,1.3-0.3,1.8-0.8c0.4-0.5,0.7-1.1,0.9-1.8l-2.1-1.9L230.8,78.9z"/>
	
		<rect x="233.4" y="72.6" transform="matrix(0.5647 -0.8253 0.8253 0.5647 39.4481 225.8379)" class="st0" width="0.8" height="5.8"/>
	<path class="st0" d="M238.6,71c0,0.3,0,0.5,0,0.7c0,0.2-0.1,0.4-0.2,0.6c-0.2,0.4-0.6,0.7-1,0.8c-0.5,0.1-1.1-0.1-1.8-0.4
		c-0.7-0.4-1.2-0.8-1.4-1.2c-0.2-0.4-0.2-0.9,0.1-1.3c0.2-0.3,0.5-0.6,0.9-0.8l-0.3-0.6c-0.3,0.1-0.5,0.3-0.7,0.4
		c-0.2,0.2-0.4,0.4-0.5,0.7c-0.2,0.4-0.3,0.8-0.3,1.2c0,0.4,0.2,0.8,0.5,1.2c0.3,0.4,0.7,0.7,1.3,1c0.6,0.3,1.1,0.5,1.6,0.5
		c0.5,0,0.9-0.1,1.3-0.3c0.4-0.2,0.7-0.5,0.9-1c0.2-0.3,0.3-0.6,0.3-0.9c0-0.3,0-0.6-0.1-0.8L238.6,71z"/>
	<path class="st0" d="M240.7,64.6c-0.4-0.3-0.8-0.6-1.4-0.8c-0.6-0.2-1.2-0.3-1.6-0.2c-0.5,0-0.9,0.2-1.2,0.5
		c-0.3,0.3-0.6,0.6-0.7,1.1c-0.2,0.5-0.2,0.9-0.1,1.3c0.1,0.4,0.3,0.8,0.7,1.1c0.4,0.3,0.8,0.6,1.4,0.8c0.6,0.2,1.1,0.3,1.6,0.2
		c0.5,0,0.9-0.2,1.2-0.5c0.3-0.3,0.6-0.6,0.7-1.1c0.2-0.5,0.2-0.9,0.1-1.3S241.1,65,240.7,64.6z M240.7,66.9
		c-0.2,0.5-0.5,0.8-0.9,0.9c-0.4,0.1-1,0.1-1.8-0.2c-0.8-0.3-1.3-0.6-1.6-1c-0.3-0.4-0.3-0.8-0.2-1.3c0.3-1,1.3-1.3,2.7-0.8
		C240.5,65.1,241.1,65.9,240.7,66.9z"/>
	<circle class="st0" cx="163.4" cy="53.5" r="1.7"/>
	<circle class="st0" cx="241" cy="53.5" r="1.7"/>
	<path class="st0" d="M234.2,53.7c0-17.8-14.5-32.2-32.2-32.2c-17.8,0-32.2,14.5-32.2,32.2S184.2,86,201.9,86S234.2,71.5,234.2,53.7
		z M201.9,84.6L201.9,84.6c-17,0-30.8-13.8-30.8-30.8s13.8-30.8,30.8-30.8s30.8,13.8,30.8,30.8S218.9,84.6,201.9,84.6z"/>
	<path class="st0" d="M202.3,61.3v-8.4c7-0.4,12.6-6.2,12.6-13.3c0-0.4-0.3-0.7-0.7-0.7c-5.9,0-10.8,3.8-12.6,9.1
		c-0.6-1.9-1.7-3.7-3.2-5.2c-2.5-2.5-5.9-3.9-9.4-3.9h0c-0.4,0-0.7,0.3-0.7,0.7c0,7.1,5.6,12.9,12.6,13.3v8.5
		c-5,0.3-9.7,2.5-13.1,6.1c-0.2,0.2-0.2,0.5-0.1,0.8c0.1,0.3,0.4,0.4,0.6,0.4l27.3,0c0.3,0,0.5-0.2,0.6-0.4c0.1-0.3,0.1-0.6-0.1-0.8
		C212.5,63.6,207.5,61.4,202.3,61.3z M205.8,43.7c2.1-2.1,4.8-3.3,7.7-3.5c-0.3,5.6-4.6,10.2-10.1,11l5-5c0.3-0.3,0.3-0.7,0-1
		c-0.3-0.3-0.7-0.3-1,0l-5,5C202.8,47.8,204,45.6,205.8,43.7z M189.7,40.3c5.6,0.3,10.2,4.6,11.1,10.1l-5-5c-0.3-0.3-0.7-0.3-1,0
		c-0.3,0.3-0.3,0.7,0,1l5,5C194.3,50.5,190.1,45.9,189.7,40.3z"/>
	<path class="st0" d="M478.4,27.9c0.6,0.5,1.1,0.9,1.7,1c0.6,0.2,1.1,0.2,1.6,0.1c0.5-0.1,0.9-0.4,1.3-0.8c0.3-0.3,0.5-0.7,0.6-1
		c0.1-0.3,0.2-0.7,0.1-1l-0.8-0.1c0,0.3-0.1,0.6-0.2,0.8c-0.1,0.2-0.2,0.5-0.4,0.7c-0.4,0.4-0.9,0.6-1.4,0.6c-0.6,0-1.2-0.4-1.9-1
		c-0.7-0.7-1.1-1.3-1.2-1.8c-0.1-0.6,0.1-1,0.4-1.5c0.3-0.3,0.7-0.6,1.3-0.6l-0.1-0.8c-0.4,0.1-0.7,0.1-1,0.3
		c-0.3,0.1-0.5,0.4-0.8,0.7c-0.4,0.4-0.6,0.8-0.7,1.3c-0.1,0.5,0,1,0.2,1.6C477.5,26.9,477.9,27.4,478.4,27.9z"/>
	<path class="st0" d="M488.8,23.1l-0.5-1.7l2.2-1.4l1.3,1.2l0.9-0.5l-5.4-4.7l-1,0.6l1.7,7L488.8,23.1z M490,19.5l-1.8,1.1l-0.9-3.6
		L490,19.5z"/>
	<polygon class="st0" points="501.5,17.7 501.3,16.9 498.6,17.6 497,11.8 496.1,12 497.9,18.7 	"/>
	
		<rect x="507.2" y="10.2" transform="matrix(0.9996 -2.853775e-02 2.853775e-02 0.9996 -0.1814 14.4934)" class="st0" width="0.9" height="6.9"/>
	<path class="st0" d="M518.8,17.6c0.7-0.4,1.2-1.2,1.5-2.4c0.3-1.3,0.2-2.2-0.3-2.8c-0.5-0.6-1.3-1-2.3-1.3l-1.4-0.3l-1.6,6.7
		l1.6,0.4C517.3,18,518.1,18,518.8,17.6z M517.1,11.7l0.7,0.2c0.4,0.1,0.8,0.2,1.1,0.4c0.3,0.2,0.5,0.5,0.6,0.9
		c0.1,0.4,0.1,1-0.1,1.7c-0.2,1-0.6,1.7-1.1,1.9c-0.5,0.3-1,0.4-1.7,0.2l-0.8-0.2L517.1,11.7z"/>
	<path class="st0" d="M526.4,19.6l2.3,1.3l-0.4,1.8l0.9,0.5l1.5-7.1l-1-0.6l-5.4,4.9l0.8,0.5L526.4,19.6z M529.7,16.5l-0.9,3.6
		l-1.9-1.1L529.7,16.5z"/>
	<path class="st0" d="M536.6,29.1c0.8,0.1,1.7-0.3,2.6-1.2c1-0.9,1.4-1.7,1.3-2.5c-0.1-0.8-0.5-1.6-1.2-2.3l-1-1.1l-5,4.7l1.1,1.2
		C535.1,28.6,535.8,29,536.6,29.1z M538.5,23.2l0.5,0.5c0.3,0.3,0.5,0.6,0.6,1c0.1,0.3,0.1,0.7,0,1.1c-0.1,0.4-0.5,0.9-1,1.4
		c-0.8,0.7-1.4,1-2,1c-0.6,0-1.1-0.3-1.5-0.7l-0.5-0.6L538.5,23.2z"/>
	<path class="st0" d="M478.6,52.7c0,16.6,13.5,30.2,30.2,30.2c16.6,0,30.2-13.5,30.2-30.2c0-16.6-13.5-30.2-30.2-30.2
		C492.2,22.5,478.6,36.1,478.6,52.7z M508.8,23.8c16,0,28.9,13,28.9,28.9s-13,28.9-28.9,28.9c-16,0-28.9-13-28.9-28.9
		S492.8,23.8,508.8,23.8z"/>
	<path class="st0" d="M468.8,53.8c0.3-0.2,0.5-0.4,0.6-0.7s0.3-0.6,0.5-1.1c0.1-0.4,0.3-0.7,0.4-0.9c0.1-0.2,0.2-0.4,0.4-0.4
		c0.1-0.1,0.3-0.1,0.5-0.1c0.3,0,0.6,0.1,0.7,0.4c0.2,0.2,0.2,0.5,0.2,0.9c0,0.3-0.1,0.6-0.2,0.8c-0.1,0.2-0.3,0.5-0.5,0.8l0.6,0.5
		c0.3-0.3,0.5-0.6,0.6-0.9c0.1-0.3,0.2-0.7,0.2-1.2c0-0.4-0.1-0.8-0.2-1.1c-0.1-0.3-0.4-0.6-0.6-0.8c-0.3-0.2-0.6-0.3-0.9-0.3
		c-0.5,0-0.9,0.1-1.2,0.5c-0.3,0.3-0.6,0.8-0.8,1.5c-0.1,0.4-0.3,0.7-0.4,0.9c-0.1,0.2-0.3,0.4-0.4,0.4c-0.2,0.1-0.3,0.1-0.6,0.1
		c-0.4,0-0.7-0.2-0.9-0.4c-0.2-0.3-0.3-0.6-0.3-1.1c0-0.4,0.1-0.7,0.2-1c0.1-0.3,0.3-0.6,0.5-0.8l-0.6-0.5c-0.6,0.6-0.9,1.4-0.9,2.3
		c0,0.5,0.1,0.9,0.2,1.3c0.2,0.4,0.4,0.7,0.7,0.9c0.3,0.2,0.7,0.3,1.1,0.3C468.2,54,468.6,54,468.8,53.8z"/>
	<path class="st0" d="M474.3,63l-4.5,1.1c-0.5,0.1-0.9,0.1-1.3-0.1c-0.3-0.2-0.5-0.5-0.7-1c-0.1-0.5-0.1-0.9,0.1-1.2
		c0.2-0.3,0.6-0.5,1.1-0.6l4.5-1.1l-0.2-0.9l-4.5,1.1c-0.7,0.2-1.2,0.5-1.5,1c-0.3,0.5-0.4,1.1-0.2,1.9c0.1,0.5,0.3,0.9,0.6,1.2
		c0.3,0.3,0.6,0.5,1,0.6c0.4,0.1,0.8,0.1,1.2,0l4.5-1.1L474.3,63z"/>
	<path class="st0" d="M478.2,72.7c0.1-0.6-0.1-1.2-0.5-2l-0.9-1.6l-5.9,3.5l0.5,0.8l2.2-1.3l0.4,0.8c0.4,0.7,0.9,1.2,1.5,1.4
		c0.6,0.2,1.2,0.2,1.8-0.2C477.8,73.8,478.1,73.3,478.2,72.7z M477.3,72.3c0,0.4-0.3,0.7-0.7,0.9c-0.5,0.3-0.9,0.3-1.2,0.2
		c-0.3-0.1-0.6-0.5-0.9-0.9l-0.4-0.7l2.5-1.4l0.4,0.7C477.3,71.6,477.4,72,477.3,72.3z"/>
	<polygon class="st0" points="477.4,82 480.1,84.6 480.7,84.1 478.6,82.1 480.3,80.4 481.9,82 482.5,81.5 480.8,79.9 482.4,78.3 
		484.3,80.2 484.9,79.7 482.3,77.1 	"/>
	<path class="st0" d="M490.9,83.9l-1.6-0.9l-3.4,6l0.8,0.5l1.4-2.5l0.9,0.5l0,3.4l1,0.6l-0.1-3.6c0.5,0.1,0.9,0.1,1.3,0
		c0.4-0.1,0.7-0.4,0.9-0.8c0.3-0.6,0.4-1.1,0.1-1.6C492.1,84.8,491.6,84.3,490.9,83.9z M491.3,86.4c-0.2,0.4-0.5,0.6-0.8,0.7
		c-0.3,0.1-0.7,0-1.1-0.3l-0.8-0.5l1.2-2.2l0.7,0.4c0.5,0.3,0.8,0.6,0.9,0.9C491.5,85.7,491.5,86,491.3,86.4z"/>
	<path class="st0" d="M506.6,88.6l-1.8-0.1l-0.4,6.9l0.9,0.1l0.1-2.5l0.9,0.1c0.8,0,1.5-0.1,2-0.4c0.5-0.3,0.8-0.9,0.8-1.6
		c0-0.7-0.2-1.2-0.6-1.6C508.1,88.9,507.4,88.7,506.6,88.6z M507.6,92c-0.3,0.2-0.7,0.3-1.3,0.2l-0.8,0l0.2-2.9l0.8,0
		c0.5,0,0.9,0.2,1.2,0.4c0.3,0.2,0.4,0.6,0.4,1.1C508.1,91.4,507.9,91.8,507.6,92z"/>
	<path class="st0" d="M519,90.5c0.2-0.3,0.2-0.8,0.1-1.2c-0.1-0.6-0.5-1.1-1-1.3c-0.5-0.2-1.2-0.2-2-0.1l-1.8,0.4l1.4,6.7l0.9-0.2
		l-0.6-2.9l1-0.2l2.2,2.5l1.1-0.2l-2.5-2.6C518.5,91.2,518.8,90.9,519,90.5z M516.9,91.1l-0.9,0.2l-0.5-2.4l0.8-0.2
		c0.6-0.1,1-0.1,1.3,0c0.3,0.1,0.5,0.4,0.6,0.8c0.1,0.4,0,0.8-0.2,1C517.7,90.8,517.4,91,516.9,91.1z"/>
	<polygon class="st0" points="527.5,90.5 526.4,88.4 528.5,87.3 528.1,86.6 526,87.7 525,85.7 527.4,84.5 527.1,83.8 523.8,85.5 
		527,91.6 530.4,89.8 530,89.2 	"/>
	<path class="st0" d="M534.7,77.7l2.5,4.6l-4.5-2.6l-0.9,0.9l4.3,5.4l0.6-0.6l-1.9-2.4c-0.7-0.8-1.3-1.6-1.9-2.2l4.7,2.6l0.6-0.6
		l-2.5-4.7c0.5,0.5,1.1,1.1,2.1,1.9l2.3,2.1l0.7-0.6l-5.2-4.6L534.7,77.7z"/>
	
		<rect x="541.9" y="69.9" transform="matrix(0.5244 -0.8515 0.8515 0.5244 195.5019 496.7245)" class="st0" width="0.9" height="6.9"/>
	<path class="st0" d="M549.4,63.4c-0.3-0.3-0.6-0.5-1.1-0.6l-4.5-1.4l-0.3,0.9l4.4,1.4c0.5,0.2,0.9,0.4,1,0.7c0.2,0.3,0.2,0.7,0,1.2
		c-0.1,0.5-0.4,0.8-0.7,0.9c-0.3,0.1-0.7,0.1-1.3,0l-4.4-1.4l-0.3,0.9l4.5,1.4c0.7,0.2,1.3,0.2,1.8-0.1c0.5-0.3,0.9-0.8,1.1-1.5
		c0.2-0.5,0.2-0.9,0.1-1.3C549.8,64.1,549.6,63.7,549.4,63.4z"/>
	<path class="st0" d="M551.7,50.5l0-0.9l-6.9,0.5l0,1.3l5,1.5l-5,1.4l0,1.3l6.9,0.7l0-0.9l-3-0.3c-1.1-0.1-2.1-0.2-2.9-0.2l5.2-1.5
		l0-0.9l-5.1-1.6c0.7,0,1.6,0,2.8-0.1L551.7,50.5z"/>
	<circle class="st0" cx="473.1" cy="36.2" r="1.4"/>
	<circle class="st0" cx="544.5" cy="36.2" r="1.4"/>
	<path class="st0" d="M501.8,41.9c0.1,0.2,0.4,0.3,0.6,0.3l4.2-0.5l1.7,3.8c0.1,0.2,0.3,0.4,0.6,0.4s0.5-0.1,0.6-0.4l1.7-3.8
		l4.2,0.5c0.2,0,0.5-0.1,0.6-0.3c0.1-0.2,0.1-0.5,0-0.7l-2.5-3.4l2.5-3.4c0.1-0.2,0.2-0.5,0-0.7s-0.4-0.3-0.6-0.3l-4.2,0.5l-1.7-3.8
		c-0.2-0.5-0.9-0.5-1.1,0l-1.7,3.8l-4.2-0.5c-0.2,0-0.5,0.1-0.6,0.3c-0.1,0.2-0.1,0.5,0,0.7l2.5,3.4l-2.5,3.4
		C501.7,41.4,501.7,41.7,501.8,41.9z M505.6,38.2c0.2-0.2,0.2-0.5,0-0.7l-1.9-2.6l3.2,0.3c0.3,0,0.5-0.1,0.6-0.4l1.3-2.9l1.3,2.9
		c0.1,0.2,0.4,0.4,0.6,0.4l3.2-0.3l-1.9,2.6c-0.2,0.2-0.2,0.5,0,0.7l1.9,2.6l-3.2-0.3c-0.3,0-0.5,0.1-0.6,0.4l-1.3,2.9l-1.3-2.9
		c-0.1-0.2-0.3-0.4-0.6-0.4c0,0,0,0-0.1,0l-3.2,0.3L505.6,38.2z"/>
	<path class="st0" d="M506.7,62.8c-0.1-0.2-0.4-0.3-0.6-0.3L502,63l-1.7-3.8c-0.2-0.5-0.9-0.5-1.1,0l-1.7,3.8l-4.2-0.5
		c-0.3,0-0.5,0.1-0.6,0.3c-0.1,0.2-0.1,0.5,0,0.7l2.5,3.4l-2.5,3.4c-0.1,0.2-0.2,0.5,0,0.7c0.1,0.2,0.4,0.3,0.6,0.3l4.2-0.5l1.7,3.8
		c0.1,0.2,0.3,0.4,0.6,0.4s0.5-0.1,0.6-0.4l1.7-3.8l4.2,0.5c0.2,0,0.5-0.1,0.6-0.3c0.1-0.2,0.1-0.5,0-0.7l-2.5-3.4l2.5-3.4
		C506.8,63.3,506.8,63,506.7,62.8z M502.9,66.5c-0.2,0.2-0.2,0.5,0,0.7l1.9,2.6l-3.2-0.3c-0.3,0-0.5,0.1-0.6,0.4l-1.3,2.9l-1.3-2.9
		c-0.1-0.2-0.3-0.4-0.6-0.4c0,0,0,0-0.1,0l-3.2,0.3l1.9-2.6c0.2-0.2,0.2-0.5,0-0.7l-1.9-2.6l3.2,0.3c0.3,0,0.5-0.1,0.6-0.4l1.3-2.9
		l1.3,2.9c0.1,0.2,0.4,0.4,0.6,0.4l3.2-0.3L502.9,66.5z"/>
	<path class="st0" d="M524.9,62.8c-0.1-0.2-0.4-0.3-0.6-0.3l-4.2,0.5l-1.7-3.8c-0.2-0.5-0.9-0.5-1.1,0l-1.7,3.8l-4.2-0.5
		c-0.3,0-0.5,0.1-0.6,0.3c-0.1,0.2-0.1,0.5,0,0.7l2.5,3.4l-2.5,3.4c-0.1,0.2-0.2,0.5,0,0.7c0.1,0.2,0.4,0.3,0.6,0.3l4.2-0.5l1.7,3.8
		c0.1,0.2,0.3,0.4,0.6,0.4c0.2,0,0.5-0.1,0.6-0.4l1.7-3.8l4.2,0.5c0.2,0,0.5-0.1,0.6-0.3c0.1-0.2,0.1-0.5,0-0.7l-2.5-3.4l2.5-3.4
		C525.1,63.3,525.1,63,524.9,62.8z M521.2,66.5c-0.2,0.2-0.2,0.5,0,0.7l1.9,2.6l-3.2-0.3c-0.3,0-0.5,0.1-0.6,0.4l-1.3,2.9l-1.3-2.9
		c-0.1-0.2-0.3-0.4-0.6-0.4c0,0,0,0-0.1,0l-3.2,0.3l1.9-2.6c0.2-0.2,0.2-0.5,0-0.7l-1.9-2.6l3.2,0.3c0.3,0,0.5-0.1,0.6-0.4l1.3-2.9
		l1.3,2.9c0.1,0.2,0.4,0.4,0.6,0.4l3.2-0.3L521.2,66.5z"/>
	<path class="st0" d="M516.1,53.1c0.1,0.2,0.4,0.3,0.6,0.3l4.2-0.5l1.7,3.8c0.1,0.2,0.3,0.4,0.6,0.4s0.5-0.1,0.6-0.4l1.7-3.8
		l4.2,0.5c0.2,0,0.5-0.1,0.6-0.3c0.1-0.2,0.1-0.5,0-0.7l-2.5-3.4l2.5-3.4c0.1-0.2,0.2-0.5,0-0.7c-0.1-0.2-0.4-0.3-0.6-0.3l-4.2,0.5
		l-1.7-3.8c-0.2-0.5-0.9-0.5-1.1,0l-1.7,3.8l-4.2-0.5c-0.3,0-0.5,0.1-0.6,0.3c-0.1,0.2-0.1,0.5,0,0.7l2.5,3.4l-2.5,3.4
		C516,52.7,516,52.9,516.1,53.1z M519.9,49.4c0.2-0.2,0.2-0.5,0-0.7l-1.9-2.6l3.2,0.3c0.3,0,0.5-0.1,0.6-0.4l1.3-2.9l1.3,2.9
		c0.1,0.2,0.4,0.4,0.6,0.4l3.2-0.3l-1.9,2.6c-0.2,0.2-0.2,0.5,0,0.7l1.9,2.6l-3.2-0.3c-0.3,0-0.5,0.1-0.6,0.4l-1.3,2.9l-1.3-2.9
		c-0.1-0.2-0.3-0.4-0.6-0.4c0,0,0,0-0.1,0L518,52L519.9,49.4z"/>
	<path class="st0" d="M490,49.1l-2.5,3.4c-0.1,0.2-0.2,0.5,0,0.7c0.1,0.2,0.4,0.3,0.6,0.3l4.2-0.5l1.7,3.8c0.1,0.2,0.3,0.4,0.6,0.4
		s0.5-0.1,0.6-0.4l1.7-3.8l4.2,0.5c0.2,0,0.5-0.1,0.6-0.3c0.1-0.2,0.1-0.5,0-0.7l-2.5-3.4l2.5-3.4c0.1-0.2,0.2-0.5,0-0.7
		c-0.1-0.2-0.4-0.3-0.6-0.3l-4.2,0.5l-1.7-3.8c-0.2-0.5-0.9-0.5-1.1,0l-1.7,3.8l-4.2-0.5c-0.3,0-0.5,0.1-0.6,0.3
		c-0.1,0.2-0.1,0.5,0,0.7L490,49.1z M492.5,46.5c0.3,0,0.5-0.1,0.6-0.4l1.3-2.9l1.3,2.9c0.1,0.2,0.4,0.4,0.6,0.4l3.2-0.3l-1.9,2.6
		c-0.2,0.2-0.2,0.5,0,0.7l1.9,2.6l-3.2-0.3c-0.3,0-0.5,0.1-0.6,0.4l-1.3,2.9l-1.3-2.9c-0.1-0.2-0.3-0.4-0.6-0.4c0,0,0,0-0.1,0
		l-3.2,0.3l1.9-2.6c0.2-0.2,0.2-0.5,0-0.7l-1.9-2.6L492.5,46.5z"/>
</g>
</svg>
